<svg viewBox="0 0 600 600" xmlns="http://www.w3.org/2000/svg"><path d="m439.4 0c.16 0 1.24 1.09 2.7 1.18 14.37.92 28.66 2.59 43.02 3.36l-1.4 2.01c-22.55-1.61-45.2-3.15-67.73-.87-.18 1.75 2.96 1.6 4.25 1.89 22 4.89 45.27.66 67.11 7.19l-70.25-2.28 2.79 3.39 55.19 5.69c.26 1.98-2.53 1.07-3.89 1.12-11.03.46-21.94-1.7-32.4-1.18-5.18.26-10.85 2.11-16.12 2.33l8.5 2.12 43.91 4.69c.26 1.99-2.52 1.06-3.88 1.12-4.91.22-9.23-1.05-13.28-1.02-5.48.05-12.5 2.06-18.52 1.03l15.1 3.34 3.85 2.32h-24.54l33.45 6.82c.26 1.98-2.53 1.07-3.89 1.12-9.54.38-18.12-1.89-27.33.01-.26 1.6 1.97 1.64 3.1 1.93 6.72 1.7 13.88 1.01 20.54 2.95 1.17.34 3.37.26 3.12 1.92h-22.31c-.25 1.65 1.96 1.58 3.12 1.92 4.76 1.36 9.9 1.54 14.71 2.63l-8.91 3.38c8.04 1.04 12.89 8.89 19.29 12.72 19.83 11.86 16.18-.89 20.54-14.72 4.02-12.76 19.89-34.71 34.28-34.32 4.56.13 10.95 1.99 15.68 2.29 12.02.78 24.19 1.13 36.23 1.16.48 1.14-2.6 2.26-2.78 2.26h-55.76c-.52 0-3.82 1.43-5.01 1.7 1.79 1.87 4.94 2.32 7.37 2.71 20.43 3.35 41.53-.67 61.97 3.9 1.31.29 4.43.14 4.26 1.9h-81.41c.41 2.06 2.18 2.13 3.86 2.32 23 2.59 47.15 2.64 70.29 4.51 1.51.12 6.77.54 7.26 2.25h-76.95l20.64 4.53 52.96 2.29c.26 1.98-2.53 1.07-3.89 1.12-25.82 1.08-51.8-1.43-77.54 1.68l-1.1 1.71c17.89 2.3 36.26 2.03 54.12 4.52 1.68.23 3.44.15 3.88 2.3h-64.68c-.87 2.98 2.92 3.22 5 3.41 23.92 2.19 48.15 1.02 71.95 4.54.26 1.98-2.53 1.07-3.89 1.12-9.35.39-19.67.26-29.06.05-3.18-.07-5.92-1.19-8.82-1.24-4.82-.08-33.84-.59-35.17 1.19l2.79 3.38 28.98 1.15 16.18 2.24c-13.51 2.12-26.67.42-40.37 2.61-1.32.21-5.41.28-5.34 1.93l73.06 3.41 1.65 2.27h-74.72c-.97 3.04 4.39 3.24 6.14 3.39 19.23 1.73 38.73 1.97 57.99 3.41 1.76.13 3.32.81 5 1.16.27 1.97-2.53 1.07-3.88 1.12-10.57.4-20.83-.91-31.19-1.18-9.1-.24-18.27.26-27.36.06l51.29 7.94c.23 2.14-2.34.92-3.57.8-15.27-1.44-30.61-1.91-45.91-2.93l-1.27 2.12c1.87 2.41 27.29 3.9 32.36 4.54 2.03.26 1.82-.44 1.66 2.26h-26.77l14.29 4.18 15.81 1.5c1.8 1.4-.14 2.1-1.67 2.29-5.93.73-14.94-2.12-22.32-1.16-1.53.2-3.45.79-1.66 2.26l34.57 3.42c.2 1.65-2.92 2.04-3.99 2.16-6.74.73-13.85.49-20.53 1.8 6.04 3.02 14.88 2.08 21.61 2.97 1.22.16 5.22.44 5.15 2.14h-20.07c-.02 1.66 3.4 2.2 4.7 2.59 6.57 1.97 13.01 2.23 19.83 1.95.83 4.66-7.26-.08-6.68 5.66l14.49 1.15-5.55 3.96 7.78 5.09-8.91.57 12.26 6.25h-16.73c.84 6.52 9.84 2.65 13.38 6.25l-13.38.56c-.25 4.31-.26 9.11 4.45 10.8l13.39 2.81c-4.82 1.6-10.58.41-15.17 2.16-1.16.44-3.22.59-1.54 2.38 2.02 2.15 15.94.94 18.95 3.99l-11.14 1.71c-.3 2.25-.21 1.86 1.38 2.54 2.21.95 8.34-.08 7.55 2.53-.48 1.58-8.25-1.05-8.93 2.84 7.51.56 10.12 8.24 14.49 13.06-2.42.87-6.47-1.44-8.56-2.63-15.62-8.86-23.08-28.56-21.53-46.14.36-4.06 3.41-9.5 1.69-13.06-15.72-9.02-30.48-16.2-42.42-30.62-10.05-12.14-14.26-25.63-19.53-40.26-39.86-8.23-73.18-41.04-75.81-83.41h-336.81l13.38 2.28c.48 1.14-2.6 2.26-2.78 2.26h-69.71c-.25 1.99 2.52 1.08 3.89 1.13 25.22.98 50.41 2.87 75.28 6.82l-3.05 1.97-88.38-.81 8.37 2.25 76.38 6.83c.26 1.98-2.53 1.07-3.89 1.12-13.64.57-28.75.36-42.44.05-3.18-.07-5.87-1.14-8.82-1.24-5.38-.18-11.41-.18-16.79.05-1.36.06-4.15-.86-3.89 1.12l68.47 5.8 12.93 3.28-91.44-2.25 1.66 2.25 77.52 6.82c.16 2.66.37 2-1.65 2.27-17.75 2.31-38.29-2.71-56.33-1.13l54.63 7.94c-.22 2.18-4.48 2.2-6.08 2.31-16.55 1.09-34.09-3.7-50.79-.04l55.75 7.94c.48 1.14-2.6 2.26-2.78 2.26h-46.28l26.22 4.53 34 3.42c.45 1.2-3.67 2.26-3.9 2.26h-42.94l31.23 5.68c.35 2.76-.02 1.8-1.55 2.38-7.21 2.75-17.11-2.18-25.21 1.02.19 1.65 4.86 1.92 6.27 2.12 5.49.78 17.63-.42 19.38 5.81h-21.19c-.15 2.66-.38 2.01 1.65 2.27 9.11 1.19 19.56-.47 28.46 3.41-2.59 3.92-8.63 2.24-12.26 3.95 4.54 5.69 11.97 7.64 18.95 7.38.85 7.18-6.25 3.92-8.92 7.92l18.96 3.43c-1.2 4.61-12.88 2.88-13.39 3.38-.84 8.34.47 18.43 9.95 20.36 5.57-10.96 13.9-21.26 22.99-29.4 3.66-3.28 22.07-15.58 22.67-17.87-1.39-8.36-5.53-16.33-6.41-24.82-1.81-17.3 3.49-34.91 16.02-46.99 18.74-18.07 43.85-9.97 66.68-7.63l8.63 3.13h-52.42c.63 1.58 5.69 1.89 7.39 2.13 16.47 2.3 34.86 1.94 51.01 4.84 2.62.47 7.35.53 8.52 3.23-29 1.1-58.12-5.79-86.98-2.25-.1 1.67 4.01 2 5.15 2.12 15.08 1.56 30.24 1.22 45.25 3.89 1.38.25 5.4.22 5.35 1.9-17.14 2.87-34.46-.71-51.86.01-1.36.06-4.15-.86-3.89 1.12l71.82 6.92 9.58 3.29-83.63-2.25c-.07 1.65 4.02 1.71 5.34 1.93 20.89 3.34 43.47 2.41 64.25 6.12 1.19.21 4.17.4 4.01 2.14-4.82 1.56-10.05 1.35-15.09 1.2-17.74-.53-35.71-2.91-53.43-3.5-3.89-.13-9.8-.42-13.46.05-1.63.21-3.46.86-1.65 2.27 18.67 1.29 37.69 1.5 56.31 3.42 3.39.35 7.46.92 10.83 1.46 1.33.21 5.42.27 5.34 1.94h-64.68c.68 1.67 5.6 1.79 7.43 2.09 15.3 2.47 30.87 2.92 46.1 5.87l-11.65 1.16-47.45-1.16c-.52 3.46.84 1.85 2.81 2.21 12 2.19 24.65 2.12 36.77 3.46 9.88 1.1 19.6 3.77 29.55 3.41.26 1.98-2.53 1.07-3.89 1.12-17.03.71-33.75-1.78-50.75-1.12l40.14 6.81c-1.5 4.39-4.89 1.12-6.13 1.12h-36.25l32.34 5.69c-.42 2.06-2.19 2.11-3.86 2.3-10.26 1.17-20.6-3.34-30.7-.03l22.6 3.65 8.61 3.13c-14.21-.09-28.39-.51-42.37 2.29l16.72 3.4c-2.65 4.41-10.37 1.39-15.04 2.27l-9.48 2.24 44.6 5.7-1.09 1.71c-18.68.06-37.38-2.21-55.78 2.24 6.04 3.4 14.77 1.23 21.73 1.72 7.31.52 14.84 2.12 22.21 2.36l9.58 3.29-28.42.02-26.21 3.38 74.72 3.42v3.39c-29.1-1.25-58.1-1.99-86.99 2.29-.26 1.98 2.53 1.07 3.89 1.12 10.8.45 21.4.05 32.21 1.28 7.72.88 20.21 2.79 27.5 4.98 1.97.59 2.62.23 2.19 2.81-25.4-.41-50.56-3.59-75.83.02-.26 1.98 2.53 1.07 3.89 1.12 14.79.63 30.65 1 45.21 3.95 1.2.24 3.6.08 3.3 1.71l-41.8 1.16-11.72 2.25c13.46.88 27.3.75 40.69 2.29 2.91.33 7 .84 9.76 1.43 1.07.23 3.35.41 3.07 1.95l-45.15 1.16-11.72 2.25 60.76 3.43 13.95 2.25-74.71 2.84c1.27 1.88 3.05 1.63 4.95 1.77 19.7 1.43 41.55-1.54 61.1 3.65 1.3.35 5.15 1.45 5.32 3.1h-82.53c-.15 2.7-.37 2 1.66 2.26 26.69 3.41 55.32-.24 81.97 5.69-.49 1.97-5.67 2.29-7.21 2.31-4.48.06-8.09-1.18-12.24-1.25-19.56-.32-39.13-.05-58.6 1.2l15 2.3c13.67.31 27.73-1.5 40.99 2.55 1.38.42 5.14 1.39 5.34 3.08h-65.24c-.19 0-1.75 1.53-1.67 2.26 12.2.91 27.37-.22 39.07 2.81 1.39.36 5.36 1.17 5.54 2.88h-37.92l15.07 3.39c10.51.97 22.99.13 33.1 2.63 2.53.63 6.81.5 6.48 4.19h-46.84l27.07 4.79 3.04 3.15h-31.23l32.89 6.82 2.8 3.39h-40.15c-.14 2.6-.41 2.03 1.65 2.28 19.64 2.35 39.91 1.79 59.51 4.21l2.42 2.59h-59.11c-.19 2.84-.28 1.95 1.68 2.24 16.53 2.48 34.05.34 50.73 3.44.4 2.03-.96 2.89-2.53 3.66-8.27 4.06-23.56-.84-33.77-.32-2.07.11-7.41.03-8.31 2.31l51.87 3.41-1.13 2.27h-46.28l15.07 2.26c5.82-.1 11.85.03 17.52 1.47 1.14.29 3.35.32 3.1 1.94h-32.9c-.21 0-1.99 1.82-1.67 2.26l34.03 4.55-1.13 2.27h-25.09c.54 1.52 5.88 1.98 7.39 2.13 4.63.47 9.29-.5 13.8 1.29-.75 6.44-9.42 1.77-13.37 3.95 3.94 1.83 6.9 7.08 10.13 9 2.62 1.55 6.41.95 6.67 1.17 1.24 1.09.88 3.61 1.68 5.08 1.44 2.63 10.49 7.6 13.41 7.98 8.25 1.09 8.33-7.47 12.75-12.99 13.33-16.62 36.15-8.73 54.07-7.41 12.77.94 26.36 1.01 39.01 2.3 3.61.37 14.52 1.01 11.16 5.67l-51.24-3.46-37.4 1.19 10.6 2.25 52.96 4.56c.07 1.05-5.8 2.26-6.13 2.26h-64.68c-.22 0-4.35 1.06-3.9 2.26 4.61.2 9.3-.25 13.92.02 17.37 1.04 37.33 2.49 54.52 4.66 1.35.17 6.1.5 6.26 2.12-2.43.29-4.73 1.02-7.2 1.19-20.92 1.45-42.44-2.07-63.62-1.18-1.36.06-4.15-.86-3.89 1.12l71.92 4.55 13.95 3.4h-100.37v2.27h52.97l1.67 5.67h-56.88c-.1 1.68 4 2.01 5.15 2.13 9.56 1.01 20.35 1.74 29.99 2.39 17.97 1.22 36.08 1.54 54.07 2.29l-20.58 2.3-64.17-1.17 19.52 3.38c15.3.48 31.62.06 46.81 1.16 2.71.2 6.79 1.04 9.51 1.68 1.25.29 3.6 0 3.33 1.7h-78.07l15.67 2.84 2.18 2.84h-21.19c-.02 1.77 3.92 1.6 5.39 1.89 6.27 1.25 15.5.35 19.15 6.05h-24.54l14.49 5.12c.53 2.75-2.17 1.61-3.88 1.68-3.52.15-7.09-.12-10.6.01-.3 1.49 2.05 1.8 3.05 1.97 4.38.73 9.24.86 13.68 1.42v3.37c-4.77 2.56-11.34-2.18-14.5 2.28l4.46 1.74-2.15 4.36c6.14 5.88 7.28 18.46 17.75 17.74l-3.33 4.52 6.68 1.17v3.37s-5.57.02-5.57.02c2.88 9.65 13.78 5.94 20.05 10.77l-7.78 3.96c22.56 11.11 46.63 13.85 71.36 15.92v3.37c-10.55-.58-21.2-.64-31.77-1.14-6.76-.32-12.82-1.42-20.1-1.12-1.36.05-4.15-.86-3.89 1.12l66.9 7.96c.26 1.98-2.53 1.07-3.89 1.12-19.16.8-38.79-2.21-58.02-2.27l-1.65 2.27c3.12.18 6.34-.27 9.46.02 15.01 1.39 35.88 1.74 49.91 4.83 1.08.24 3.34.4 3.07 1.95-9.84-.22-19.75.32-29.59.06-6.61-.18-12.8-1.48-20.04-1.18-1.36.06-4.15-.86-3.89 1.12l52.96 4.56 2.8 3.4h-39.03l40.39 4.87 3.1 1.93c-1.38-.43-3.23 1.15-3.9 1.15h-41.82l10.61 2.26 34 3.43c.48 1.14-2.6 2.25-2.78 2.25h-27.32l12.83 2.26c9.66.68 20.14.86 29.58 2.82 1.22.25 3.59.06 3.31 1.72h-52.42c.63 1.58 5.69 1.89 7.39 2.13 9.84 1.37 19.98 1.62 29.89 2.5l8.45 3.32h-34.57l9.49 2.26c4.87.59 22.76.52 25.1 1.69.51.26 1.4 1.46 1.1 1.71l-22.3 2.29 16.49 4.2c21.45 4.04 51.46 2.63 69.3-11.66 8.91-7.14 2.64-9.1.02-16.88-2.21-6.6-4.47-23.53 1.21-28.38 3.86-3.29 25.96-1.96 31.38-.24 1.1.35 4.28 1.55 4.27 3.03h-31.23c-.53 3.44.84 1.81 2.71 2.29 10.09 2.6 23.8-1.03 31.86 6.78h-30.11c.65 1.62 5.65 1.85 7.4 2.11 6.78 1.02 16.29.84 22.51 3.19 1.81.68 3.99 1.14 3.54 3.77h-36.8l10.61 2.26c6.26.12 23.55.56 28.45 3.96 2.1 1.46-.11 2.62-1.69 2.86-7.92 1.21-18.59-1.2-26.77-1.17l-1.68 2.29c11.82 2.28 24.32 1.29 35.69 5.69.28 1.93-2.58 1.12-3.9 1.13-7.73.09-15.02-2.72-22.85 0l8.64 3.11c3.12.36 6.15.21 9.26.79 1.14.21 5.44 1.31 5.52 2.9h-24.54l15.61 3.42-.04 3.33c-2.04 1.4-7.55-.25-6.66 3.46 13.39 2.3 24.81 3.07 38.15-.33 15.69-4.01 11.44-10.57 16.77-23.78 5.24-13 13.31-22.56 22.99-32.29-4.33-15.72-7.46-33.59-.39-49.09 3.35-7.35 16.56-19.29 24.53-19.29h17.84c.18 0 3.26 1.11 2.78 2.26l-14.48 2.27 27.87 3.43c.45 1.2-3.67 2.26-3.9 2.26h-27.88l-8.36 2.26c13.91.67 29.94.81 43.5 3.98 1.24.29 3.61 0 3.32 1.69l-36.29-.04-15 2.3c14.61 1.39 29.36 2.57 43.89 4.71 1.83.27 10.75 1.08 10.73 2.68-1.34 2.07-2.95 1.6-4.95 1.75-17.48 1.32-36.41-4.9-54.13-1.17-.26 1.98 2.53 1.07 3.89 1.12 12.1.51 24.42 0 36.29 2.8 1.54.36 6.12 1.31 6.65 2.86-9.86 2.94-19.62-.55-29.6-.03l-19.46 2.3 55.08 4.67 10.71 3.28h-70.26c-.19 2.84-.28 1.95 1.68 2.24 14.08 2.11 29.24 2.24 43.48 3.44l16.18 3.39h-54.65l8.5 2.13 38.34 4.69c-3.06 4.67-10.28 1.19-15 1.07-10.63-.28-21.33-.16-31.83 1.2.19 1.65 4.86 1.92 6.27 2.12 6.3.89 15.68-.02 20.49 4.68h-25.65c.3 1.7 5.1 2.95 6.4 3.13 5.77.83 13.88-1.27 18.14 3.66-7.66-.27-19.02 3.54-26.25 2.36-3.44-.56-3.74-9.65-8.3-.64.16 1.93 5.58.81 4.42 3.38-1.49 3.32-9.89-.26-11.14 5.11 5.77.39 11.52.76 17.31 1.14 1.66.11 3.22-.86 2.76 1.69-1.77 3.44-16.7 3.12-21.42 4.32-1.12.29-3.36.32-3.1 1.93 7.4.37 25.21.26 31.24 3.96 1.84 1.13-.12 2.86-.58 2.86h-35.13l13.95 2.26c9.26-.04 18.68-.03 27.86 1.16 1.96.25 11.72 1.27 11.7 2.83-1.34 2.07-2.95 1.6-4.95 1.75-16.96 1.27-32.58-2.3-50.24-.04-1.52.19-3.54.8-1.66 2.25l71.36 3.42-8.37 2.25-44.64-.03-12.77 2.3c22.34.75 45.12.79 66.9 5.7.26 1.98-2.53 1.07-3.89 1.12-15.96.63-32.04-.43-48.01-.05l-16.12 2.3 83.29 3.26 2.58 2.42h-89.22l1.65 2.27 98.71 4.54-1.65 2.27-98.65.09-.08 3.31c31.91 2.13 64.17 1.16 95.91 5.69l-10.55 2.33-79.81-1.8-1.09 3.99 66.34 1.15 31.79 4.54c.26 1.98-2.53 1.07-3.89 1.12-23.09.96-46.12-2.13-69.21-1.19-5.65.23-11.33 2.04-17.23 1.2l13.95 2.25c11.75.12 25.04-.18 36.49 2.59 1.36.33 5.95 1.65 6.44 3.09h-55.76v3.4s76.95 4.55 76.95 4.55c.45 1.2-3.67 2.26-3.9 2.26h-67.47c0 1.93 3.7 2.17 5.01 2.28 16.53 1.36 33.62 1.01 50.18 2.28 1.49.11 6.78.55 7.26 2.25h-50.74l-1.67 3.4h54.09c1.18 0 2.12 3.22 1.67 4.54h-45.73c.92 2.45 5.2 3.02 7.38 3.27 9.01 1.07 19.45-.27 28.73 1.41l1.79 1.56c0 2.91-13.85 1.31-16.7 1.71.32 1.71 8.51 3.39 9.47 3.39h31.78v3.38s-10.03 2.28-10.03 2.28c22.68 3.75 44.75 2.56 66.91-3.39v-594.44h-160.6zm-222.82 245.86c-.87 6.55 9.78 18.26 8.69 26.41-9.49-.38-21.54-10.72-30.61-9.02-3.46.65-22.07 18.12-22.91 16.97.45-13.07 7.02-26.92-1.66-38.6-4.15-5.58-11.34-6.78-14-13.01-.05-5.87 16.85-3.28 23.11-6.03 12.7-5.59 10.52-18.23 17.64-27.42 5.2 5.5 3.66 17.05 10.19 21.38 7.92 5.25 23.47.15 32.75 4.7-3.97 7.58-22.13 16.67-23.19 24.62zm195.28 168c-69.83 41.43-164.16 26.35-214.47-38.34 1.92-.26 3.5.15 5.27.87 18.53 7.57 28.33 15.23 50.09 18.25 37 5.13 107.69-.31 116.26-47.06.71-3.87-1.31-7.19 2.38-10.06 4.67-3.64 27.99-2.11 28.97-5.7 1.13-4.14-5.09-4.06-6.95-7.66-3.98-7.71 1.22-21.62-13.12-20.13 7.04-9.05 7.19-13.48.46-22.58-2.39-3.24-8.07-6.88-8.29-10.98-.24-4.62 12.65-13.49 16.2-17.47 6.83-7.67 14.75-20.89 10.83-31.46-2.89-7.8-6.51-6.58-8.04-19.05-2.15-17.56-2.16-24.59-11.38-40.61-31.55-54.78-97.74-54.95-150.32-34.24-5.25 2.07-15.35 8.58-19.59 9.57-.88.21-3.51.57-3.84-.5 54.96-62.5 152.41-71.52 220.05-24.19 104.29 72.98 93.2 237.43-14.51 301.34zm-36.67-104.22c1.25-1.75 7.39-1.65 9.05.04.56.57 4.75 14.08 4.94 15.44 1.04 7.55-3.04 6.27-8.88 6.14l3.3-4.97c-5.76-4.25-9.73-8.97-8.41-16.64zm84.28-89.56-6.2-20.34c-6.86-8.44-15.37-9.38-24.89-5.06-5.71 2.59-17.32 14.64-19.9 15.04-2.76.43-5.03-1.82-4.61-4.69.66-4.56 19.41-14.83 24.08-16.46 23.62-8.26 34.88 9.53 31.53 31.51zm-22.31 23.85c.26 1.99-3.94 1.26-4.94 1.05-5.23-1.12-12.1-9.21-12.89 1.2h5.01c2.65 6.71-6.57 3.42-9.86 5.58-1.86 1.22-1.2 5.49-3.52 6.88l-6.06-6.37c10.08-11.11 6.51-21.67 2.16-34.44 9.28 9.5 17.92 20.31 30.09 26.11zm-17.85 80.52h-2.21c4.32-19.89-10.68-44.05-32.34-43.12 1.69-3.27 7.39-3.73 10.59-3.44 5.24.47 5.82 4.6 10.58 4.58 2.31-6.66 1.37-9.97-5.02-12.47l1.12-2.24 7.82 4.5c1.71 3.57-.64 6.94-.5 10.62.46 11.71 14.13 16.75 13.37 30.75-.21 3.92-2.62 7.1-3.41 10.81zm14.51-89.62c-5.49-.62-6.35-9.22-10.04-11.9-2.83-2.05-11.52-1.65-6.4-8.24 4.74-6.11 17.57 15.25 16.45 20.13z"/></svg>