<svg viewBox="0 0 580 600" xmlns="http://www.w3.org/2000/svg"><path d="m115.56 0c1.14 2.57 4.84 2.73 7.23 3.13 9.96 1.68 20.82 1.29 30.92 2.33.93 3.84-5.6 1.85-8.21 2.14-1.36.15-2.9 1.13-3.23 1.13h-31.07l38.64 4.43 2.25 1.03-1.1 2.19h-39.79l33.79 5.45-43.59 1.12c.25 1.68 4.66 1.74 6.17 2 9.83 1.67 19.92 2.22 29.8 3.46-.18 1.76-4.68 2.05-6 2.16-9.88.85-20.1-3.19-28.87.56 7.12 1.9 14.63 1.61 21.84 3.23 1.71.38 6.01.83 6.5 2.76-12.66 2.28-25.33-2-38.14-1.07l9.6 2.92 20.91 2.53c.52 3.12-.66 1.81-2.52 2.33-8.64 2.38-17.13.03-25.81-.14-.25 2.86-.14 1.81 1.64 2.14 5.53 1.04 11.34 1.26 16.88 2.23.44 1.16-3.59 2.17-3.81 2.17h-22.35l8.72 4.92-7.62 2.71 8.71 1.11-3.26 6.53 5.44 2.76-8.71 3.8c3.01.38 8.17.16 9.81 3.27l-11.99 1.12c2.2 3.81 7.78 2.5 10.9 4.9-3.35 3.41-10.46.78-13.08 4.91l13.08 2.21c-1.62 3.63-6.71 1.8-9.8 2.18-.37 4.73 9.24 1.11 8.71 6.54l-11.98 1.11c-.75 4.09 7.25 1.26 9.8 3.28l-7.62 4.92c-1.32 2.2 8.6 2.09 4.37 4.37-6.23 3.36-16.45-.47-22.91 1.07 4.74 4.13 12.88 2.42 18.27 4.64 1.6.66 1.61.32 1.35 2.47h-25.07l18.53 6.55h-33.79c.53 2 3.44 2.72 5.17 3.01 7.04 1.2 16.47.47 23.74 1.35 2 .24 1.75-.33 1.61 2.19h-32.7c-.23 2.87-.15 1.81 1.64 2.15 7.3 1.37 16.14 1.29 23.09 3.16 1.89.51 3.02-.78 2.52 2.33h-32.7c-.25 1.59 1.91 1.53 3.05 1.85 1.32.37 22.32 3.92 19.84 5.79-1.77.8-4.06-1.08-4.91-1.08h-19.08c-.52 3.2.75 1.77 2.54 2.32 4.13 1.25 8.5 2.26 12.72 3.15-.34 1.88-7.23 3.26-8.17 3.26h-16.35c-.23 0-1.98 1.84-1.63 2.17l8.72 2.21-6.53 5.44c24.53-.57 43.13-16.69 56.04-36.13 14.09-21.22 21.78-45.42 11.59-70.27.33-1.6 10.72-2.88 13.62-3.86 12.35-4.17 36.07-25.5 43.05-36.6 3.57-5.68 5.91-11.99 8.69-18.05h251.82c9.11 3.19 19.26 2.16 28.76 3.4 1.19.16 5.1.42 5.03 2.06h-35.97v2.17c1.37-.52 3.21 1.1 3.82 1.1h24.53c.14 2.56.37 1.93-1.62 2.19-9.7 1.24-25.68.22-36.04.04-4.11-.07-10.51-3.33-13.57 1.03 23.34 4.52 47.31 2.7 70.85 5.49.08.7-1.45 2.17-1.64 2.17h-33.25c-.26 1.51 1.93 1.66 3.01 1.89 7.77 1.69 16.69 1.37 24.64 2.63 1.46.23 5.93.38 6.15 2.03h-57.78l1.62 2.19 37.07 1.1 17.99 2.16-44.19-.03-13.58 2.22 73.03 5.48c.16 2.56.36 1.93-1.61 2.18-7.08.91-19.8.34-27.32.04-10.56-.42-24.67-3.52-34.86-2.23-1.51.19-3.17.6-1.61 2.17l66.49 6.58c.25 1.91-2.47 1.03-3.8 1.08-7.37.3-15.56.24-22.96.05-8.96-.23-17.86-1.84-27.24-1.19-1.66.11-6.48.24-7.04 2.22l67.6 4.91 1.07 1.64c-2.46 3.3-44.81-1.62-52.73-.94-1.42.12-6.69.6-7.22 2.04l55.61 4.91 1.07 1.65c-16.94 2.85-33.71-.66-50.7.01-1.32.05-4.06-.82-3.8 1.08 19.11 5.44 39.35 3.49 58.86 6.58.26 1.9-2.47 1.03-3.8 1.08-12.8.51-25.1-2.67-37.61.01 0 1.74 3.73 1.75 5.07 2 11.99 2.23 25.28 2.73 37.43 4.55.25 1.91-2.47 1.03-3.8 1.08-9.79.41-19.17-1.33-28.4-1.14-1.74.04-7.22.47-8.13 2.22 13.06 2.44 26.52 2.65 39.65 4.52 1.39.2 5.95.44 6.13 2.05h-35.97c-.41 3.26 3.89 3.71 6.29 4.07 8.01 1.22 16.28-.26 24.77 1.4 1.59.31 3.39-.02 3.83 2.17h-27.8c-.22 0-1.98 1.83-1.63 2.17l31.61 4.39c-2.54 5.91-18.05.53-19.63 2.18l.64 3.37 12.44 3.18h-25.07c-.38 3.01 4.18 4.5 6.48 4.97 6.88 1.43 14-.72 20.77 2.69 1.59 1.59-.11 1.97-1.61 2.17-6.25.84-12.87-1.64-19.66-1.09-1.27.1-4.88.33-4.89 2.17l34.88 5.47h-26.16c8.14 6.68 21.85 6.33 31.98 5.61l.17 4.22h-38.7l8.45 3.01c9.67 1.03 19.41 1.9 29.14 2.55 4.27.28 7.73-2.69 10.35 1.55.05 3.74-17.27.57-20.1.5-9.26-.21-18.58.24-27.84.06l43.6 8.73h-43.61c.87 1.58 5.62 2.63 7.36 3 15.7 3.35 32.21 4.82 48.23 4.65 1.77 1.35-.02 1.98-1.61 2.18-6.13.78-11.83-.8-17.47-1.08-15.8-.79-31.64-1.07-47.41-2.18.6 2.11 3.36 2.58 5.19 2.98 11.15 2.5 24.13 2.42 35.56 3.69l15.94 3.14h-41.43l1.63 2.18 39.8 5.47h-40.34c2.74 3.38 9.55 3.47 13.81 4.19 10.78 1.81 22.19 3.12 33.06 3.47l-9.21 2.21c-11.97-.68-26.32-3.05-38.25-2.27-1.9.12-7.14.41-8.13 2.22 21 2.58 41.96 7.19 63.22 6.58l-6.13 2.04-61.45-2.04c-.93 2.77 3.28 2.92 5.01 3.15 19.93 2.59 40.44 2.88 60.38 5.6l-13.63 2.27c-11.14-1.49-23.31-2.18-34.33-.08-.17 1.63 2.78 1.9 3.9 2.07 14.14 2.16 28.84 1.96 42.96 4.48l-11.4 2.22c-6.92.95-14.21-.99-20.71-1.18-1.61-.05-19.11-.64-16.94 2.22l37.06 6.57h-25.62c-.18 0-3.19 1.07-2.72 2.17 13.47 3.54 27.53 3.87 41.41 4.39l-1.61 2.18-31.1 1.09v3.25c2.43-.6 6.73 2.2 8.18 2.2h20.17c.19 1.61-2.84 1.97-3.91 2.08-7.29.8-14.96-.19-22.25 1.2 2.7 5 10.52 3.83 15.5 4.67 1.15.2 4.33.28 4.12 1.86l-27.24 2.21c-.32 2.82 0 1.73 1.59 2.2 7.15 2.1 14.09 1.97 21.3 3.26.07 1.01-5.67 2.17-5.99 2.17h-17.44c-.22 0-1.98 1.83-1.63 2.17l17.44 4.37-27.25 1.11v3.27c5.16.94 10.54.64 15.72 1.19 1.06.11 4.1.49 3.91 2.09h-29.43l3.27 2.74 18.54 3.82h-22.89c-1.11 7.34 8.67 4.28 10.98 5.93 1.72 1.23-.12 7 5.32 6.16l.06 3.2h-7.63c-.57 5.53 7.34.97 6.53 5.46h-7.08s-2.74 2.73-2.74 2.73l9.82 1.66c.46 2.36-10.56 1.24-7.62 4.34 2.35 1.81 9.57-.65 8.71 3.29l-17.43 1.64c3.41 4.55 8.58 3.33 13.36 4.1.99.16 3.27.46 2.99 1.91h-22.89v3.26s15.26 3.3 15.26 3.3h-20.71l1.89 3.02 21 4.63h-32.16c-.18 0-3.19 1.07-2.72 2.17 8.93 2.86 18.48 2.33 27.66 3.42 1.16.14 5.12.43 5.03 2.06h-15.81c-.38 0-1.61 1.43-2.72 1.11 2.78 5.24 10.32 3.56 15.25 5.46 0 2.68-3.2-.01-3.81-.01h-27.25c-.22 0-4.25 1.02-3.81 2.17l29.43 6.57h-35.97c1.69 3.39 7.06 3.62 10.51 4.22 7.66 1.32 15.53 1.32 23.29 1.25.08.7-1.45 2.17-1.63 2.17h-21.26l2.19 2.67 16.34 3.87-20.72 1.11v3.27c4.44 1.04 9.08.68 13.54 1.19 1.07.12 4.09.48 3.91 2.09h-33.25l-1.1 2.19 21.27 4.37h-23.98c5.12 6.43 14.85 2.98 21.79 5.47l-8.18 2.16c-1.32.09-19.77-.65-16.88 2.18 4.06 1.31 8.33.7 12.41 1.23 1.19.15 5.1.42 5.03 2.06h-15.81c-.47 0-2.39 1.75-.56 2.75l5.47.54c-1.69 3.99-19.88 8.12-22.13 6.66-3.28-2.13 2.04-20.1-5.11-23.62-4.93-2.43-6.1 1.76-5.46 6.03h-10.91s0 3.26 0 3.26c3.19.42 6.99.66 10.06 1.42 1.1.27 3.28.31 3.02 1.86-2.04 0-15.32-.49-15.27 1.66l2.79 2.67 12.48 3.33h-27.25l3.01 2.99 22.06 4.66h-22.89v3.27s20.71 2.2 20.71 2.2c.32 1.1-4.63 2.17-4.9 2.17h-20.71l-1.1 2.19 23.44 4.35c-11.04 2.74-22.6.3-33.79.02v3.25c4.18.43 8.39 1.77 12.56 2.19 4.57.46 11.92-1.8 14.7 2.2h-22.89l2.17 6.55c-1.55.67-3.24-1.09-3.81-1.09h-23.44l10.61 3.03 16.65 2.43h-16.35l9.81 5.45c-22.72 8.22-43.86-7.52-66.5-3.25l1.09 1.62 11.99 3.82h-17.99c-.53 0-2.38 1.9-.56 2.75l10.92 1.63c-7.84 8.8-25.86 11.86-32.55.72 3.69-5.8 8.22-11.05 7.53-18.58-.19-.78-7.48-2.9-8.23-2.9h-17.44l-1.1 2.19c.84 1.18 12.75 1.82 16.02 2.54 1.27.28 4.33.14 4.16 1.82l-54.5-2.16c.44 1.76 4.55 2.89 6.07 3.19 14.03 2.79 30.83.9 45.16 4.46h-50.14s7.39 2.95 7.39 2.95l25.3 4.69-11.49 1.13-19.02-1.13c.53 1.43 4.88 2.57 6.31 2.94 3.65.95 7.47 1.12 11.14 1.96 1.22.28 3.52 0 3.26 1.64h-28.34c-.24 1.6 1.91 1.52 3.05 1.84 7.49 2.15 16.43 1.42 24.21 3.62 4.13 3.37-10.5 1.75-10.91 2.18-.95 3.91 1.32 2.25 2.18 4.35-2.45-.29-7.56.34-8.71 2.76s2.85 1.61 3.65 1.77c2.83.56 5.19.59 7.78.97 1.9.28 1.83-.58 1.63 2.15l-43.6-3.26 3.28 1.6 27.24 6.02-39.24-2.16c1.64 2.47 6.82 3.41 9.59 4.03 4.01.9 8.05 1.76 12.21 1.43-.61 1.48-5.62 1.85-7.21 2.04-9.06 1.12-26.92 3.03-34.26-2.55-5.12-3.89-9.73-24.13-13.19-31.57-6.06-13.05-16.42-26.79-28.26-35.03-3.01-2.09-16.91-8.37-17.22-10.05 11.82-20.53 12.41-41.9-2.08-61.27-8.28-11.07-26.59-20.74-40.11-14.54.58 11.08 16.68 8.45 24.59 8.8-1.44 4.4-14.19 1.04-15.27 2.18v3.27s18.54 3.28 18.54 3.28h-21.8c.76 2.93 9.21 5.46 11.45 5.46h19.62c.19 0 1.72 1.48 1.64 2.18h-27.25v1.62c.47.7 1.19 1.01 1.87 1.42.88.52 9.74 2.42 10.66 2.42h15.81c-.14 1.56-4.85 1.91-6.13 2.05-5.17.58-11.22-.78-15.67 2.87 2.5.86 5.45 1.56 8.12 1.67 5.92.25 12.58-2.62 16.94.52.95 4.52-14.33 1.84-17.44 3.82 2.38 4.93 8.66 2.79 13.83 4.21 1.86.51 3.04-.79 2.52 2.33l-29.42 2.2c.34 1.65 4.75 3.03 6.05 3.2 6.46.82 14.51.34 21.19 1.17l-11.44 3.27h-22.35v2.17c1.37-.52 3.21 1.1 3.82 1.1h23.98c.22 0 4.25 1.02 3.81 2.17-10.91 2.39-22.26.24-33.29 1.05-1.95.14-3.53-.3-4.84 1.69-.03 3.53 29.93 2.37 33.77 3.83l-8.17 2.17h-26.71c-.49 3.11.63 1.83 2.52 2.34 3.65.98 9.41 1.78 13.24 2.08 5.82.45 15.06-2.06 19.12 2.14h-15.26c4.02 4.73 12.57 4.5 18.52 6.03 1.25.32 3.54-.07 3.28 1.62h-20.17c-.32 0-6.06 1.16-5.99 2.17 12.21 2.27 25.4 1.12 37.47 2.33 1.63.16 7.16.33 6.13 3.14h-27.25l8.45 3c8.33 1 16.29 1.63 24.63.42l1.33.88.48 3.33h-32.16c-.18 0-3.19 1.07-2.72 2.17l40.32 4.39-10.35 3.27h-19.62c-.18 0-3.19 1.07-2.72 2.17 12.51 2.69 26.06 3.8 38.64 1.16l.05 4.31h-22.35c.6 2.55 7.34 5.46 9.27 5.46h17.44c.58 0 2.25 2.39 1.63 3.26-3.84 2.33-7.23-.12-10.35 0-6.29.24-13.24.64-19.6 1.11-1.46.11-6.6.54-7.09 2.16l39.23 4.39-10.36 2.16-16.21.15-8.3 2.58c9.56 4.28 20.4 2.08 30.76 4.14 1.92.38 6.62.95 7.38 2.98h-44.7c.43 1.77 4.73 2.66 6.27 3 10.79 2.38 23.31 1.13 34.49 2.58 1.18.15 5.1.42 5.03 2.05-20.35.14-40.86.87-61.04 3.3l1.87 1.94 62.99 1.33c3.09.56 3.7 2.49 1.1 4.36h-71.4v4.36s67.58 3.3 67.58 3.3l-13.63 2.16-33.24 3.3c-.43.43.96 1.69 1.87 1.94 2.17.6 11.89 1.21 14.98 1.37 11.03.56 22.26-.51 33.3-.04v3.27s-86.12 4.38-86.12 4.38l9.22 2.22c24.68-.12 49.07.92 73.65.48 1.7.94.42 2.2-.51 2.8-4.41 2.85-8.18-.15-12.04-.05-1.87.05-3.62 1.04-5.47 1.09-13.23.32-33.27-.69-45.72 2.24-2.77.65-3.08 1.39-2.78 4.32h64.32l-1.62 2.19-85.59 3.29c-.1 1.61 3.91 1.93 5.03 2.04 24.27 2.51 50.93-1.33 74.05 1.17 3.94.43 4.5 1.54 1.95 4.47l-85.39 2.15 11.46 3.25 63.75 2.21c.26 1.91-2.47 1.03-3.8 1.08-15.54.64-31.44.24-46.93 1.05-8.18.42-24.26.57-31.34 2.46-.91.24-2.29 1.52-1.86 1.94 27.08 2.8 54.49 3.24 81.75 3.3 0 1.84-3.63 2.08-4.89 2.18-20.84 1.66-42.15-.15-62.68 4.37-.47 1.1 2.54 2.17 2.72 2.17h52.87c.28 2.23.21 1.79-1.36 2.46-9.11 3.86-17.52.48-26.48.77-1.55.05-14.43 1.47-11.4 4.41 5.15 1.25 10.47.7 15.67 1.23 1.24.13 5.99.5 6.13 2.04-21.51-.02-43.14-.34-64.31 3.3l1.61 2.17 39.81 2.19c-.99 2.42-5.98 2.88-8.31 3.13-18.1 1.89-34.25-1.53-51.64-5.32v-594.16h115.56zm151.52 34.96c-11.69-2.6-10.42 15.09-13.08 22.92 6.02-.13 12.15 2.87 17.45-1.66-3.75-8.12-14.27-12.89-4.37-21.26zm-61.05 33.83c-.82-10.23-17.02-6.64-16.88-18.54-6.43 6.97.2 16.92.55 25.11zm134.09-14.17c-11.5-2.1-8.44 8.19-14.12 13.72-.48 1.99 7.56 6.9 10.08 5.77 7.19-3.59-.49-10.4-.25-14.64.19-3.42 3.57-2.49 4.3-4.85zm84.79 177.43c0-88.82-71.87-160.82-160.52-160.82s-160.52 72-160.52 160.82 71.87 160.82 160.52 160.82 160.52-72 160.52-160.82zm-274.47-133.74c-4.07-1.58-8.56-.54-12.62-2.12-3.48-1.35-4.42-5.22-8.09-5.54.46 7.83 6.18 12.82 8.73 19.65l11.98-12zm250.73-.03c-1.03-2.47-5-3.58-7.3-2.48l-12.3 11.74 6.69 8.01c5.24 3.1 5.79-11.61 6.92-13.98.84-1.77 4.06-3.08 5.99-3.29zm-289.98 55.72c-9.12.02-13.48 5.45-20.7-3.28-1.38 10.15 9.21 12.45 14.71 18.55l5.99-15.26zm330.31 8.75c-6.74-4.2-14.1-1.63-21.24.01-1.03.24-2.29-.65-1.62 1.58.26.87 3.7 7.13 4.3 7.71 5.52 5.38 7.92-5.8 12.06-7.66 2.34-1.05 5.96.46 6.51-1.65zm10.57 59.31c-4.75-3.95-18.95-3.3-19.38 3.45-.17 2.62.88 8.84 4.53 7.78 4.28-1.24 9.96-9.92 17.37-7.23.19-.13-2.11-3.66-2.52-4.01zm-357.24 17.13c1.47-25.15-4.7-8.69-13.89-7.84-3.19.29-4.33-1.72-6.81-3.08 1.99 11.33 12.83 7.3 20.69 10.92zm12 55.69c-.5-2.85-2.54-13.39-5.04-14.12-5.02-1.46-6.64 13.06-14.59 9.76l.14 3.69c1.4 4.22 15.45-.86 19.49.67zm321.58-6.53-2.15-.02c-.78 4.16-6.03 9.55-1.71 13.23 2.15 1.83 5.32-.82 7.78-1.13s9.98 1.32 10.27-.66c.95-6.56-13.51-6.46-14.19-11.43zm-298.82 46.01c-4.77-2.75-6.57 10.54-8.84 12.68-.98.92-7.37 1.19-5.18 3.53 4.57 4.89 16.91-2.96 21.8-4.36.65-.69-7.16-11.49-7.77-11.85zm265.03 12.95c-1.19-1.12-9.84 6.75-8.25 9.83s10.03 3.51 13.03 5.59c2 1.39 2.1 4.59 5.03 4.23 2.41-9.87-8.63-11.73-9.82-19.66zm-195.12 43.7-17.44-7.65c-.62 7.58 2.75 16.16-5.44 20.2 2.35 2.75 6.24 3.28 9.62 2.55 2.02-8.61 6.93-10.4 13.25-15.1zm146.09 17.46c3.09-1.94 4.89-6.65 4.16-10.12-.15-.71-5.83-9.81-6.34-10.13-2.66-1.7-7.02 1.13-9.32 2.76-2.33 8.84 12.59 6.81 11.49 17.49zm-67.61-5.45c-5.29.27-18.38-2.55-15.89 6.59 1.31 4.8 10.54 7.55 7.18 16.34 9.23-.89 4.4-11.03 5.67-16.7.58-2.57 3.16-3.61 3.04-6.23zm173.34-403.02c17 13.28 32.76 37.26 40.08 57.59 3.05 8.47 3.89 17.3 7.51 25.49 8.36-1.98 22.27-3.74 28.76-9.33 2.14-1.84 3.67-5.51 5.46-6.54 2.54-1.47 7.48-.58 8.68-3.85l-5.44-2.18c6.23-1.65 13.37-4.59 17.43-9.83-4.11-.22-8.33.33-12.44-.11-1.05-.11-4.1-.48-3.9-2.07l22.88-3.3-7.62-2.18c3.03-4.46 10.38-2.78 15.25-4.37l-20.02-2.31c-1.32-.64-2.47-1.62-.7-2.61 2.39-1.33 10.92-.32 14.6-.66 2.28-.22 8.31-1.01 9.4-3.14h-17.44c-.5-3.13.66-1.81 2.52-2.33 5.11-1.42 9.29-.56 14.24-1.08 1.12-.12 5.13-.44 5.03-2.04l-23.31-1.23-10.48-3.14 28.88-1.11 9.27-2.17c-14.23.37-28.48-1.16-42.5-3.3-.44-1.15 3.59-2.17 3.81-2.17h30.52l8.17-2.17-48.49-2.21-11.46-3.26h57.23c.18 0 3.19-1.07 2.72-2.17-6.09-.36-13.08 1.24-18.53-2.2h-110.1zm-119.94 281.79 2.13 7.56c-12.57 1.33-18.41 12.98-27.16 20.29-19.61 16.39-40.31 17.92-62.88 6.18-14.93-7.77-30.34-23.64-48.33-20.95l5.99-10.91c3.55 9.76 9.56 6.73 17.44 7.65 26.76 3.11 53.6 6.05 80.67 4.35 7.99-.5 19.85-1.46 25.67-7.05 1.54-1.49 4.74-8.55 6.48-7.13zm-28.33 18.56c-24.07 4.92-49.14 3.15-73.03-2.17 17.21 16.67 47.93 25.41 68.11 8.7.96-.8 6.12-5.35 4.92-6.53zm-65.4-87.37c-4.52 8.67-14.57-3.18-19.7.47-2.63 1.87 1.64 10.7-5.86 11.6-2.65.32-13.97.33-15.88-.6-2.9-1.41-4.12-9.68-8.19-10.43-7.35-1.35-16.93 11.33-25.59 2.77 15.19-.71 24.27-15.6 39.79-15.92 14.18-.29 22.13 10.97 35.42 12.11zm-29.72 1.9-2.44.95c-3.22.45-9.31-12.22-11.35-5.43-2.45 8.17 12.49 13.5 19.05 5.92 3.41-3.95 3.77-9.74-2.9-7.05l-2.35 5.61zm94.05.27c-.46-2.1 1.06-2.61 2.28-3.71 11.02-10.01 16.43-17.22 32.36-12.97 11.75 3.14 17.15 9.78 27.49 15.06 1.17 5.21-10.2-.12-11.72-.33-7.03-.97-6.13 2.93-7.3 8.56l-21.33.51c-2.83-1.69-2.35-12.88-7.21-14.61-5.34 1.54-8.21 7.42-14.56 7.49zm26.14-10.91c-4.42-2.95-9.29 8.22.1 13.55 11.5 6.53 19.07-8.51 13.53-10.27-4.74-1.5-3.28 9.23-10.32 6-4.74-2.18-2.23-8.56-3.31-9.28zm-103.54 43.68c.12 6.78 1.13 16.07-6.3 19.37-11.11 4.94-35.94-8.25-40.11 8.95-.98 4.02-1.62 12.64 3.88 13.18-3.24-26.97 19.49-12.13 33.19-14.27 4.9-.77 6.96-4.55 11.02-6.54 3.97-.39 5.38 5.98 10.3 4.42l-.73-3.3c-4.74.39-7.29-5.03-6.9-9.15.56-5.92 8.51-8.98 11.99-12.65-5.84.31-11.09 4.21-16.34-.01zm-24.65-79.61c-12.49-1.4-32.23.88-37.49 14.08 9-2.22 17.14-8.44 26.7-8.5 13.05-.08 31.96 11.41 43.63 3.06 2.37-1.7 3.04-3.66 2.69-6.57-11.92 7.6-23.86-.76-35.53-2.07zm135.17 99.4c-7.71-.85-15.7 3.01-23.03-.97-4.92-2.67-2.83-6.59-3.6-10.59-.93-4.89-7.66-6.43-11.96-6.03 3.7 4.46 9.01 8.62 5.97 15.26-1.24 2.72-8.82 5.47-4.32 8.75 3.26.85 5.53-3.94 7.06-6.06l1.61-.54c4.39 2.3 8.31 5.53 13.38 6.33 6.12.97 21.52-2.41 23.78 4.57l1.56 13.16c4.86-12.61 5.47-22.15-10.46-23.89zm18.45-99.32c-15.71-7.92-38.84 7.35-55.95 5.81 19.9 13.12 41.63-7.55 62.14.54 1.65-1.57-5.14-5.82-6.19-6.35zm-74.16 159.49c-7.33-1.66-17.45 1.08-25.38-2.41l3.22 7.59-6.48 3.87 38.68.55.54-2.17c-4.57-.9-6.07-6.42-10.58-7.44zm70.54-135.1c-7.75-10.29-25.14-10.89-34.9-3.31-1.44 1.12-10.24 11.44-4.9 9.29 2.58-1.04 6.6-4.8 10.07-6.3 12.76-5.52 24.85-5.52 29.75 9.59 5.94-.44 2.04-6.54-.02-9.27zm-164.59 8.18c9.9-7.83 21.03-8.01 32.69-4.38-6.82-11.17-30.54-9.9-32.69 4.38zm87.2 75.35c7.94-.94 14.58-6.75 22.89-5.46-1.29-13.25-20.12-2.21-22.89 5.46zm-45.97-129.6c7.39-2.34 6.56-12.11 3.45-10.76-1.73.75-4.82 3.8-7.98 5.14-2.6 1.1-5.58 1.69-8.38 1.99 3.08 4.24 8.11 5.14 12.91 3.63zm13.25 118.08c-.96.63-1.22 2.49-2.15 3.35l19.59 7.09c.28-5.44-15.05-12.01-17.45-10.44zm35.71-51.51c-3.88 6.04-2.52 16.17 3.53 20.44l-1.09-21.84c-2.53-.54-1.75.3-2.45 1.39zm-20.43 1.88c.16 4.95.54 10.7 1.4 15.55.35 1.99.23 4.93 2.94 4.11 2.11-7.68 3.51-14.82-4.34-19.66zm-102.47 66.63c-2.3 3.52 9.15 17.17 10.89 15.28-.23-2.4-7.55-18.81-10.89-15.28zm219.13-2.74c-1.34 5.91-2.54 12-3.28 18.02 2.9.6 1.87-.74 2.71-2.15 3.47-5.89 4.82-10.78 2.73-17.5-2.88-.27-1.77-.06-2.15 1.64zm-148.29-51.88-16.33 8.72c8 3.25 15.58.29 16.33-8.72zm95.95 0c2.6 7.61 12.36 12.84 17.43 4.38-6.19.51-12.16-1.24-17.43-4.38zm-21.81-90.64c3.5 5.93 12.88 9.93 15.25 1.09-5.75 2.69-9.59-1.1-15.25-1.09z"/></svg>