<svg width="16" height="16" viewBox="0 0 12 12" xmlns="http://www.w3.org/2000/svg"><path style="fill:none;stroke:#000;stroke-width:.15;stroke-linecap:butt;stroke-linejoin:bevel;stroke-miterlimit:5.5;stroke-dasharray:none;stroke-opacity:1" d="M8.0114126 6.4913739c.000003-1.1085492-.898442-2.0069913-2.006992-2.0069911-1.10855-2e-7-2.006995.8984419-2.006992 2.0069911.000001 1.1085489.898442 2.0069917 2.006992 2.0069912 1.10855 5e-7 2.006991-.8984423 2.006992-2.0069912zM1.6787134 8.4999997 6.0044201.99904383 10.330127 8.5Zm6.3332317-.0005671 1e-7-4.0150498-4.01505-1e-7-1e-7 4.0150499M3.5 10.330127c2.3917186 1.380859 5.4492676.561592 6.830127-1.830127C11.710986 6.1082814 10.891719 3.0507326 8.5 1.669873c-.3937724-.2273446-.8055931-.3950519-1.2250078-.5059231-.4194147-.1108711-.8464235-.16490607-1.2705721-.16490607-.8639611 0-1.7160553.22419557-2.4679305.64891297C2.7846143 2.0726741 2.1329581 2.6979131 1.669873 3.5.28901359 5.8917186 1.1082814 8.9492676 3.5 10.330127Z"/></svg>