<svg id="Graphic_Elements" data-name="Graphic Elements" xmlns="http://www.w3.org/2000/svg" viewBox="0 0 1200 1200"><metadata><?xpacket begin="﻿" id="W5M0MpCehiHzreSzNTczkc9d"?>
<x:xmpmeta xmlns:x="adobe:ns:meta/" x:xmptk="Adobe XMP Core 6.0-c002 79.164488, 2020/07/10-22:06:53        ">
   <rdf:RDF xmlns:rdf="http://www.w3.org/1999/02/22-rdf-syntax-ns#">
      <rdf:Description rdf:about=""
            xmlns:xmp="http://ns.adobe.com/xap/1.0/"
            xmlns:xmpMM="http://ns.adobe.com/xap/1.0/mm/"
            xmlns:stEvt="http://ns.adobe.com/xap/1.0/sType/ResourceEvent#">
         <xmp:Label>Approved</xmp:Label>
         <xmp:MetadataDate>2022-04-29T08:40+07:00</xmp:MetadataDate>
         <xmpMM:InstanceID>xmp.iid:2882f126-5a7c-4d6a-a757-ad7d95dc293e</xmpMM:InstanceID>
         <xmpMM:DocumentID>xmp.did:2882f126-5a7c-4d6a-a757-ad7d95dc293e</xmpMM:DocumentID>
         <xmpMM:OriginalDocumentID>xmp.did:2882f126-5a7c-4d6a-a757-ad7d95dc293e</xmpMM:OriginalDocumentID>
         <xmpMM:History>
            <rdf:Seq>
               <rdf:li>
                  <rdf:Description>
                     <stEvt:action>saved</stEvt:action>
                     <stEvt:instanceID>xmp.iid:2882f126-5a7c-4d6a-a757-ad7d95dc293e</stEvt:instanceID>
                     <stEvt:when>2022-04-29T08:40+07:00</stEvt:when>
                     <stEvt:softwareAgent>Adobe Bridge 2021 (Macintosh)</stEvt:softwareAgent>
                     <stEvt:changed>/metadata</stEvt:changed>
                  </rdf:Description>
               </rdf:li>
            </rdf:Seq>
         </xmpMM:History>
      </rdf:Description>
   </rdf:RDF>
</x:xmpmeta>
                                                                                                    
                                                                                                    
                                                                                                    
                                                                                                    
                                                                                                    
                                                                                                    
                                                                                                    
                                                                                                    
                                                                                                    
                                                                                                    
                                                                                                    
                                                                                                    
                                                                                                    
                                                                                                    
                                                                                                    
                                                                                                    
                                                                                                    
                                                                                                    
                                                                                                    
                                                                                                    
                           
<?xpacket end="w"?></metadata>
<g id="Graphic_Elements-2" data-name="Graphic Elements"><path d="M1117.72,684.63c-4-9.25-9.89-22.42-15.75-39.17a542.35,542.35,0,0,1-15.75-54.92c-4.16-17.92-6.62-33.43-9-46.55s-4.68-23.83-5.91-31.91-1.41-13.52-.76-16.74,2.17-4.16,4.21-2.29,4.69,6.68,7.67,11.31,6.33,9.07,8.61,11.06,3.63,1.46,6.91-.76,8.61-6.21,10.25-9.66-.3-6.44-2.29-9.9a68.64,68.64,0,0,1-6.2-14.46,182.17,182.17,0,0,1-6.44-29.68c-1.7-12.65-2.7-27.81-3.28-45.38s-.76-37.53.06-55.91,2.63-35.25,4.86-55.63,4.86-44.32,6-64.28a384.38,384.38,0,0,0-.41-52.88c-1.23-16.92-3.4-34.72-7.26-51s-9.49-31.21-17.33-43.15-17.92-21-27.17-26.29-17.68-6.73-28.63-6.33a116.27,116.27,0,0,0-35.78,7.09C973,61.48,964,67.92,953.14,76.35S929.77,95.15,917.65,105s-23.83,19.32-32.84,29a139.32,139.32,0,0,0-18.5,25.47v.06c-3.22,5.74-3.4,7-2.58,9.84s2.63,7.08,3.63,11.88a74.6,74.6,0,0,1,1.23,13.59c.06,3.51.06,5.33,1.4,6.67s4,2.17,7.67,3.63,8.49,3.63,10.9,3.63,2.4-2.11,1.58-5.91a84.88,84.88,0,0,0-4.63-14.35c-2.17-5.15-4.8-10-5.21-12.23s1.4-2.11,3.28-1.06,3.86,3,6.44,6.68A67.94,67.94,0,0,1,897.28,195c1.52,4.1,1.52,7.09,1.46,11.77s-.23,11.13.35,15,1.88,5.21,3.69,4.86,4.1-2.28,5.86-7.08,2.93-12.42,3.57-20.14a117,117,0,0,0,.06-22.14A94.09,94.09,0,0,0,909.11,163c-.76-3-.59-4,.64-2.81a38.48,38.48,0,0,1,5.39,7.67,34.86,34.86,0,0,1,4.21,11.77,132.34,132.34,0,0,1,2.17,20.14c.29,6.91-.06,13-1.46,17.8a32.75,32.75,0,0,1-6,11.06c-2.1,2.81-3.92,5-3.45,5.8s3.28.35,6.5-1.4,6.85-4.69,11.24-11.71,9.49-18.1,13.06-26.59,5.5-14.46,6.32-19.55.53-9.43.76-12.06,1.11-3.63,3-3.28,4.92,1.93,8.6,5.09,8.2,7.79,11.25,10.42,4.68,3.28,6.85,1.06,4.8-7.32,7.61-12.53,5.79-10.48,8.25-17.51a126.26,126.26,0,0,0,5.68-25.76c1.23-10,1.7-21.2.88-28s-3-9.36-3-11.24a2.19,2.19,0,0,1,3.45-2c1.58,1.17,2.75,4.8,4,9.43a89,89,0,0,1,3,16.69c.52,6.44.17,13.7.17,19.2s.3,9.31,1.47,10.72,3.1.4,5.91-2.23a63.67,63.67,0,0,0,8.9-10.71,38.81,38.81,0,0,0,5-11.36,100.5,100.5,0,0,0,3-14.17c.59-4.63.59-8.61,1.58-10.89s3-3,4.39-2.05,2.23,3.34,2.4,6.32a45.34,45.34,0,0,1-1.34,11.07,102.57,102.57,0,0,1-4.22,14.87c-1.75,4.45-3.69,7.55-4,9.54s1,2.81,2.75,2.58,3.93-1.58,6.21-4,4.8-5.86,7.44-9.25,5.44-6.68,7.61-7.91,3.63-.41,5.44,3.16,3.93,9.84,5.92,19.33a178.89,178.89,0,0,1,3.86,33.9,134.57,134.57,0,0,1-3,29.1c-1.53,6.67-2.81,9.31-4,11.47s-2.1,3.81-2.69,15.52-.76,33.49-1.76,52.22-2.81,34.37-5.85,47a152,152,0,0,1-10.83,29.51c-3.46,7.32-6.09,12.41-7.91,15.57s-2.81,4.28-2.63,11.71,1.46,21.14,3.22,46.61,3.86,62.76,6.09,93.27,4.57,54.28,8.43,76.47,9.31,42.85,15.16,58.25,12.12,25.65,19.79,35.07a157.66,157.66,0,0,0,23,22.84c6.27,4.86,9.72,6,12.3,4.8s4.22-4.86,4-9.31S1121.7,693.88,1117.72,684.63Z"/><path d="M779.3,122.67c1.17,2-.88,2-4.74,1.75A118,118,0,0,1,756,121.5c-9-2-21.2-5.57-36-8.55s-32.2-5.39-56.79-7.2a776.17,776.17,0,0,0-89.47-1.53c-33.08,1.47-67.39,5.57-102.11,11s-69.85,12.18-101.94,19-61.12,13.53-84.37,19-40.75,9.55-53.92,14.7-22,11.3-26.41,15-4.21,5-2.69,4.8,4.45-1.93,10.42-4.63,15-6.44,39.41-13.41,64.28-17.27,102.81-25.52S430.52,129.52,469,123.84,547.21,113,582.1,111.31a579.68,579.68,0,0,1,91.23,2.81c26.23,2.81,48.71,6.73,62.47,9.48s18.91,4.22,21.9,5.68,3.92,3,3.27,4.28-2.92,2.34-6.08,3.33a65.66,65.66,0,0,1-11.77,2.46,71.83,71.83,0,0,1-13.24.41c-4-.29-7.2-1-8.6-.46s-1.06,2.4.41,4,4,2.81,5.33,4.51a4.86,4.86,0,0,1,.64,5.15c-.76,1.4-2.28,2.16-6.27,2.22a123.09,123.09,0,0,1-15.22-1.11c-4.92-.59-8.37-1.29-11.83-3s-7-4.5-10-5.15-5.56.88-6.44,4.57-.06,9.43.94,13.76,2.11,7.26,1.75,9-2.28,2.41-4.5,3.87-4.81,3.69-9,8.2-10,11.41-13.94,16.62-6.2,8.85-5.74,10.95,3.75,2.7,6.45,2.11,5-2.34,7.14-2.87a5.11,5.11,0,0,1,5.38,1.58c1.12,1.47,1.12,3.69.65,6.27A47.18,47.18,0,0,1,664,229.7c-1.82,4.15-4.45,9.54-6.09,14.81s-2.34,10.42-3.57,16.1a128,128,0,0,1-4.8,16.4,35.12,35.12,0,0,1-5.8,10.59,21.65,21.65,0,0,1-7.55,5.92c-2.4,1-4.22.64-5.8.93s-3,1.17-3,2.58,1.41,3.28,3.69,4.39,5.39,1.46,9.14,1.05A35.72,35.72,0,0,0,652.13,299a33.07,33.07,0,0,0,10.42-8.61,62.67,62.67,0,0,0,9.31-14.57,45.34,45.34,0,0,0,3.87-16.11c.23-5.15-.65-9.71-.71-12.88s.59-4.8,1.94-6,3.45-2.11,4.68-.93,1.64,4.27,1.64,9.6-.41,12.82-.06,16.51,1.35,3.63,4.51.23a166.74,166.74,0,0,0,11.53-14.75,59.42,59.42,0,0,0,5.33-9.31c.88-1.87,1.35-2.87.41-6.79s-3.34-10.78-5.8-14.29-5-3.69-7.9-4.1-6.09-1.05-7.73-2.16-1.76-2.7-.7-3.69,3.16-1.41,7.55-1.76,11-.58,14.11.47,2.81,3.51,2.87,6.5a26.91,26.91,0,0,0,2.52,11.12,42.84,42.84,0,0,0,10,13.59,33.93,33.93,0,0,0,12.47,6.85c3.58,1.05,6,1.11,6.62,2.28s-.41,3.4-1.29,8A87.43,87.43,0,0,0,736.38,276c.24,6.26,1.41,11.71,4.69,16s8.78,7.44,12.76,9.08,6.56,1.81,8.78,1.52,4.16-1,5-2a1.79,1.79,0,0,0-.41-2.81c-1-.58-2.69-.47-5-2.05a15.31,15.31,0,0,1-5.91-9.31c-.88-4.56.23-10.42,1.82-16.22a95.87,95.87,0,0,1,5.56-15.34c1.81-3.74,3.28-5.44,4.8-5.91s3.1.35,5.09,1.76a32.49,32.49,0,0,0,9.43,5.15c5,1.76,12.7,3.34,21.31,4.74s18.09,2.7,24.77,3.87,10.54,2.34,14.81,4.8,8.9,6.26,12.88,9.31a64.91,64.91,0,0,0,9.84,6.56c2.46,1.17,4,1.28,5.09,0s1.64-3.93.82-7.09-3-6.85-5.33-10.83-4.56-8.14-8.84-11.24-10.59-5-17.09-7.32-13.29-4.86-21.2-7.55-17-5.57-22.42-7.32-7.26-2.29-8-3.87a5.26,5.26,0,0,1,.64-5.21c1-1,2.87-.64,5.27.41s5.39,2.81,8.72,4.69a60.93,60.93,0,0,0,11,5.09,80.32,80.32,0,0,0,12,2.34,91.79,91.79,0,0,1,12.48,2.58,124,124,0,0,1,13.17,4.8c4.57,1.87,9.25,3.86,13.29,5.91a36.46,36.46,0,0,1,10.07,7c2.64,2.75,4.51,6.15,6.62,9.72s4.45,7.38,6.5,10.89,3.86,6.73,5.21,8.78,2.22,2.93,3.39,2.58,2.58-2,4-4.16a31.84,31.84,0,0,0,4-7.61,29.66,29.66,0,0,0,1.35-9,57.84,57.84,0,0,0-.76-11.3,63.11,63.11,0,0,0-4.1-15,57.83,57.83,0,0,0-8.84-14.17A72.6,72.6,0,0,0,881.41,216a52.9,52.9,0,0,0-11.47-6.39,61,61,0,0,1-6.5-2.81,2.4,2.4,0,0,1-1.35-2.75,57.66,57.66,0,0,0,.76-6,52.5,52.5,0,0,0-.82-10.83,46.56,46.56,0,0,0-3.86-11.89A53.89,53.89,0,0,0,848.8,161c-4.45-4.74-10.48-9-14.7-12s-6.55-4.63-8.72-5.45-4-.82-6.27-1.87a51,51,0,0,1-6.61-4.57l-.06.35a9.89,9.89,0,0,0-5.21-2.16c-2.34-.36-5.86-.53-8.31-1.7s-3.75-3.4-6.91-7-8.08-8.61-12.18-11.24-7.38-2.81-6.79-.82S778.13,120.62,779.3,122.67Zm-73.6,69.55c-.29,1.47-1,2.58-3.51,2.58a25.64,25.64,0,0,1-10.25-3,24.13,24.13,0,0,1-7.49-5.79c-1.29-1.58-1.23-2.34-.23-2.81a5.19,5.19,0,0,1,4.8.47c1.93,1.11,3.86,3.63,5.38,4.86a4.11,4.11,0,0,0,2.47,1,2.25,2.25,0,0,0,1.1-.33,12.06,12.06,0,0,0,1.41-1.25,2.75,2.75,0,0,1,.26-.22l.21-.17a3.23,3.23,0,0,1,.76-.41,4.43,4.43,0,0,1,4.22.7C705.88,188.89,706,190.76,705.7,192.22Zm112.24,21.61v.06c.47-1.06,1.64-2.46,4.86-3s8.55-.29,12.47-.76a31,31,0,0,0,8.38-2.52c2.05-.76,3.63-1.11,5-.76a4.68,4.68,0,0,1,3.28,2.81,4.74,4.74,0,0,1-.26,3.7,7,7,0,0,1-.79,1.28c-1.35,1.64-3.69,3-7.26,4a37.59,37.59,0,0,1-12.83.94,35.39,35.39,0,0,1-10.94-2.81c-1.69-.8-2.2-1.4-2.14-2.09A2.19,2.19,0,0,1,817.94,213.83Zm-76.52,17.92c-.59,1-2,.93-3.51-.18s-3.22-3.16-4.81-4.1-3-.64-4.5-1-3.17-1.23-5.74-3.17a56.43,56.43,0,0,1-6.37-5.53,25.73,25.73,0,0,1-1.83-2.08c-2-2.63-2.46-5-1.58-7.2s3.22-4.27,4.27-5.74l-.05,0c1.05-1.41.87-2.23,1.17-3.64a21.69,21.69,0,0,1,2.69-6,52.57,52.57,0,0,1,5.5-8c1.64-1.87,2.64-2.11,3.22-1.76a1,1,0,0,1,.22.19c.45.44.52,1.47-.22,3.74-.82,2.57-2.57,6.67-3.74,10.3s-1.7,6.79.93,11.54,8.44,11.12,11.48,15.34S742,230.75,741.42,231.75ZM744,170.39c-2.23,1.75-3.75,1.63-4.4,1-.49-.5-.5-1.35.06-2.73h0c.08-.2.17-.42.28-.65s.26-.53.41-.82a47.69,47.69,0,0,1,5-7.32c1.64-1.94,2.75-2.58,4.1-2.7s2.87.3,3.34,1.12a1.19,1.19,0,0,1,.15.71c0,.79-.69,1.91-2,3.74A45.78,45.78,0,0,1,744,170.39ZM772.74,226a4.22,4.22,0,0,1-5.09-.47,2.85,2.85,0,0,1,.17-4.39c1.53-1.06,4.69-1.06,5.92.17a2.22,2.22,0,0,1,.62,1.73A3.89,3.89,0,0,1,772.74,226Zm24.42-24.3c-.12,1.7-.41,2.87-3.16,3.81s-7.91,1.69-14.41,1.46a96.21,96.21,0,0,1-18.73-2.64c-4.39-1.11-5.33-2.22-5.8-3.51a5,5,0,0,1,.76-4.62,17.61,17.61,0,0,1,5.62-5.1l-.06-.17a11,11,0,0,1,5.63-1.53,2.84,2.84,0,0,1,2.86,1.88,34,34,0,0,1,1.64,5.33,8.53,8.53,0,0,0,1.7,3.86,5.06,5.06,0,0,0,3.28,1.23,3.41,3.41,0,0,0,3.28-1.29c1.05-1.17,2.05-3.39,3.22-5.33s2.46-3.51,4-4.09a6,6,0,0,1,5,.76,10.05,10.05,0,0,1,4.21,4.21A11.9,11.9,0,0,1,797.16,201.71Zm-6.09-30.62a67.52,67.52,0,0,1,12.53,3.22c2.72,1,4.45,2,5.15,3.22a2.86,2.86,0,0,1,.29.58,3.45,3.45,0,0,1-2,4c-1.69.77-4.27.47-6.85-.46s-5.21-2.58-9.07-3.46a52.94,52.94,0,0,0-12.82-.88,32.18,32.18,0,0,0-9.08,1.64c-3,.94-6.5,2.23-9.42,2.81a13,13,0,0,1-6.33,0c-.59-.2-.9-.49-1-.88a2.52,2.52,0,0,1,.43-1.58c.71-1.28,2.23-3.22,6-4.91a53.4,53.4,0,0,1,15.69-3.87l-.06-.06A63.9,63.9,0,0,1,791.07,171.09Z"/><path d="M767.06,189.59l0-.18a11,11,0,0,0-5.63,1.53l.06.17A10.81,10.81,0,0,1,767.06,189.59Z"/><path d="M758.93,174.43a54.83,54.83,0,0,1,15.69-3.87A53.4,53.4,0,0,0,758.93,174.43Z"/><path d="M806.94,182.1c-1.7.76-4.28.46-6.85-.47s-5.21-2.58-9.08-3.46a53.32,53.32,0,0,0-12.82-.88,32.59,32.59,0,0,0-9.08,1.64c-3,.94-6.55,2.23-9.42,2.81a13,13,0,0,1-6.33,0c-.53-.19-.82-.46-.9-.82.06.39.37.68,1,.88a13,13,0,0,0,6.33,0c2.92-.58,6.44-1.87,9.42-2.81a32.18,32.18,0,0,1,9.08-1.64,52.94,52.94,0,0,1,12.82.88c3.86.88,6.5,2.52,9.07,3.46s5.16,1.23,6.85.46a3.45,3.45,0,0,0,2-4,2.86,2.86,0,0,0-.29-.58,2.53,2.53,0,0,1,.24.53A3.42,3.42,0,0,1,806.94,182.1Z"/><path d="M758.93,174.43c-3.81,1.69-5.33,3.63-6,4.91C753.66,178.06,755.12,176.18,758.93,174.43Z"/><path d="M817.94,213.83a2.19,2.19,0,0,0-.2.78,2.37,2.37,0,0,1,.2-.72Z"/><path d="M822.8,210.9c3.28-.58,8.61-.29,12.47-.76a30.65,30.65,0,0,0,8.38-2.52,8.13,8.13,0,0,1,5-.76,4.55,4.55,0,0,1,3.28,2.81,4.78,4.78,0,0,1-.26,3.64,4.74,4.74,0,0,0,.26-3.7,4.68,4.68,0,0,0-3.28-2.81c-1.4-.35-3,0-5,.76a31,31,0,0,1-8.38,2.52c-3.92.47-9.25.18-12.47.76s-4.39,2-4.86,3V214C818.41,212.83,819.58,211.49,822.8,210.9Z"/><path d="M739.67,168.64c.08-.2.18-.42.28-.65C739.84,168.22,739.75,168.44,739.67,168.64Z"/><path d="M752.93,159c-.06.8-.72,1.93-2,3.68a45.78,45.78,0,0,1-6.9,7.67c-2.23,1.75-3.75,1.64-4.4,1l.06-.06c-.52-.48-.52-1.29,0-2.61-.56,1.38-.55,2.23-.06,2.73.65.64,2.17.76,4.4-1a45.78,45.78,0,0,0,6.9-7.67C752.24,160.89,752.9,159.77,752.93,159Z"/><path d="M699.64,187.77l.21-.17Z"/><path d="M702.19,194.8a27.24,27.24,0,0,1-10.25-3A25.64,25.64,0,0,0,702.19,194.8Z"/><path d="M698,189.24a2.25,2.25,0,0,1-1.1.33A2.1,2.1,0,0,0,698,189.24Z"/><path d="M698,189.24a10.12,10.12,0,0,0,1.41-1.25A12.06,12.06,0,0,1,698,189.24Z"/><path d="M689,183.68a5.19,5.19,0,0,0-4.8-.47A5.35,5.35,0,0,1,689,183.68Z"/><path d="M694.4,188.54c-1.52-1.23-3.45-3.75-5.38-4.86C690.89,184.85,692.88,187.31,694.4,188.54Z"/><path d="M727.07,209.09c-2.63-4.75-2.1-7.91-.93-11.54s2.92-7.73,3.74-10.3c.74-2.27.67-3.3.22-3.74.4.47.43,1.51-.27,3.68-.82,2.58-2.58,6.67-3.75,10.3s-1.7,6.8.94,11.54,8.43,11.12,11.47,15.34,3.4,6.32,2.87,7.32-2,.93-3.51-.18-3.22-3.16-4.8-4.1-3-.64-4.51-1-3.16-1.23-5.74-3.16a58.4,58.4,0,0,1-6.31-5.48,56.43,56.43,0,0,0,6.37,5.53c2.57,1.94,4.21,2.87,5.74,3.17s3,.05,4.5,1,3.28,3.05,4.81,4.1,2.92,1.17,3.51.18.23-3.11-2.87-7.32S729.71,213.83,727.07,209.09Z"/><path d="M772.74,226a3.89,3.89,0,0,0,1.62-3A4,4,0,0,1,772.74,226Z"/><path d="M749.15,305.64c-2.93-3.05-8.73-7.21-12.65-12.18s-6.09-10.83-6.91-17.57-.35-14.28-2.11-19.49-5.79-8-8.9-9.84a25.15,25.15,0,0,0-6.67-3.1c-1.46-.36-2.17-.06-2.63,4.91a162,162,0,0,0,.05,23.95,101.05,101.05,0,0,0,4.75,25.47c2.57,7.49,6.32,13.76,10.13,19.73a177.39,177.39,0,0,0,11.12,15.69c3.34,4,6.09,6.33,7.9,7.26s2.7.53,2.87-1.87-.41-6.79.47-11.42,3.28-9.6,4.45-13.05S752.07,308.68,749.15,305.64Z"/><path d="M657.75,346.68a12.82,12.82,0,0,1-13.82,8.61c-1.87-.3-2.81-1.12-4.27-1.76s-3.57-1-4,.35.58,4.63,2.4,7.61a15.92,15.92,0,0,0,8.43,7.2c4.1,1.53,9.72,1.76,13.82-.52s6.73-7,8.9-9.43,3.8-2.4,4.92-.29,1.64,6.32,1.58,9.89-.82,6.56-2.17,11.65-3.34,12.24-4.27,17.57-.88,8.78,1.4,12.88,6.74,8.9,9.72,10.66,4.57.52,5.91-1.88,2.41-5.91,2.64-11.36a123.37,123.37,0,0,0-1-18.09c-.7-5.27-1.4-8.49-.93-9.72s2.22-.47,3.92,2.17,3.34,7.2,4.57,12.35a60.94,60.94,0,0,1,1.81,16.28,41.27,41.27,0,0,1-3,13.7c-1.47,3.51-3,5.68-2.87,8.32s2.1,5.79,4.68,5S702,432.57,704,429a60.07,60.07,0,0,0,3.45-8.31c.94-2.34,2.28-4.45,3.81-4.51s3.22,2,4.1,5.8.87,9.3.23,14.52a65.62,65.62,0,0,1-3.4,14c-1.4,3.92-2.92,6.91-2,10.42s4.22,7.5,7.44,8.43,6.38-1.34,9.25-6,5.56-11.88,7-17.62a41.6,41.6,0,0,0,1.34-15.17A53,53,0,0,0,730,412c-3.51-7.37-9.25-16.1-14.46-23.94s-9.78-14.76-13.06-20.26-5.15-9.55-7-11.3-3.69-1.29-5.39-.47-3.28,2-5,1.93a4.8,4.8,0,0,1-4.22-2.81c-.41-1.52.64-3.34,1.87-5a31.09,31.09,0,0,1,5.21-5.27c2.64-2.1,6.44-4.91,9.14-7.2s4.39-4,6-9.13,3.16-13.76,3.16-25.59-1.58-26.93-2.63-35.07-1.64-9.25-3.81-7.79a38,38,0,0,0-8.25,9.55,25.29,25.29,0,0,0-3.69,10.19l.06-.18c-.3,2.58.29,4,1,7.61A132.35,132.35,0,0,1,691,302.77a102.15,102.15,0,0,1-.24,18,58.66,58.66,0,0,1-3.69,15.57c-1.75,4.34-3.86,7.44-5.62,9s-3,1.58-3.51.59-.06-3,.59-6.56,1.46-8.78,2.28-13.7a89.57,89.57,0,0,0,1.64-16.51,157.06,157.06,0,0,0-1.64-21.31c-.82-5-1.64-5.74-3.4-4.69s-4.5,4-7.37,7-6,6.15-7.91,7.84-2.75,1.94-3,2.93,0,2.7.35,7.91.88,13.81.76,21S659.33,342.7,657.75,346.68Z"/><path d="M699.09,343.69c-1.7,3-2.46,4.8-1,7.56s5.1,6.5,7.14,9.36,2.58,5,3.93,7.44a26.62,26.62,0,0,0,5.21,6.79c1.64,1.41,2.75,1.29,4.1.65s3-1.88,5-5.45A65.62,65.62,0,0,0,729,355a53.7,53.7,0,0,0,1.58-14.58c-.24-3.45-1.23-4.91-3-7.61S723,326.25,720.05,322a133.53,133.53,0,0,0-8-10.83l.06.06c-1.76-1.93-2.05-1.17-2.11.58a57.55,57.55,0,0,1-.65,8.2,51.43,51.43,0,0,1-3.92,12.36C703.42,336.61,700.79,340.71,699.09,343.69Z"/><path d="M748.68,362.72c-2.52-6.26-5.86-12.47-8.32-15.63s-3.92-3.34-4.68-2.87v-.06c-.76.47-.88,1.52-1.11,2.7s-.65,2.4-1.11,5.26A66.86,66.86,0,0,1,731,364.19a73.06,73.06,0,0,1-5.86,12.41c-1.75,3.1-2.75,4.62-1.81,7.32s3.86,6.67,6.5,10.54,5,7.55,6.26,11.24,1.35,7.32,2.11,9.54,2.28,3.05,3.75,2.52,2.92-2.46,4.8-6.09a76.21,76.21,0,0,0,5.38-14.29,45.41,45.41,0,0,0,1.17-16.27A71,71,0,0,0,748.68,362.72Z"/><path d="M769.64,401.25c-2.75-4.16-5-7.09-7.08-8.55s-4.1-1.41-5.1.35-.94,5.1-1.87,8.9a54,54,0,0,1-4.22,10.83,33.12,33.12,0,0,1-3.74,5.8c-1.12,1.46-2.23,2.87-1.76,5.09s2.4,5.27,4.45,9.49a87.08,87.08,0,0,1,5.68,15.4c1.52,5.85,2.63,12.23,3.69,16.27s2.1,5.8,3.57,6.21,3.22-.53,4.16-2.05.93-3.69,1.58-5.5,1.93-3.28,3.68-5.74a43.3,43.3,0,0,0,5.51-9.9,39,39,0,0,0,2.75-14.28,48,48,0,0,0-3.1-17.22A75.11,75.11,0,0,0,769.64,401.25Z"/><path d="M784.63,456.7a34.58,34.58,0,0,1-6.73,12.06,57.41,57.41,0,0,1-8.85,8.55c-2.69,2-4.68,3-5.09,7.31s.76,11.89,1,17.92a83,83,0,0,1-.77,14.05c-.35,3.57-.4,6.21,1.35,6.62s5.39-1.41,9.55-4.63,8.84-7.78,12.23-11,5.45-4.8,7.26-8.78,3.4-10.36,4.8-17.39a136.5,136.5,0,0,0,2.87-22.72,72.21,72.21,0,0,0-2.57-22.48,38.54,38.54,0,0,0-8.14-14.64,21.49,21.49,0,0,0-7.38-5.56l-.06-.12c-1.46-.52-1.58.12-.7,2.52s2.63,6.5,3.69,10.07a27,27,0,0,1,.82,11.36A81.08,81.08,0,0,1,784.63,456.7Z"/><path d="M738.2,768.47c2.75-1.63,7.84-3.33,13-5.21a141.63,141.63,0,0,0,15.34-6.55c5-2.52,9.77-5.39,14.52-8.26s9.42-5.62,12.53-9.13,4.56-7.73,7.26-13.06,6.55-11.77,9.42-18.15A93.23,93.23,0,0,0,816.42,689c1.41-6.44,2.23-12.88,3-17.39s1.52-7.2,3-9.31,3.81-3.68,7.09-5.56,7.43-4.1,11.53-8.19a44.35,44.35,0,0,0,10.54-17.92c2.52-7.91,3.57-17.8,4.33-29s1.17-23.77,1.06-34.84a192,192,0,0,0-2-28.51c-1.29-7.73-3.16-13.59-4.22-18.68s-1.17-9.37-2.46-15.69-3.69-14.82-5.15-22.43-2-14.46-4-23.07a146.32,146.32,0,0,0-9.54-28.22,172,172,0,0,0-15-24.94c-5.39-7.79-11-15.28-16.87-24.18a311.31,311.31,0,0,1-18.26-30.91c-6-11.71-11.6-24.83-14.88-32s-4.15-8.43-5.09-8-1.81,2.46-2.52,5.62-1.23,7.38-2,11.24-2,7.44-2.81,10.13H752c-.82,2.63-1.35,4.45-1,6.21s1.52,3.39,3.4,7.49,4.51,10.77,5.5,16.28.35,10,.35,12.64.65,3.46,3.05,2.81,6.5-2.81,8.31-5.21,1.29-5,1.46-7.49a11.11,11.11,0,0,1,2.29-6.44c1.29-1.64,3.1-2.64,4.1-1.64s1.17,4,.82,7.26a31.7,31.7,0,0,1-2.81,10.3c-1.64,3.4-4.1,6.5-5,8.9s-.29,4,2.87,7.32a76.17,76.17,0,0,0,12.35,10.48c3.63,2.23,5.27,1.76,5.86-.64s.06-6.68,1-8.84,3.22-2.11,5.21-1.06,3.63,3.22,3.46,5-2.11,3.34-2.87,5.8-.29,5.91.64,9.48,2.23,7.2,3.87,12.65a110.92,110.92,0,0,1,4.45,20.72,108.08,108.08,0,0,1-.59,24.65c-1.11,7.91-2.92,15-4,20.2s-1.4,8.55.41,12.24,5.74,7.85,9.72,12.88,7.9,11,9.66,15.17,1.23,6.73,1.41,8.6,1,3.22,2.4,3.22,3.39-1.29,4.8-5.09,2.22-10.07,2.4-16.16a54.42,54.42,0,0,0-2.23-18.09,56.82,56.82,0,0,0-8.13-16.1c-2.93-4-5.57-5.8-6.5-9.67s-.06-9.83-.24-15.86a106.55,106.55,0,0,0-2.63-18.56c-1.29-6.44-2.81-13.18-3-18s.76-7.61,2.23-8,3.45,1.58,4.8,5,2,8.14,3.22,14.34,3,13.76,3.63,20.85-.06,13.7,1.4,18.73,5.1,8.49,7.91,12.47a36.89,36.89,0,0,1,5.91,14.29,71.87,71.87,0,0,1,.82,20c-.64,6.85-2.34,13.29-3.39,18.56s-1.53,9.42-2.87,13-3.52,6.74-6.21,10.31a59.52,59.52,0,0,1-9.54,10.42c-3.57,2.87-7.32,4.68-9.08,4.68s-1.4-1.81-3.22-3.45-5.74-3.16-9.31-5-6.67-4-8.14-.41-1.28,12.77-1.64,21.61-1.17,17.27-2.63,23.18-3.63,9.43-2,10.42,6.85-.52,10.48-2.75a16.24,16.24,0,0,0,6.91-8.84c1.35-3.63,2-8,3.16-10.83s2.75-4.39,3.69-3.57,1.05,3.92.88,7.32-.7,7,.47,6.44,4-5.33,6.61-9.31,5.16-7.09,8.84-11.77,8.67-11,11.66-16.34,3.92-9.77,5.5-12.76,3.75-4.45,5-3,1.58,5.92,0,11-5,10.66-10.25,18.33-12.12,17.45-17.74,24a78.25,78.25,0,0,1-14.52,13.17c-4.63,3.34-9.55,6.79-13.53,8.14s-6.91.47-10.71,3.22-8.37,9-14.17,13.35-12.71,6.85-16.69,6.91-5-2.23-6-3.28-2.22-.94-5.79,1.46-9.49,7-14.29,10.13-8.37,4.8-10.54,8.08-2.81,8.26-1.76,11.07,3.93,3.45,7.62,2.28,8.31-4.1,13.93-4.27,12.18,2.46,20,3a70,70,0,0,0,23.25-2.81c6.32-1.87,10-4.16,13.52-7.73A38.32,38.32,0,0,0,798.92,667c1.81-4.86,2-9.84,2.81-14.35s2.34-8.66,4.39-10.42,4.68-1,6.09,1.23,1.58,6.27-1.06,13.29a109.4,109.4,0,0,1-13.87,24.65c-5.8,7.61-11.89,12.71-17.74,15.87s-11.42,4.27-18.62,4.68-15.87.12-21.26,1.35-7.32,4-11.36,9.25-10.13,12.82-16,17.92a38.12,38.12,0,0,1-18.5,9.25c-7,1.52-15.46,1.81-22.37,3s-12.41,3.11-14.69,6.91-1.47,9.43-2.29,12.65-3.28,4-5.44,7.32-4,9.07-5,15.75-1.17,14.23-4,23.65-8.49,20.61-13.58,29.22-9.72,14.52-13.29,17.56-6,3.22-8.08.77-3.75-7.62-5.22-12.65-2.81-10-3.8-12.47-1.64-2.46-2.58.82-2.05,9.89-5,16a61,61,0,0,1-11.13,15.11c-3.33,3.39-5.33,4.56-8.31,1.17s-6.91-11.3-8.26-20,0-18.32.18-23.59-.82-6.27-2.64-2.87-4.45,11.12-7.2,15.34-5.5,4.86-6.91,3.69-1.4-4.1.24-9.55a177.62,177.62,0,0,1,7.67-19.38c2.69-6,4.86-10.13,3-10.89S547.56,799,543.17,800s-7.32.06-7.67-2,2-5.38,3-12.06.65-16.74,1.23-25.47,2-16.22,3.17-23.24,1.87-13.7,3-18.5,2.87-7.67,3.69-11.36.82-8.14,2.17-12,4-7.21,8.13-10.66a71.14,71.14,0,0,1,15-9.43c5.15-2.34,9.78-3.45,12.42-4.51s3.27-2.1,2.86-3.27-1.93-2.35-4.91-2.58-7.56.64-10.48,1-4.28.3-6.56-.58-5.56-2.46-8.73-3.4a14.3,14.3,0,0,0-9.72.24,34.18,34.18,0,0,0-10.94,7.2c-3.11,3.1-5.16,6.38-5.92,15.87s-.17,25.17-.47,34.77-1.4,13.18-2.75,14.93-2.81,1.82-3.75-1.75-1.34-10.66-1.46-18,0-15,.24-22.37.46-14.23,2.75-20.32,6.67-11.42,10.83-15.28a66,66,0,0,1,10.54-7.79c2.4-1.46,3.22-1.87,2-4.74S546.56,636.39,545,632s-1.69-7.9-2.34-10.24-1.87-3.63-3.39-2.17-3.34,5.56-5.39,8.49-4.22,4.68-8,7.61a152.6,152.6,0,0,1-14.46,10.19,54.63,54.63,0,0,1-15.4,6.32,44.25,44.25,0,0,1-11.54.94c-2.46-.12-3.16-.35-4.74,2.17s-4.16,7.78-7.08,12.47-6.21,8.72-10.66,14.52S452,695.7,444.75,704s-15.93,17.27-22.55,24.12S411,739.67,408.15,742.24s-4.1,3-2.93,5.27,4.81,6.5,9.9,12.94,11.59,15.11,15.28,21.49,4.63,10.54,6.15,13.12,3.63,3.63,7.2,3.39,8.49-1.81,12.76-3.8,7.91-4.4,10.31-8.67,3.57-10.48,5.74-13.58,5.38-3.11,9.07-5.39,7.79-6.79,10.83-9.37,5-3.16,6.21-2.4,1.58,2.81.53,5.1-3.63,4.74-6.91,8.13a123,123,0,0,1-10.6,10.25c-3.28,2.52-5.74,3.4-6.32,5.68s.76,6.09-.06,8.78-3.81,4.22-7.14,6.79A88.83,88.83,0,0,0,458,809.4c-3.16,3.34-5.68,6.44-8.26,9.6,2.17,4.39,4.28,8.73,6.44,13.12a45.13,45.13,0,0,1,3.11-4.74,58.92,58.92,0,0,1,7.78-9c3.17-2.81,6.5-4.8,9-4.51s3.92,2.81,3.57,5.39-2.51,5.15-4.27,7.2a35.68,35.68,0,0,0-4.39,5.62c-1.17,1.93-2.17,4.33-3.69,6.62s-3.57,4.39-3.51,6.9,2.34,5.45,4.56,8.32a33.63,33.63,0,0,0,4.63-3.4,81.71,81.71,0,0,1,6.26-5.44,41.36,41.36,0,0,1,9.9-5.62c3.28-1.23,6.09-1.29,7.26-.35s.64,2.92-1.47,4.74-5.79,3.45-8.31,4.51-3.86,1.46-5.62,3.1a72.66,72.66,0,0,0-6.21,7.44c2.81,3.51,5.62,7,8.43,10.42,2.58-1.35,5.16-2.64,7.44-3.81s4.39-2.16,6.21-3.1a45,45,0,0,1,5.15-2.58c1.76-.7,3.75-1.23,8,.53s10.6,5.74,15.4,7.49,8,1.41,11,1.47,5.85.64,7.32,5,1.4,12.42,1.64,17.39.64,6.85,1.87,8.14,3.28,1.93,9.19,2.34,15.64.59,22,.3A42.54,42.54,0,0,0,589,900.91c1.58-.46,1.82-.7,2-2.45a36,36,0,0,1,1.17-7.85c.94-2.87,2.7-5.45,4.28-8.61s3.1-7,4.62-9.37,3.11-3.39,4.86-2.92a7.9,7.9,0,0,1,4.69,4.62c.88,2.29.7,4.92.88,7.5s.64,5.15,2.4,6.5,4.74,1.52,6.09.46,1.11-3.39,1.93-5.67,2.75-4.51,5-8.32a132.65,132.65,0,0,0,6.91-13.29c1.88-4.16,2.87-7,4.22-8.26s3.1-.82,4.51.41,2.51,3.28,4.27,5a12.7,12.7,0,0,0,6.91,3.57,12.36,12.36,0,0,0,7.9-1.52c2.35-1.35,4.16-3.51,6.21-4.74s4.39-1.58,6.67,1.69,4.63,10.07,6.21,13.88,2.52,4.51,5.68,5a48.68,48.68,0,0,0,12.35-.06c3.75-.7,5.68-2.17,6.74-3.69s1.11-3,.17-4.1-2.92-1.52-4.39-3.39-2.34-5.22-1.52-7.15,3.4-2.51,4.51-5,.82-7,.94-9.9.7-4.33,2.45-7.14,4.63-7,7.73-11.94,6.38-10.66,9.49-15.34,6-8.44,7.84-12.07a25.72,25.72,0,0,0,2.87-11.06c.18-3.87-.35-8.08-.41-11S735.45,770.11,738.2,768.47Zm-248.31-22.3a101.67,101.67,0,0,1-10,9.07c-3.63,2.93-6.56,5.33-9.14,6.5s-4.68,1.06-7.61,2.4a31.35,31.35,0,0,0-8.72,6.21c-2.05,2.22-2.46,3.86-4,5.5s-4.28,3.28-6.09,2.81a2.36,2.36,0,0,1-.68-.32c-1.41-.86-2.17-3.23-2.43-5.65h.06a9.92,9.92,0,0,1,.87-6.13,8.21,8.21,0,0,1,1.42-1.89c2.4-2.34,6.91-4.16,10.24-5.74s5.51-2.87,8.2-4.16,6-2.51,8.25-4.21,3.4-3.87,5-4.8,3.57-.71,5.51-1.47,4-2.57,5.91-3.39,4-.65,4.8.23l0,0,0,0C492.35,742.07,492.11,743.59,489.89,746.17Zm12.94,39.28v-.05a.05.05,0,0,0,0,0,.25.25,0,0,0,0,.07,11.71,11.71,0,0,1-7,6,29.8,29.8,0,0,1-11.42,1.06c-2.63-.35-2.63-1.23-2.57-2.05a2.88,2.88,0,0,1,.2-.95,3,3,0,0,1,1.67-1.63c1.64-.82,4.69-1.7,7.55-3.63a26.15,26.15,0,0,0,2.21-1.67c1.7-1.42,3.32-3,4.79-4,.31-.22.61-.43.91-.6,2.28-1.35,4.16-1,4.86.52S504.12,782.94,502.83,785.45Zm2-90.46a58.64,58.64,0,0,1-7.09,15.75,26.58,26.58,0,0,1-9.13,8.61,27.34,27.34,0,0,1-9.9,3.28A16.08,16.08,0,0,1,465.2,720c-.85-.57-1.59-1.1-2.19-1.5a5.89,5.89,0,0,0-.82-.45c-1.23-.46-1.23.82-1.17,2.58a24.57,24.57,0,0,1-.23,6.44c-.53,2.58-1.64,5.56-4.22,10.07s-6.5,10.66-10.95,14.76-9.36,6.26-13.58,6.67-7.67-.88-9.25-2.28l-.05,0h0c-1.58-1.41-1.23-2.87.88-3.81s6.09-1.23,10.25-3.63,8.43-6.85,11.71-11.77a51.35,51.35,0,0,0,6.61-14.28c1-3.87.65-6.21,2.05-8.61a11.52,11.52,0,0,1,8.31-5.27c3.81-.41,8.26,1.23,12.65,1.58a14.78,14.78,0,0,0,12.77-5c4.09-4.28,8.08-11.89,9.83-18.21s1.23-11.48,1.88-14.29,2.45-3.28,4.21-2.4a5.34,5.34,0,0,1,1.3,1c1.23,1.24,2.21,3.36,2.39,6.68C507.8,682.52,506.63,689,504.82,695Zm172.25,75.77c-.93,2.75-3.39,7-5,11.65S670,792,669.81,799.74s.06,18.33.18,25.53,0,11.12-1.35,15.69a44.59,44.59,0,0,1-3.72,8.83A27.41,27.41,0,0,1,662.2,854c-2.34,2.93-4.51,3.39-5.91,2.75s-2.11-2.46-1.76-6.15a102,102,0,0,1,3-14.28,68.77,68.77,0,0,0,2.87-17.75l-.12.18c.23-8.08-.7-19.56.06-28a51.3,51.3,0,0,1,4.74-17.5c.48-1.06.89-1.94,1.28-2.7,1-2,1.82-3.16,3.17-3.86l-.12.18a9.54,9.54,0,0,1,6.33-.59C677.42,766.78,678,768,677.07,770.76Zm51.64-12.3c-4.33,2-8.54,3.11-10.54,4.63s-1.87,3.51-2.1,7.08-.94,8.78-1.53,13.06A88.05,88.05,0,0,1,712,795.7c-1.41,4.92-3.63,11.42-5.39,17s-3.1,10.07-4.92,13.88-4.09,7-5.32,10.07-1.29,6.14-2.05,7S692,843,690.6,841.9a6.59,6.59,0,0,0-4.8-1.82c-2,.12-4.86,1.17-6.09.24,0,0-.06-.08-.09-.11h0c-1.23-.94-.88-3.92,0-8.32s2.34-10.24,3.4-16.68a133.87,133.87,0,0,0,1.69-20c.12-6.5-.29-12.53-.52-16.1a25.16,25.16,0,0,1,0-6.21,4.62,4.62,0,0,1,2.31-3.84,5.92,5.92,0,0,1,.91-.43,17,17,0,0,1,9.37-.12c2.22.76,2,2.35,1.34,4.51-.2.59-.45,1.23-.72,2-.17.47-.35,1-.54,1.54a60.07,60.07,0,0,0-2,8c-1.23,6.49-2.4,16.74-3,24.18s-.71,12.06-.12,14.46,1.8,2.68,3.42,1,3.67-5.32,5.66-9.35a85.68,85.68,0,0,0,5.09-12.76c1.23-4.21,1.81-8.25,1.64-15.28s-1.06-17-.76-22.19c.13-3,.69-4.4,1.67-5.14a5.86,5.86,0,0,1,2.89-1,40,40,0,0,0,11.07-2.93c4.27-2,8.84-5.44,15.16-9.89s14.41-9.9,20.79-14.35c2.59-1.8,4.89-3.43,6.94-4.88s4.06-2.88,5.6-3.91l1.51-1-.06-.16c3-1.87,4.34-2.22,5.86-2.17A5,5,0,0,1,781,720a1.65,1.65,0,0,1,.79,1.2c.23,1.41-1.11,3.81-4.45,6.74s-8.72,6.38-14.93,10.24-13.35,8-19.09,11.66S733.05,756.41,728.71,758.46Z"/><path d="M792.71,566.3l-.12.12c-2.46,1.7-3.16,2.46-2,3.16a22.09,22.09,0,0,0,6.21,1.64,11.77,11.77,0,0,0,4.8-.18,54.12,54.12,0,0,1,5.5-1.28,7.76,7.76,0,0,1,5.39,1c1.58,1,2.81,3,4.27,3.4s3.11-.88,4.63-3.81a28.58,28.58,0,0,0,3-11.94,25.94,25.94,0,0,0-3-11.95c-1.76-3.51-4-6.32-5.91-6.09s-3.63,3.4-5.51,7a46.74,46.74,0,0,1-7.26,11.07C799.5,561.85,795.17,564.54,792.71,566.3Z"/><path d="M796,513.84c-2.81-1.64-4-1.58-4.69-.47s-.58,3.28-3.45,6.79-8.55,8.38-13.23,13.59A45.7,45.7,0,0,0,764,552.19c-2.22,7.61-3,17.16-3.4,24.36v.06c-.46,7.14-.52,11.94-.93,20s-1.11,19.44-2.17,27.28-2.34,12.12-3.92,15.87a44,44,0,0,1-5.27,9.43c-1.87,2.46-3.86,4.21-4.16,5.27s1.11,1.52,2.81.88,3.69-2.29,6.56-4.86,6.73-6.15,10.42-10.07A84.55,84.55,0,0,0,774,627.66a39.18,39.18,0,0,0,5.74-17c.94-7.61.82-18.09.76-24.71s-.18-9.31-1.58-10.77-4.1-1.64-6-2.28a4.24,4.24,0,0,1-3-2.81c-.17-.94.53-1.76,1.87-2.7s3.4-1.87,6-3.28a70,70,0,0,0,9.72-6.38c4-3.22,9.19-7.73,12.88-10.83s6-4.74,7-8.61a22.91,22.91,0,0,0-1.75-14.57C803.31,519,798.86,515.54,796,513.84Z"/><path d="M724.56,661a40.87,40.87,0,0,0,15.1-16.51c4.51-8.67,7.85-21,9.08-32.91a115.28,115.28,0,0,0-.76-29.8c-1.17-6.5-2.64-8.14-2-10.07s3.45-4,5.85-8,4.39-9.72,5.68-14.58,2-8.84,2.75-11.89,1.58-5.21,0-5.44-5.5,1.4-8.14,3.86-4,5.8-5.62,8.26-3.63,4.1-4.86,3.22-1.75-4.39-.17-7.67,5.21-6.44,8.25-10.43,5.51-8.72,6.5-17.33.47-21-1.23-28.63-4.68-10.65-6-14.87-1-9.66-1.17-14.75-.82-9.9-2.17-13.35-3.27-5.62-4.27-5.1-1,3.63-1.05,7.91-.24,9.72-1.41,14.11a25.51,25.51,0,0,1-5.21,9.95c-1.87,2.29-3.57,3.63-4.22,7.2s-.35,9.31-.64,12.53-1.35,3.87-3.57,2.4-5.68-5.09-9.84-10.13-8.9-11.47-14.17-18.09-11.06-13.35-13.76-15.51-2.4.35,1.23,6.61l.06.12c3.63,6.26,10.54,16.34,17,26.17s12.36,19.38,16.75,29.45a97,97,0,0,1,8,31.33c.82,10.71-.35,21.6,0,27.87s2.17,7.9,2.87,10,.41,4.51-.65,10.31-2.87,14.87-4.86,24.23-4.09,19.15-6.44,26a47.55,47.55,0,0,1-7,13.88c-2.23,3-4.22,5.21-4.57,7.43a4.73,4.73,0,0,0,3.57,5.27C716,664.72,719.76,663.9,724.56,661Z"/><path d="M675.73,766.25a9.54,9.54,0,0,0-6.33.59l.12-.18c-1.35.7-2.18,1.85-3.17,3.86.93-1.82,1.71-2.91,3-3.57a9.6,9.6,0,0,1,6.33-.58c1.7.52,2.28,1.75,1.34,4.51s-3.45,7-5,11.65-2.11,9.6-2.29,17.33.12,18.32.18,25.53,0,11.06-1.35,15.69a45.75,45.75,0,0,1-3.66,8.71,44.59,44.59,0,0,0,3.72-8.83c1.35-4.57,1.41-8.49,1.35-15.69s-.35-17.8-.18-25.53.76-12.71,2.29-17.33,4-8.9,5-11.65S677.42,766.78,675.73,766.25Z"/><path d="M762.38,738.2c6.21-3.86,11.59-7.31,14.93-10.24s4.68-5.33,4.45-6.74A1.65,1.65,0,0,0,781,720a1.69,1.69,0,0,1,.67,1.09c.24,1.4-1.11,3.8-4.45,6.73s-8.72,6.38-14.93,10.25-13.29,8.08-19.08,11.65-10.25,6.56-14.58,8.61-8.49,3.1-10.54,4.62-1.88,3.51-2.11,7.09-.88,8.78-1.52,13.05a80.23,80.23,0,0,1-2.58,12.47c-1.4,4.92-3.63,11.48-5.39,17a119.12,119.12,0,0,1-4.91,13.88c-1.82,3.86-4.16,7-5.33,10.07s-1.29,6.15-2.05,7-2.28-.59-3.69-1.7a6.66,6.66,0,0,0-4.8-1.82c-2,.12-4.82,1.16-6.06.25,0,0,0,.08.09.11,1.23.93,4-.12,6.09-.24a6.59,6.59,0,0,1,4.8,1.82c1.4,1.11,2.92,2.51,3.69,1.69s.87-3.86,2.05-7,3.51-6.21,5.32-10.07,3.17-8.38,4.92-13.88,4-12.06,5.39-17a88.05,88.05,0,0,0,2.57-12.47c.59-4.28,1.29-9.49,1.53-13.06s.06-5.56,2.1-7.08,6.21-2.58,10.54-4.63,8.79-5,14.58-8.6S756.17,742.07,762.38,738.2Z"/><path d="M696.69,768.59c2.28.76,2.1,2.34,1.34,4.51-.18.58-.41,1.2-.66,1.91.27-.74.52-1.38.72-2,.7-2.16.88-3.75-1.34-4.51a17,17,0,0,0-9.37.12,5.92,5.92,0,0,0-.91.43,5.17,5.17,0,0,1,.85-.37A18.19,18.19,0,0,1,696.69,768.59Z"/><path d="M691.77,808.82c-.59,7.43-.7,12-.12,14.46s1.82,2.69,3.46,1l0,0c-1.62,1.65-2.84,1.41-3.42-1s-.53-7,.12-14.46,1.75-17.69,3-24.18a60.07,60.07,0,0,1,2-8,57.61,57.61,0,0,0-2.08,8.08C693.52,791.13,692.41,801.38,691.77,808.82Z"/><path d="M772.39,721.56l-1.51,1c.54-.36,1-.7,1.51-1Z"/><path d="M722.33,755.65c4.33-2,8.84-5.44,15.17-9.89s14.4-9.9,20.78-14.35c2.62-1.82,4.94-3.48,7-4.94-2,1.45-4.35,3.08-6.94,4.88-6.38,4.45-14.46,9.9-20.79,14.35s-10.89,7.9-15.16,9.89a40,40,0,0,1-11.07,2.93,5.86,5.86,0,0,0-2.89,1,6.19,6.19,0,0,1,2.84-.95A40,40,0,0,0,722.33,755.65Z"/><path d="M697.8,731.06c3.75-2.4,9.78-6.62,13.58-9.54a31.47,31.47,0,0,0,7.2-7,53.11,53.11,0,0,0,5.33-8.84c1.47-3.16,2.29-6.26,2.17-8.14s-1.17-2.46-2.87-2.28a22.8,22.8,0,0,0-6.73,2.34A36.84,36.84,0,0,0,709,702l-.06.06a5.49,5.49,0,0,0-2,4.1,16.08,16.08,0,0,1-1.75,5.85,102.33,102.33,0,0,1-6.27,10.6c-2.57,3.92-5.27,8-5.85,9.72S694,733.46,697.8,731.06Z"/><path d="M615.65,245.68c-2.46-18.5-7.9-32.67-18.38-45.38s-26-23.88-41.51-30.5-31-8.61-47.19-7.26a130.42,130.42,0,0,0-47.66,13.35c-14.64,7.44-27.23,17.68-39,29.39s-22.89,24.89-33,37.36-19.38,24.18-24.65,31.26v.29c-5.33,7.09-6.62,9.55-5.8,10.95s3.81,1.76,7.5.18,8.19-5,14.05-9.08,13.11-8.6,20.2-15.39a138.29,138.29,0,0,0,18.21-22.14c4.21-6.44,5.74-10.36,9.42-15.16s9.67-10.42,13.3-14.7,4.91-7.26,7.49-7,6.38,3.69,10.89,7.08,9.84,6.68,15.11,7.85,10.54.11,15.75-1.76a57.9,57.9,0,0,0,14.93-8.14,90.61,90.61,0,0,0,12.88-12.23c4.15-4.63,8.25-9.72,11.65-12.77s6-4,7.49-3.28,1.82,3.22-.06,6.79-6,8.14-10.71,13.12-10,10.19-14.87,14.58-9.31,7.84-10,10.24,2.46,3.75,6.45,4.22a42.4,42.4,0,0,0,13.58-.94A62,62,0,0,0,536,221.38a44.38,44.38,0,0,0,11.76-8.66c3.4-3.57,6.21-7.85,8.61-9.66s4.33-1.17,4.27,1.87-2.22,8.49-7.49,13.93a60.25,60.25,0,0,1-20,13.18c-6.26,2.28-10.42,1.46-13.29,1.87s-4.5,2.05-3.68,4.86,4.15,6.74,8.43,9.72a31.09,31.09,0,0,0,13.58,5.39c4,.41,6.85-.7,11.24-1.88s10.31-2.28,16-4.45,11.12-5.27,15.34-7.49,7.2-3.57,8.66-2.81,1.47,3.51-1.81,7.08-9.9,7.85-17.16,10.25-15.16,2.87-20.2,3.63-7.2,1.7-4.8,4.1,9.31,6.21,15.34,8.61,11.12,3.39,16.8,2.81,12-2.7,15.4-2.87,4.1,1.64,2.29,3.63-6.09,4.1-9.72,5.5S579,282,580,283.86s5.91,4.8,10.54,6,8.89.76,11.06,1.58a2.33,2.33,0,0,1,.88,4c-1.23,1.05-3.69,1.05-5.45,1.64s-2.75,1.69-5.62,6.26-7.67,12.47-13.93,19.73a94.63,94.63,0,0,1-22.43,19,115.15,115.15,0,0,1-23.65,10.72c-6.21,2-9.49,2.34-8.67,4s5.8,4.62,11.3,6.67a46.63,46.63,0,0,0,16.93,3c5.26-.18,9.71-1.64,15.92-4.63s14.11-7.43,19.91-12.29,9.37-10.13,12.53-12.88,5.79-2.87,6.79-.82.35,6.32-2.81,11.77a50.45,50.45,0,0,1-15,16.15c-6.26,4.1-13.17,5.8-19.2,7.68s-11.13,4-13.53,6.08-2.05,4,.64,5.86,7.85,3.45,13.53,4.1a69.51,69.51,0,0,0,17.74-.47c5.8-.82,11.07-2.17,14.93-4.45s6.38-5.62,8.84-7.2,5-1.41,6.44.58,2,5.74-.41,9.14-7.67,6.38-12.53,8.43A40.41,40.41,0,0,1,590.65,397a91.73,91.73,0,0,1-13.46-.76c-3.58-.29-5.57-.29-7,4.39s-2.52,14.06-3.16,24.89-1,23-.65,31.73A112.43,112.43,0,0,0,568.17,474c.47,2.63.47,2.63,1.81,10.65s3.93,24,4.69,36.66-.41,21.84-3.63,28.51-8.49,10.77-8.08,14.58,6.5,7.26,13.7,8.43,15.4,0,21.84-1.23,11.06-2.52,16.16-5.91a54.79,54.79,0,0,0,15.75-17,123.72,123.72,0,0,0,11.71-26.58c2.22-7.5,2.22-11.6,2.81-15.58s1.75-7.79,3.57-9.66,4.27-1.93,5.21,1.87.24,11.42-.76,19.91-2.28,17.86-1.87,26.7a60.78,60.78,0,0,0,6.5,25A102.65,102.65,0,0,0,671.86,591c4.57,5.09,7.85,7.73,10.42,11.71a33.05,33.05,0,0,1,4.86,13.94,24.28,24.28,0,0,1-1.58,11.71c-1.23,2.86-2.87,4.5-3.69,6.26s-.82,3.51.82,3.28,5-2.58,7.44-3.63,4.1-.88,3.45,1.58-3.63,7.26-8.08,10.54-10.42,5.09-14.87,6-7.43.94-5.79,2.58,7.9,5,14.11,6.44,12.29,1.17,16.74-.59,7.26-4.92,9.43-8.61,3.63-8,5.38-13.05a171.7,171.7,0,0,0,5.86-20.38,253.06,253.06,0,0,0,5.44-37.47,218.37,218.37,0,0,0-1.4-44.62A136.25,136.25,0,0,0,708.16,496c-6.38-13.05-15.28-25.94-29.39-47.36s-33.43-51.47-44.38-70.38-13.64-26.64-15.11-36.19-1.81-21-1.75-38.05S618.11,264.18,615.65,245.68ZM683.81,547c.52-6.33,2.57-14.46,3.68-20.2a66.21,66.21,0,0,0,1.35-11.48c.06-2.22.06-3.22,1-4.39s2.87-2.46,5.63-.23,6.38,8,7.78,12.18.59,6.73-1.17,10.07-4.33,7.49-5.91,11.94-2.05,9.25-2.4,14.46c-.22,3.92-.38,8.11-1,10.21-.21.71-.48,1.18-.84,1.33-1.4.64-4-3.87-5.85-8.38a31.34,31.34,0,0,1-2.41-13.2C683.7,548.6,683.74,547.84,683.81,547Zm-68.16-10.72c-1.28.59-3.69.24-5.15.35s-1.93.71-2.11,3.4,0,7.44-1.17,11.36a19,19,0,0,1-6.32,9c-2.58,2-5.15,3-7.5,4.39s-4.5,3.1-6.79,4.15-4.68,1.53-6.15,1.06a1.65,1.65,0,0,1-1.35-1.8,3.24,3.24,0,0,1,1.06-1.83c1.76-1.76,5.92-4,9.31-6.85a24.21,24.21,0,0,0,7.61-10.42,30.93,30.93,0,0,0,1.44-9.82q0-1.67-.09-3.3a47.73,47.73,0,0,0-2.52-13.23c-1.58-4.74-4.16-10-5.91-15a56,56,0,0,1-3.1-14v.05c-.09-1.08-.14-2.14-.15-3.17a65.62,65.62,0,0,1,.5-8.18c.35-3.11.76-5.51,1.69-5.57s2.35,2.29,3.11,4.75.93,5.09,2.16,8.43,3.58,7.38,6.5,9.72,6.44,3,8.49,3.86c1.27.56,1.94,1.19,2,2a2.3,2.3,0,0,1-.52,1.54v.06a12.24,12.24,0,0,1-5.86,4.1c-2.22.59-4.21-.12-5.21,1.23a4.2,4.2,0,0,0-.59,2.26,9.93,9.93,0,0,0,1.94,5.7c2.34,3.22,6.91,6.15,10.07,8.2s4.8,3.1,5.5,4.33a2.68,2.68,0,0,1,.38,1.43A1.85,1.85,0,0,1,615.65,536.32Zm29.63-87.7a2.73,2.73,0,0,1,.43,1.88,8.92,8.92,0,0,1-1.78,4.5c-1.69,2.34-4.56,4.56-7.78,6.61a52,52,0,0,1-9.31,4.8c-2.4.82-3.63.53-4.63,0a5.84,5.84,0,0,1-2.28-1.93,1,1,0,0,1-.21-.85c0-.51.48-1.19,2-2.48v.11c2.23-1.93,6.8-5.21,10.13-7.73s5.51-4.09,7.79-5S644.34,447.44,645.28,448.62Zm-7.49-14.76c.2,1.91-.69,4.45-3.1,7-.34.36-.71.73-1.12,1.09-3.22,2.87-8.37,5.62-12.53,7.55a33.76,33.76,0,0,1-12.3,3.58,96.49,96.49,0,0,1-15.8.11c-3.58-.35-3.63-1-3.58-1.7s.2-1.21,1.75-2.12c.26-.16.54-.33.89-.51a61.51,61.51,0,0,1,11.53-4.22c4.69-1.23,9.61-1.93,13.59-3.39a32.71,32.71,0,0,0,9.72-5.74h0c2.64-2.17,5-4.33,7-4.74A3.27,3.27,0,0,1,637.79,433.86Zm-15-20.32c3.8-3.57,6.2-5.91,8.43-7s4.11-.94,5,.18a2.2,2.2,0,0,1,.2.23c.82,1.29.35,3.63-1.06,6.2a32.4,32.4,0,0,1-6.79,8.08,70.2,70.2,0,0,1-10.18,7.56A45.08,45.08,0,0,1,607,434.09c-4,1.18-8.37,1.59-10.6,1.06a3,3,0,0,1-1.29-.59c-.9-.69-.53-1.79,1.29-3,2.4-1.52,7.32-3.22,12.35-6.44S619,417.12,622.8,413.54Z"/><path d="M686.09,562.55a31.62,31.62,0,0,1-2.41-13.2A31.34,31.34,0,0,0,686.09,562.55Z"/><path d="M688.84,515.36c.12-2.22.12-3.22,1-4.39C688.9,512.14,688.9,513.14,688.84,515.36Z"/><path d="M683.81,547c.52-6.33,2.57-14.41,3.68-20.2C686.38,532.58,684.33,540.71,683.81,547Z"/><path d="M695.52,510.74c-2.76-2.23-4.69-.94-5.63.23C690.83,509.86,692.76,508.51,695.52,510.74Z"/><path d="M691.94,570.93c.36-.15.63-.62.84-1.33A2.08,2.08,0,0,1,691.94,570.93Z"/><path d="M610.68,507.22a2.3,2.3,0,0,0,.52-1.54,2.4,2.4,0,0,1-.52,1.49Z"/><path d="M616.53,533.1c-.7-1.23-2.34-2.28-5.5-4.33s-7.73-5-10.07-8.2a9.93,9.93,0,0,1-1.94-5.7,9.85,9.85,0,0,0,1.94,5.76c2.34,3.22,6.91,6.15,10.07,8.2s4.8,3.1,5.5,4.33a2.63,2.63,0,0,1,.38,1.37A2.68,2.68,0,0,0,616.53,533.1Z"/><path d="M589.48,559.63a24.18,24.18,0,0,0,7.61-10.43,30.91,30.91,0,0,0,1.44-9.87,30.93,30.93,0,0,1-1.44,9.82,24.21,24.21,0,0,1-7.61,10.42c-3.39,2.87-7.55,5.09-9.31,6.85a3.24,3.24,0,0,0-1.06,1.83,3.28,3.28,0,0,1,1.06-1.77C581.93,564.72,586.09,562.5,589.48,559.63Z"/><path d="M586.91,493.87v-.05q-.13-1.6-.15-3.12C586.77,491.73,586.82,492.79,586.91,493.87Z"/><path d="M596.39,431.58c-1.82,1.19-2.19,2.29-1.29,3-.82-.71-.43-1.8,1.35-2.92,2.4-1.58,7.32-3.22,12.35-6.44s10.25-8,14.05-11.6,6.21-5.91,8.44-7c2.07-1,4-.89,5,.12-.9-1.12-2.89-1.24-5-.18s-4.63,3.45-8.43,7-9,8.38-14.06,11.6S598.79,430.06,596.39,431.58Z"/><path d="M621.1,449.44A34.31,34.31,0,0,1,608.8,453a95.5,95.5,0,0,1-15.81.11c-3.57-.35-3.63-1-3.57-1.69s.2-1.15,1.69-2.07c-1.55.91-1.69,1.52-1.75,2.12s0,1.35,3.58,1.7a96.49,96.49,0,0,0,15.8-.11,33.76,33.76,0,0,0,12.3-3.58c4.16-1.93,9.31-4.68,12.53-7.55.41-.36.78-.73,1.12-1.09-.33.34-.68.69-1.06,1C630.41,444.75,625.2,447.5,621.1,449.44Z"/><path d="M621.68,461.26v-.11c-1.48,1.29-1.94,2-2,2.48.12-.49.64-1.16,2-2.31,2.23-1.93,6.8-5.27,10.13-7.73s5.51-4.15,7.79-5v.11c2.34-.93,4.74-1.11,5.68.12a2.64,2.64,0,0,1,.43,1.71,2.73,2.73,0,0,0-.43-1.88c-.94-1.18-3.4-1.06-5.68-.12s-4.45,2.57-7.79,5S623.91,459.33,621.68,461.26Z"/><path d="M641.18,763.2c1.29,4,1.82,4.45,2.58,2.58s1.7-6.21,3.1-10.36a42.06,42.06,0,0,1,5.45-11,15.09,15.09,0,0,1,7.61-5.91c3.1-1.12,6.91-1.35,12.06-3.57a56.34,56.34,0,0,0,16.28-11.13c4.62-4.68,7.31-9.89,9.6-16.22a177.82,177.82,0,0,0,5.38-19.79c1.35-6.09,2.17-10.77,2.76-14.23s.87-5.67-1.7-5.5-8.14,2.69-12.77,3.87a25.76,25.76,0,0,1-11,.46c-2.7-.46-4.34-1.11-5-.29s-.35,3.1-.64,6.68a73.78,73.78,0,0,1-3.4,15.28,132,132,0,0,1-9.66,23.24,66.78,66.78,0,0,1-13,16.4c-4.45,4.15-8.78,7.37-10,12.7s.93,12.71,2.22,16.69Z"/><path d="M607.51,836.28c.18,10.36.24,11.53,1.18,11.53s2.63-1.17,5.62-4.45a81.5,81.5,0,0,0,10.59-15.11A88.18,88.18,0,0,0,632.63,808a94.51,94.51,0,0,0,2.58-18.62,97.67,97.67,0,0,0-.64-17.92,79.08,79.08,0,0,0-3.69-15.4c-1.23-3.39-2.23-4.16-3.69-3.28s-3.34,3.34-4.51,6.21-1.58,6.21-3.22,8.78-4.57,4.51-6.91,7.55-4.16,7.27-4.92,19.15-.47,31.44-.23,41.81Z"/><path d="M572.33,843.59c0,1.41.35,2.64,1.4,3.22h.06c1.05.59,2.75.47,5.91-3.68s7.67-12.53,10.95-19.91a87.86,87.86,0,0,0,6.5-19.91,134.88,134.88,0,0,0,1.58-16.51c.35-4.68.82-8.2,3.22-12.65s6.68-9.72,8.84-13.52,2.17-6.21,0-7.09-6.56-.23-10.31.71a22.69,22.69,0,0,0-10.25,4.86c-3.33,2.81-6.9,7.26-10.18,11.36s-6.33,7.9-8.32,13.34-2.87,12.53-2.69,19.44,1.52,13.59,2.34,19.5a113,113,0,0,1,1.17,14.52C572.56,840.67,572.27,842.25,572.33,843.59Z"/><path d="M547.74,784.4a34.42,34.42,0,0,0-1.76,7.9c-.12,1.94.29,2.64,3.45.47a164.21,164.21,0,0,0,13.76-11.53c4.63-4.28,8-7.67,10.54-12.36a42.44,42.44,0,0,0,4.57-16c.41-5.27-.41-9.84-2.93-12.12s-6.73-2.4-11.53-2.11a87,87,0,0,0-13.24,1.76l.06-.18c-3.1.82-3.92,1.7-3.57,3.28s1.82,3.81,2.69,9.31a95.24,95.24,0,0,1,.77,20A40.8,40.8,0,0,1,547.74,784.4Z"/><path d="M647.62,721.52c5.39-6.79,10.25-15.4,14-23a147.3,147.3,0,0,0,8-19.21c1.58-4.92,2-8.08,1.29-10.24s-2.81-3.4-3.87-4.75-1-2.75-1.46-3.92a4.47,4.47,0,0,0-2.93-2.87,13.51,13.51,0,0,0-6.79-.47,24.29,24.29,0,0,0-7.32,3.17,17.45,17.45,0,0,0-6.56,5.73c-2,2.93-3.74,7.5-6.91,12.06a64.59,64.59,0,0,1-13.23,13.47,100,100,0,0,1-16.86,10.77c-5.15,2.52-9.19,3.58-12.88,6.44a34.45,34.45,0,0,0-9.31,12,60.89,60.89,0,0,0-4,11.71h.06c-.82,2.69-1.41,3.69-1.06,5.21s1.58,3.57,4.45,2.52,7.44-5.27,11.3-8.14,7.09-4.45,9.66-5,4.45,0,4.51,1.76-1.76,4.86-3.81,7.14-4.27,3.92-6.49,6.62-4.45,6.61-4.1,7.49,3.22-1.29,6.85-2.52,8-1.58,13.17-2.92a64.86,64.86,0,0,0,17.16-7.5A68.9,68.9,0,0,0,647.62,721.52Z"/><path d="M569.75,687a39.55,39.55,0,0,0-13.06,18c-2.4,7.09-2.69,15.11-2.63,19.74v-.06c0,4.56.35,5.85,2.46,6.32a20.37,20.37,0,0,0,8.72-.53,7.21,7.21,0,0,0,5.51-4.8c1-2.69,1.58-6.85,2.63-9.72s2.69-4.5,6-7.49,8.14-7.26,12.18-10.25a58.64,58.64,0,0,1,10.25-6.2,61.45,61.45,0,0,0,8.19-4.39,34.48,34.48,0,0,0,7.09-7.21c2.22-3,4.45-6.61,4.8-10s-1.23-6.5-3.34-7.67-4.74-.35-8.14.41-7.61,1.41-10.13,3.34-3.33,5.15-4.68,6.91-3.28,2-7.9,3.74S575.72,682.29,569.75,687Z"/><path d="M642.59,639.9c-3.52,4-8.79,8.72-12.42,12.29s-5.62,5.86-6,7.62.76,2.86,2.87,3.33a10.56,10.56,0,0,0,8-1.58c2.7-1.75,4.92-5.09,8.14-7.32s7.44-3.39,11.25-4.21,7.2-1.35,10.83-4.22a32.47,32.47,0,0,0,9.6-14.23,31.18,31.18,0,0,0,.82-18.44c-1.58-5.5-5.15-9.72-9.37-13.76s-9.07-7.9-12.53-12.64a43.3,43.3,0,0,1-6.79-15.64,117.58,117.58,0,0,1-2.28-15.69c-.53-5-1.12-9.72-1.88-11.36s-1.75-.23-2.69,2.17a39,39,0,0,0-2.05,8.43,61.85,61.85,0,0,0-.06,7.44v0a50,50,0,0,0,1.58,14.93c1.88,6.5,5.8,14.29,8.32,21.61a63.24,63.24,0,0,1,3.63,19.14,27.58,27.58,0,0,1-2.29,11.71A34.56,34.56,0,0,1,642.59,639.9Z"/><path d="M631.93,564c-.35-4.57-1.52-5.15-2.69-4.92s-2.46,1.29-4.39,3.28-4.57,4.86-7.62,7.61-6.49,5.39-8.25,8.43a13.12,13.12,0,0,0-1.41,8.49h-.11c.35,2,1,2.52,2,3a5.74,5.74,0,0,1,3.16,2.52c.76,1.52.82,4.09,1.58,9.31s2.16,13.17,2.4,20-.7,12.47-2.87,17.45-5.62,9.19-7.61,12.18-2.46,4.86.58,5,9.66-1.4,14.41-3.57a25,25,0,0,0,10.54-8.72A41.81,41.81,0,0,0,639,629a47,47,0,0,0,.24-20.67c-1.46-7.38-4.63-15-6-23.07S632.28,568.53,631.93,564Z"/><path d="M584.09,650.14c2.58,5.33,5.1,7.32,7.21,8.38s4,1.23,5.68-.94,3.39-6.73,5.32-11.65,4.16-10.31,5.1-16.86a67.36,67.36,0,0,0-.94-21.32,65.27,65.27,0,0,0-5.91-17.21c-2.11-3.92-3.93-5.5-5.21-6.15s-2.17-.41-4.1,1.94l.06-.06a68.49,68.49,0,0,0-13.06,27,38,38,0,0,0-.59,16.28A88,88,0,0,0,584.09,650.14Z"/><path d="M576,605.12c2.1-5.09,3.57-8.61,4.33-12s.76-6.79-.53-8.2-3.86-.82-7.2-1.17a63.79,63.79,0,0,1-9.95-2.4c-2.52-.7-3.4-.76-5.21,1.75v-.05a60.57,60.57,0,0,0-6.33,13.11,54.87,54.87,0,0,0-3,17.92,63.55,63.55,0,0,0,3.45,20.43,57.68,57.68,0,0,0,9,16.28c3.22,4,6.21,6.44,9,7.32s5.33.23,6.2-2.29.06-6.9-1.46-12.53-3.63-12.58-3.34-19.43S573.85,610.27,576,605.12Z"/><path d="M477.65,649.56a27.55,27.55,0,0,0,7.09-2.87c2.81-1.4,6.14-3.16,9.3-3.51s6,.64,8.08,1.05,3.28.24,4.69-1.05,2.93-3.69,6.61-7.5,9.43-9,14.7-14.34a100.74,100.74,0,0,0,13.47-16.28,58.78,58.78,0,0,0,6.79-15.4,96.87,96.87,0,0,0,2.34-12.23c.41-3.28.76-5.57-1.76-5s-7.84,3.92-11.76,5.8-6.44,2.16-9.31,1.64-6.15-1.94-8.14-2.11h.12c-1.94-.18-2.64.88-3.4,3.86s-1.7,7.85-4.1,12.65-6.26,9.48-10.36,15.28-8.38,12.71-13.35,18.21-10.72,9.54-13.76,12.88-3.51,6-2.58,7.5S475.48,649.91,477.65,649.56Z"/><path d="M476.48,620.23A43.35,43.35,0,0,0,486.55,613a62.25,62.25,0,0,0,11.07-14,212.88,212.88,0,0,0,10.24-20.43c2.93-6.44,5.16-11.48,6.09-16.1s.65-9-2.22-10.78-8.2-1.17-11.13-.46-3.28,1.34-5.91,4.68-7.38,9.37-11.13,14.93a100.81,100.81,0,0,0-8.49,15.63,55.18,55.18,0,0,0-4.56,15.69c-.76,5.92-.7,13.06.29,16.4S473.67,621.57,476.48,620.23Z"/><path d="M525.6,564.31a12.64,12.64,0,0,0,8.14,7.32c2.93.7,5.21-.7,8.2-3.16A133,133,0,0,0,552,559c3.45-3.57,6.79-7.32,9.07-12.12a46.7,46.7,0,0,0,4-17.45A115.47,115.47,0,0,0,564,509.1c-.82-6.21-1.87-11.19-3-12.36s-2.29,1.35-2.87,4.45-.59,6.74-1.64,10.6a42.84,42.84,0,0,1-6.27,12.47,61.37,61.37,0,0,1-11.59,12.94c-4.57,3.69-9.78,6.33-12.24,8.32v.05c-2.46,1.94-2.22,3.28-2.22,6.5S524,560.39,525.6,564.31Z"/><path d="M552.42,392.35c-3.1-2.64-6.27-7-8.72-8l-.06-.06c-2.46-1.06-4.28,1.11-5.68,3s-2.4,3.58-5.21,7.44-7.44,9.95-11.89,16.39-8.72,13.24-12.7,20.32a168.9,168.9,0,0,0-10,20.85c-2.4,6.38-3.51,11.65-1.64,12.23s6.85-3.57,12.53-7.43,12.18-7.5,17.68-11.54,10.13-8.49,13.12-10.3,4.27-1,4.22,1-1.59,5.1-3.87,8.08a64.6,64.6,0,0,1-7.67,7.85c-2.22,2.05-3.57,3.34-4,9.54s.12,17.22-.82,27.46a96.35,96.35,0,0,1-6.27,27.23A61.84,61.84,0,0,1,511,533.92c-3.63,4.22-7.08,6.85-5.5,7.5s8.14-.65,15-3.81a62.2,62.2,0,0,0,19.2-13.76,55,55,0,0,0,11.3-19.2,107.19,107.19,0,0,0,5.27-24.36c1.06-9.48,1.58-20.67,1.82-32.9s.23-25.36.82-34,1.75-12.53.76-15S555.58,395,552.42,392.35Z"/><path d="M525.54,367.35a6.68,6.68,0,0,0-7.84.23c-2.75,1.82-5.8,5.45-9.13,9.72v-.12a91.76,91.76,0,0,0-10.49,16.34,156.13,156.13,0,0,0-9.42,25.18,132,132,0,0,0-4.8,25c-.59,7.78-.18,14.87,1.34,19.32s4.16,6.26,5.39,4.92,1.11-5.92,1.05-10.54a99.45,99.45,0,0,1,.77-14.29,100.93,100.93,0,0,1,3.8-15.87,98.17,98.17,0,0,1,7.2-17.27,71.36,71.36,0,0,1,11.95-15.92c4.68-4.63,9.83-8.43,13.11-11.42s4.57-5.09,3.69-7.79S528.24,368.93,525.54,367.35Z"/><path d="M473.49,440.65c1.23,6.56,3.34,8.49,4.8,7s2.41-6.21,3-12,.88-12.53,2.05-18.62,3.34-11.42,5.56-17.1a156.26,156.26,0,0,1,7.73-17.45c3.16-5.85,7.2-11.65,10-16.39s4.39-8.49,3.63-10.66-3.8-2.87-6.67-4.1a55.71,55.71,0,0,1-8.32-5v.11c-2.75-1.87-5.44-3.86-8-5.38s-4.86-2.64-6.79-.24-3.51,8.26-5.39,15.81-4,16.81-4.68,26.23,0,19.09.64,29.51S472.21,434.1,473.49,440.65Z"/><path d="M472.73,331.87c-1.52-2.81-5.33-5.74-7.61-9.14s-3.1-7.14-4-8.9-1.87-1.4-4.27-1.34-6.21-.06-10.42,3.57-8.85,11.06-14.06,19.32A228,228,0,0,1,413,362.55a262.79,262.79,0,0,1-30.91,30.21c-11.71,9.78-24.24,18.85-30.51,24.47l.06-.06c-6.26,5.62-6.26,7.79-1.4,8.61s14.63.29,26-2.75a159.94,159.94,0,0,0,35.48-14.93A155.68,155.68,0,0,0,440.53,387c8.67-7.9,16.92-16.8,22.19-24.82a77.32,77.32,0,0,0,9.13-20C473.38,337.31,474.2,334.68,472.73,331.87Z"/><path d="M551.72,335.09a82.51,82.51,0,0,0,16.45-13.18A150.26,150.26,0,0,0,582,305.81c3.1-4.33,3.86-6.56,1.34-10s-8.31-8.14-12.41-11.3-6.61-4.74-8.72-3.57-3.87,5-8.38,10.65a127.28,127.28,0,0,1-19.61,19.15A86.74,86.74,0,0,1,510,324.37c-8.26,2.87-16.57,3.92-20.73,4.86l-.06.06c-4.15.88-4.15,1.64-.52,4.1a71,71,0,0,0,18.62,8.9,51.46,51.46,0,0,0,23.65,1A62.94,62.94,0,0,0,551.72,335.09Z"/><path d="M551.78,273.49c-2.29-1.81-8.26-3-12.83-5.09a35.77,35.77,0,0,1-9.83-6.85c-2-1.88-2.81-2.81-5.51-.41s-7.2,8.08-12.59,14.28a189.93,189.93,0,0,1-18.67,19.33c-7.15,6.32-15.23,12.17-19.62,15.51h.06c-4.39,3.34-5,4.22-4.27,5.39s3,2.75,7.49,4a58.25,58.25,0,0,0,17.62,2,53.21,53.21,0,0,0,18.21-4.1,63.66,63.66,0,0,0,15.29-9.31,105,105,0,0,0,14.75-14,90,90,0,0,0,8.84-13.12C552.77,277.59,554.06,275.25,551.78,273.49Z"/><path d="M505.05,243.34c-2.75-3.22-4.74-8.08-6.61-10.66s-3.58-2.81-6.8.47-8,10.13-13.46,17.33S466.29,265.12,461,270.92a99,99,0,0,1-15.16,14c-5.68,4.21-12.77,8.49-17.39,11.24l.06-.06c-4.63,2.81-6.79,4-4.22,5.51s9.84,3.22,16.75,3.27,13.52-1.58,20.2-3.39,13.4-3.81,19.08-6.85a53.22,53.22,0,0,0,14.41-11.83c4.21-4.68,8.08-9.89,11.94-14.17s7.67-7.67,9-10.65.23-5.51-2.05-7.62S507.8,246.62,505.05,243.34Z"/><path d="M372.09,293.46c3.68.88,10.42,1.29,18.15,1.34s16.62-.29,24.24-2.22a59.79,59.79,0,0,0,19.73-9.49,133.44,133.44,0,0,0,16.45-14,262.29,262.29,0,0,0,18.21-19.2c5.68-6.85,10.48-13.76,14.28-18.39s6.62-6.91,4.92-7.84-7.9-.47-13.87-.94-11.77-2-15.7-4.16a20.17,20.17,0,0,1-7.2-6.79c-1.17-1.7-1.52-2.28-4.1,1.76s-7.43,12.7-13.93,21.31S418.69,252,411,260.49s-14.93,16.92-22.25,21.78-14.64,6.21-17.91,7.56l.05-.06C367.64,291.17,368.4,292.52,372.09,293.46Z"/><path d="M373.84,344.22a352.67,352.67,0,0,1-27.63,25.18,165.89,165.89,0,0,1-35.43,22.25c-12.76,5.73-26.34,9.36-34.31,11.41s-10.24,2.52-13.52,2.76-7.5.11-10.54,1-5,2.69-3.87,4.27,5.22,3.05,8.08,4.63,4.4,3.45,7.26,5,7,3,12.71,4.33,13.06,2.57,20.32,1.64,14.46-3.93,23.53-8.32A291.07,291.07,0,0,0,350.36,402a253.09,253.09,0,0,0,27.29-20.55,242.72,242.72,0,0,0,24.53-23.07c7.26-8.14,13.29-16.75,18.5-24.06s9.55-13.47,12-17.51,2.93-6-.05-7.26-9.55-1.7-14.11-2.75-7.21-2.58-9.78-3.69-5-1.76-6.56-.94-2.11,3.16-4,7.73a103.69,103.69,0,0,1-9,17.1C385.38,332.69,380.93,337.19,373.84,344.22Z"/><path d="M309.9,356.81c-10.42,9.6-19.14,15.46-29.5,19.14s-22.25,5.1-33.26,6.27l-.06.12c-11,1.17-21.08,2.1-28,4.62s-10.71,6.68-8.25,9.19,11.18,3.34,19.38,3.75a128.94,128.94,0,0,0,25.53-1,222.19,222.19,0,0,0,31.2-7,143.87,143.87,0,0,0,27-11,186.34,186.34,0,0,0,27.29-17.56,202.7,202.7,0,0,0,25.64-23.71,270.15,270.15,0,0,0,18-22.78c4.51-6.21,7.43-10.42,8.37-13s-.23-3.45-3.4-3.74-8.25.05-12.35-1-7.26-3.51-9.6-4.86-3.87-1.64-7.67,2.93-9.84,14.11-18.86,25.47A329.61,329.61,0,0,1,309.9,356.81Z"/><path d="M399.08,503c3-.88,8.49-3.45,14.69-7.61a161.76,161.76,0,0,0,20.61-17,213.92,213.92,0,0,0,20.85-22.84c5.68-7.43,9.31-14,10.18-19.2s-1-9.19-1.93-13.47-.82-8.9-.35-14.4,1.41-11.83,1.46-15.87-.64-5.79-2.63-4-5.21,7.14-6.5,11.83-.64,8.61-1.35,10.6-2.81,2-5,4.68-4.51,8-7.79,14.46a120.7,120.7,0,0,1-14.58,22.37c-7,8.43-16.63,17.74-21.31,23.77S401,485,400.07,488.84s-3.1,8.66-3.86,11.48h.06C395.51,503.13,396.09,503.89,399.08,503Z"/><path d="M447.61,529.82a149.94,149.94,0,0,0,21.14.82,30.57,30.57,0,0,0,13.7-3.16c4.92-2.22,12.18-5.85,17.57-10.13a41.25,41.25,0,0,0,11.53-14.58,92,92,0,0,0,5.8-17,146.77,146.77,0,0,0,3.63-17c.58-4.69.23-7.67-1.41-7.5s-4.62,3.46-7.49,5.92a22.56,22.56,0,0,1-8.73,4.92c-3.16.87-6.79,1.11-9.6,3.27s-4.8,6.21-7.73,10.84a79.32,79.32,0,0,1-12.64,15.28c-5.8,5.5-13.59,11.3-19.09,15.57s-8.84,7.09-10.42,9l.11.12C442.4,528.07,442.58,529.12,447.61,529.82Z"/><path d="M470.21,585.39a136.92,136.92,0,0,1,10-21.61,92.92,92.92,0,0,1,12.65-17.09c4.15-4.45,8-7.61,9.77-10s1.35-4.15,2.7-6.79,4.62-6.09,6.55-9,2.58-5.21,2.17-6.14-1.87-.53-4.27,1.69v.06c-2.4,2.23-5.68,6.27-10.07,9.61a70.88,70.88,0,0,1-14.64,8,57,57,0,0,1-13.35,4.1c-4.28.64-8.67.58-13.06,8.25s-8.84,23.07-11.12,34.14-2.23,17.62-1.64,24.59A165.66,165.66,0,0,0,449,626c1.41,6.5,3,12.06,5,16s4.15,6.27,6.5,7.32,4.68.94,5.5-6.91-.06-23.24.23-33.84S467.81,592.24,470.21,585.39Z"/><path d="M418.46,552.31c-2.17,7.2-3.75,19.08-4.69,29.57s-1.17,19.55.65,29a81.6,81.6,0,0,0,10.3,26.75c4.63,7.38,10,12.24,14.17,14.76s7.14,2.69,8.49,1.81,1.11-2.75.47-4.51-1.76-3.39-3.69-7.72a98.1,98.1,0,0,1-6.38-18.8,90.08,90.08,0,0,1-1.64-24.59,212.8,212.8,0,0,1,3.39-26c1.41-7.62,2.76-13.18,4.51-17.69s4.1-7.9,5-11,.29-6-2.52-7.38-7.84-1.17-10.71-1.87a6.6,6.6,0,0,1-4.39-3.34,4.82,4.82,0,0,0-2.29-1.93c-.76-.3-1.58-.3-2.1,1.52h.11c-.47,1.81-.64,5.44-2.16,8.55S420.68,545.11,418.46,552.31Z"/><path d="M218.22,794c4,.06,8.43-2.4,11.94-4.56s6.21-4,9.72-5,8-1.17,13.11-3.81,10.89-7.73,17.92-12.06,15.28-7.73,25.65-15.69,22.95-20.32,32-31.73,14.7-22,21.72-32.91,15.4-22.13,24.48-35.66,18.79-29.39,23.77-39.58,5.09-14.87,6.5-24.41,4-24.07,6.09-32.15,3.57-9.71,5-11.94,2.76-5,1.59-8.26-4.81-6.85-5.39-9.13,1.87-3.28,7.49-5.27,14.35-5,21.73-8.25a61.17,61.17,0,0,0,19.2-12.77c5.91-5.85,11.89-13.93,15.87-19s5.91-7,5.79-9.48-2.46-5.45-5.09-8.9-5.62-7.44-8.08-7.5-4.45,3.69-8.61,8.73a213.66,213.66,0,0,1-16.74,17.33c-6.33,6-12.77,11.77-19.38,17.33s-13.35,10.83-18.21,13.52-7.85,2.87-10.13,2.81-4-.41-7,6H389c-3.05,6.45-7.5,19.62-15,35.49s-18.09,34.31-34.55,62.35-38.93,65.64-53.28,88.76S265.58,740,259.14,748.16s-13,15.92-18.56,21.54-10,9.08-15.34,11.89-11.65,5-13.06,7.32S214.23,793.94,218.22,794Z"/><path d="M162.3,796.75c7.26-3,15.16-6.26,22.78-10.24a200.73,200.73,0,0,0,22.6-14c7.73-5.45,16-11.71,29.86-28.05s33.31-42.74,53.92-74.59,42.39-69.15,57.91-97,24.76-46.37,31.32-61.18,10.54-26.06,9.25-28.4-7.9,4.27-14.17,8.72a44,44,0,0,1-17.33,7.73c-5.09,1-9.42.65-11.24-1.46s-1.17-6.09,1.35-8.9,6.79-4.45,12.23-5.62,12.07-1.82,19.33-6.09,15.16-12.24,22.77-20.61,14.87-17.33,20.79-24.77,10.54-13.35,14.64-18.91,7.61-10.77,12.06-18.09,9.72-16.69,9.42-17.92-6,5.68-11.06,11.77-9.31,11.36-14.87,16.1a87.55,87.55,0,0,1-18.74,11.89c-6.44,3-12.53,5-15.69,7.67s-3.28,5.91-6.33,10.65-9,10.83-14.75,16.57-11.36,11.24-17.92,17-13.93,11.89-18.67,17.92-6.8,12.06-17.22,30.8l.06.11c-10.42,18.68-29.22,50-44.61,77.93S252.76,648,239.06,673.21,209.84,724.5,199.13,741s-16.69,23.42-25.41,32.5-20.32,20.32-22.78,24.59S155,799.74,162.3,796.75Z"/><path d="M156.09,681c-5.32,18.56-5.85,41.28-6.26,57.15s-.76,24.76,4.1,20.78,14.93-20.78,23.18-33.9,14.7-22.54,23.36-34.08,19.56-25.23,34.32-48.77,33.37-56.85,49.06-81.68,28.4-41.16,36.07-51.81,10.36-15.63,9-17.68-6.61-1.23-11.06-2.17A20.11,20.11,0,0,1,307,482.05c-2.81-3.22-4.8-7-3-8.08s7.44.58,14.35,1.34,15.16.59,20.43-.58,7.55-3.28,11.12-7.09,8.32-9.25,12.94-14.75,9.08-11.18,12.77-15.28,6.67-6.79,3.69-7.44-11.89.7-17.74,1.76-8.67,1.87-13.94,6.09-13.06,11.82-19.91,16.51-12.82,6.5-17.09,6.67-6.91-1.34-4-4.8,11.3-8.9,17.21-13.58,9.37-8.67,11.36-12.24,2.52-6.67-1.87-5.85-13.59,5.62-19,8.25-7.09,3.16-13.18,13.12S284.44,475.55,272.78,495s-24.35,38.93-39.69,62l.11.18c-15.34,23.12-33.31,49.82-47.42,70.37S161.48,662.44,156.09,681Z"/><path d="M465.2,720c-.85-.58-1.59-1.12-2.19-1.5C463.61,718.85,464.35,719.38,465.2,720Z"/><path d="M423.67,752.43c2.16-.94,6.15-1.23,10.24-3.63S442.35,742,445.62,737a49.73,49.73,0,0,0,6.62-14.28c1-3.93.64-6.21,2.05-8.61a11.39,11.39,0,0,1,8.31-5.27c3.81-.41,8.26,1.23,12.65,1.58a15.13,15.13,0,0,0,12.76-5c4.16-4.27,8.08-11.88,9.84-18.2s1.23-11.48,1.87-14.29,2.46-3.28,4.22-2.4a5.51,5.51,0,0,1,1.24.93,5.34,5.34,0,0,0-1.3-1c-1.76-.88-3.57-.41-4.21,2.4s-.12,8-1.88,14.29-5.74,13.93-9.83,18.21a14.78,14.78,0,0,1-12.77,5c-4.39-.35-8.84-2-12.65-1.58a11.52,11.52,0,0,0-8.31,5.27c-1.4,2.4-1.05,4.74-2.05,8.61A51.35,51.35,0,0,1,445.57,737c-3.28,4.92-7.62,9.37-11.71,11.77s-8.08,2.7-10.25,3.63-2.46,2.4-.88,3.81h0C421.22,754.8,421.53,753.3,423.67,752.43Z"/><path d="M453.76,759c3.34-1.58,5.51-2.87,8.2-4.16s6-2.52,8.25-4.21h.06c2.23-1.7,3.4-3.87,5-4.8s3.51-.71,5.5-1.47,3.93-2.57,5.92-3.39,3.87-.65,4.76.2l0,0c-.82-.88-2.81-1-4.8-.23s-3.92,2.63-5.91,3.39-3.93.53-5.51,1.47-2.75,3.1-5,4.8-5.5,2.93-8.25,4.21-4.86,2.58-8.2,4.16-7.84,3.4-10.24,5.74a8.21,8.21,0,0,0-1.42,1.89,8.15,8.15,0,0,1,1.42-1.83C445.86,762.39,450.43,760.57,453.76,759Z"/><path d="M441.23,772.75v-.06h-.06c.26,2.42,1,4.79,2.43,5.65C442.24,777.42,441.54,775.13,441.23,772.75Z"/><path d="M493.44,782.67c1.7-1.4,3.32-2.94,4.79-4C496.76,779.7,495.14,781.25,493.44,782.67Z"/><path d="M495.86,791.43a29.6,29.6,0,0,1-11.42,1.05c-2.57-.35-2.63-1.23-2.57-2.05a3.28,3.28,0,0,1,.14-.83,2.88,2.88,0,0,0-.2.95c-.06.82-.06,1.7,2.57,2.05a29.8,29.8,0,0,0,11.42-1.06,11.71,11.71,0,0,0,7-6,.25.25,0,0,1,0-.07A11.73,11.73,0,0,1,495.86,791.43Z"/><path d="M789.43,276.36a250.58,250.58,0,0,0-13.82,31.56c-2.93,8.55-2.34,10.66,0,16.75s6.5,16,10.42,24.35a221.39,221.39,0,0,0,11.83,21.61c4.1,6.61,8.43,13.11,11.77,17s5.5,5.09,7.26,3.68,3-5.44,3.69-11.35a188.66,188.66,0,0,0,1-20.61,127.58,127.58,0,0,0-.82-18.1c-.7-5-1.93-9-.58-12.64s5.33-6.91,9.07-13.18,7.32-15.51,9.31-22,2.52-10.07,2.23-12.41-1.35-3.4-3.75-5a41.25,41.25,0,0,0-12.3-5.33c-6.2-1.7-14.87-3-19.61-3.81s-5.56-1.05-7.2-.52l.06.11C796.4,267,793.94,268.28,789.43,276.36Z"/><path d="M863,292.93a27.65,27.65,0,0,1-7.61-4.33c-2.17-1.76-3.69-3.87-5-4.74s-2.4-.65-2.93,1.34l-.06-.06c-.52,2.05-.52,5.8-1.46,10.07a54.47,54.47,0,0,1-4.8,12.89c-2.11,4-4.51,7.2-6.85,11.12a61.88,61.88,0,0,0-6.09,13.17c-1.41,4.63-1.87,9.25-.94,12.24a7.92,7.92,0,0,0,5.33,5c1.87.52,3.1.23,3.92-.94s1.23-3.16,2.17-5a12.66,12.66,0,0,1,3.87-4.68c1.52-1.05,3.16-1.46,6.08-4.27a96.93,96.93,0,0,0,10.6-13.3,109.43,109.43,0,0,0,8.61-15c1.93-4.4,2.75-7.73,1.76-9.78S865.78,294,863,292.93Z"/><path d="M905.12,290.88c-2.34,3.51-5,6.38-7.14,7s-3.63-1-5.68-3.16-4.68-4.75-6.67-6.8-3.34-3.45-4.1-2.46-1,4.34-1.82,6.5-2.1,3.11-2.63,4.69a8.45,8.45,0,0,0,.35,5.5l.12.06c.64,1.58,1.7,2.4,3.86,3.92a54.52,54.52,0,0,1,8.73,7.26,45.91,45.91,0,0,1,9.13,13.88c2.34,5.62,3.57,12.06,4.68,16.1s2.11,5.74,3.22,5.39,2.35-2.64,4.34-9.37,4.68-17.86,6.09-25.06,1.46-10.54.87-16.39a158.77,158.77,0,0,0-3.16-19.68c-1.29-5.44-2.69-7.84-3.39-7.2s-.71,4.22-1.64,8.14A39.58,39.58,0,0,1,905.12,290.88Z"/><path d="M891.48,329.7c-3-4.86-6.91-10.36-9.66-14.4s-4.39-6.56-6.09-7.32-3.39.29-5.44,3.57-4.34,8.72-7.91,14.64a174.34,174.34,0,0,1-12.7,17.68c-4.22,5.33-7.85,9.54-10,14.34a41.07,41.07,0,0,0-2.86,13.88l-.06.06c-.18,3.57.06,5.33,1.81,9.84a97.27,97.27,0,0,0,8.73,17.5c3.74,5.62,8,9.49,10.89,10.42s4.21-1,5.38-6.5a144.42,144.42,0,0,0,2.29-22.65c.23-8.2-.3-15.52.46-21.14s2.7-9.49,4.28-8.84,2.75,5.85,3.22,12.76a210,210,0,0,1,0,22.72c-.35,7.14-.82,12.71-1.82,17.1s-2.51,7.49-2.16,8.84,2.52.82,5-1.41a39.75,39.75,0,0,0,7.62-10.42c2.28-4.22,4.09-8.78,6.67-14.17s5.86-11.65,7.61-19a62.29,62.29,0,0,0,.88-22.19C896.64,338.66,894.47,334.5,891.48,329.7Z"/><path d="M953.9,189.41c-.82.18-1.23,4-3.16,10a77.58,77.58,0,0,1-10.37,21,61.71,61.71,0,0,1-15.92,15.16c-4.51,2.81-7.15,2.93-9.55,3s-4.56.17-3.92,5.21,4,15,6,21.43l-.06-.06A72.79,72.79,0,0,1,920.47,281a237.7,237.7,0,0,1,1.87,24.88c.12,8.2-.76,14.52-.53,17.92s1.47,4,2.23,3.16,1.11-3.05,2.05-5.21A22.63,22.63,0,0,1,931,315c2.4-2.4,5.5-5,8.6-9.83s6.15-11.71,8.84-19.73a153.32,153.32,0,0,0,6.44-27.35,280.52,280.52,0,0,0,2.29-32.26,232.77,232.77,0,0,0-.47-26.58C956,192.69,954.72,189.24,953.9,189.41Z"/><path d="M979.13,185.49c-2.34,2.87-4.1,5-4.56,9.78s.35,12.41,1,20.32,1.17,16,2.34,22.66,3.1,11.76,5.5,14.75,5.39,3.92,8.14,3.57,5.33-1.87,7.67-5.15,4.51-8.2,6.21-14.11a85.86,85.86,0,0,0,3.4-20.26,144.38,144.38,0,0,0-1.35-24.47c-1.11-8.79-2.75-18.21-3.87-24.65s-1.69-9.9-2-13.82-.29-8.32-1.11-9.43-2.46.94-3.39,3.16a27.42,27.42,0,0,0-1.47,6.91,24.89,24.89,0,0,1-2.05,7.32l.12.06a87.47,87.47,0,0,1-6.62,12.47A119.89,119.89,0,0,1,979.13,185.49Z"/><path d="M1029.78,137.83c-1.11-3-1.93-3.75-5-1.58a78.37,78.37,0,0,0-11.59,11.13c-3.1,3.8-4,6.26-4.16,8.13l-.11-.11c-.12,1.87.58,3.1,2,7.61a112.25,112.25,0,0,1,4.81,21.08,133.14,133.14,0,0,1-.06,26.87c-.82,8.14-2.23,14.46-3.28,20.61s-1.82,12.12-.7,14.17,4.09.29,6.79-2.87a38.32,38.32,0,0,0,6.85-13.11c1.81-5.57,2.93-12.12,4.27-18.74s2.81-13.17,3.75-18.91a90.05,90.05,0,0,0,1.35-17.22,172.49,172.49,0,0,0-1.47-21.78A78.5,78.5,0,0,0,1029.78,137.83Z"/><path d="M1032.65,219.86c-1.41,4.27-2.17,5.39-2.46,7.55s-.24,5.27-1.52,8.26-3.93,5.8-4,7.08,2.4,1.17,4.51-.11,3.87-3.69,6.21-4.63,5.44-.47,9.25-5,8.31-14.23,11.65-25.12a166.51,166.51,0,0,0,6.27-34.49,173.38,173.38,0,0,0-.36-31.85c-1-9.54-2.86-17.92-4.39-21.78s-2.87-3.28-4.27-1.58-2.75,4.62-4.8,7.2a22.42,22.42,0,0,1-7.32,6.09c-2.69,1.29-5.39,1.58-6.32,2.52s-.12,2.4,1.17,8.72l-.12-.06a179.32,179.32,0,0,1,3.57,28,136.31,136.31,0,0,1-2.11,29A151.2,151.2,0,0,1,1032.65,219.86Z"/><path d="M961.45,262.31c-1.46,7.08-3.34,13.7-5.62,21.37s-4.92,16.39-6,22.6a28.49,28.49,0,0,0,.58,14.4c1.29,4.57,3.4,10.13,5.1,16.57a85.12,85.12,0,0,1,2.75,21.08c-.06,7.2-1.29,14.11-2.46,20.73s-2.22,12.88-3.69,18.91a139.17,139.17,0,0,1-5,16.1c-1.64,4.27-3,7.09-2.46,8.31s3.16.94,6.73-2.16,8.2-8.84,13.41-17.22a250.6,250.6,0,0,0,14.69-28c3.69-8.55,5.39-14.58,6.33-21.26a103.39,103.39,0,0,0,.64-21.48,107.83,107.83,0,0,0-3.86-21.43,69.61,69.61,0,0,0-7-16.22c-2.69-4.63-5.79-8.67-7.2-12.36a12,12,0,0,1,.64-10.48c1.76-3.39,5.1-6.79,6.33-11.24s.41-10-.7-18.79-2.52-20.85-3.17-30.33-.58-16.39-1-20.2-1.35-4.45-3.28-6.38a92.56,92.56,0,0,0-6.73-6.38c-1.7-1.23-2-.47-1.35,3.45l-.12-.06c.65,4,2.29,11.13,3.46,21.37a286.39,286.39,0,0,1,1.64,34A135,135,0,0,1,961.45,262.31Z"/><path d="M986.16,376.66a124.78,124.78,0,0,1-9.49,19.49A154,154,0,0,1,965.2,412.9c-3.34,4.16-5.68,6.21-4.39,6.91s6.14-.06,11.35-2.87,10.84-7.67,16.4-14.46a115.4,115.4,0,0,0,15.28-25.06,129.23,129.23,0,0,0,9.54-32,223.5,223.5,0,0,0,2.64-38.76c-.06-13.93-1-28.81-1.35-38.17s-.23-13.35-1.4-15.34a3.24,3.24,0,0,0-5.21-.47c-1.47,1.52-1.88,4.56-4.28,6.85s-6.79,3.74-10.24,4.1a32.8,32.8,0,0,1-7.62-.47c-1.58-.12-2.28.35-4,3.57l-.06-.06a69.59,69.59,0,0,0-5.5,12.59c-1,3.57-.18,4.8,1.64,6.61a28.84,28.84,0,0,1,7.2,10c2.58,5.79,4.86,14.93,6.09,25.41a156.61,156.61,0,0,1,.47,31.79A85.92,85.92,0,0,1,986.16,376.66Z"/><path d="M1043.36,319.45a308.11,308.11,0,0,0,6.33-38.17c1.22-13.53,1.4-27.87,1.46-35.77s0-9.31-1.58-7.62-4.63,6.5-9.14,9.31-10.42,3.63-14.34,5.86a14.63,14.63,0,0,0-6.62,8.31l.06.06c-.82,2.4-.47,3.63.12,5.91s1.4,5.63,1.87,15.17.65,25.41,0,38.17a190.23,190.23,0,0,1-4,30.86,180.85,180.85,0,0,1-6,21.14,85.3,85.3,0,0,1-6.15,14.4c-2.11,3.63-4.33,6-3.86,7.2s3.63,1.17,7.49-2.22,8.49-10.31,12.88-17.39a140.93,140.93,0,0,0,12.24-23.54A226.76,226.76,0,0,0,1043.36,319.45Z"/><path d="M905,435.62c-2.81,9.42-5.86,16.22-5.8,18.62s3.28.41,8.78-4a89.81,89.81,0,0,0,19.79-21.13c6.56-10,12-23.19,15.7-34.84s5.91-21.84,6.44-31.44A130.81,130.81,0,0,0,948.16,336c-1.23-8-2.64-15-4.22-17s-3.28.76-7,3.8a105.91,105.91,0,0,1-12.48,8.2c-3.22,1.87-4,2.28-4.8,5.09h-.05c-.77,2.87-1.53,8.14-3.69,14.11s-5.68,12.65-7,17.69-.29,8.31.76,13.7a82.2,82.2,0,0,1,1.35,22.71A163.41,163.41,0,0,1,905,435.62Z"/><path d="M899.62,376.19c-1.76,1.23-2.75,4.21-4.51,9s-4.33,11.24-7.32,16.1a68.29,68.29,0,0,1-8.19,10.24c-1.88,2.23-2.23,3.34-2.29,4.69l.06.12c-.11,1.28.06,2.81-.35,8.78s-1.4,16.45-2.87,23-3.34,9.19-4.68,12.12-2.11,6.15-1.76,7.79,1.76,1.69,2.87.87,1.93-2.57,2.93-3.63,2.16-1.52,4.33-2.05a35,35,0,0,0,8-2.57,16.88,16.88,0,0,0,6.5-6.5,45,45,0,0,0,5-11.42A97.69,97.69,0,0,0,900,427.13c.76-6.68,1.58-15.34,2.64-24.18s2.4-17.92,1.81-22.72S901.38,375,899.62,376.19Z"/><path d="M823,403c-.35,3.93.23,5.22,2.57,8.85a156.06,156.06,0,0,1,10.31,17A198.49,198.49,0,0,1,845.58,452a78.06,78.06,0,0,1,4.1,15.52c.88,5.21,1.58,11.94,2.05,17.1s.64,8.89,1.46,9.83,2.46-1,3.92-5,2.87-10.12,4.28-19.55,2.69-22.25,3.69-31.15,1.64-13.93,1-16.1-2.63-1.41-5.27-1.93-5.91-2.34-9.54-5.51A71.08,71.08,0,0,1,841,403.41a31.94,31.94,0,0,1-5.68-12.58c-1-4.86-1.17-10.95-1.75-15.17s-1.7-6.5-2.87-7.43-2.4-.41-3.22,2.81l.06-.12c-.82,3.22-1.23,9.13-2,15.4S823.39,399.08,823,403Z"/><path d="M862.85,584.51c-.35,5.74,2,9.78,4.8,11.65s6.09,1.64,9.43-1.75,6.62-10,8.78-18.39A111.49,111.49,0,0,0,889,547.68a139.59,139.59,0,0,0-3.39-28.16,124.39,124.39,0,0,0-7.79-24,82.53,82.53,0,0,0-9.07-15.22c-2.17-2.81-2.87-2.87-3.69-.64l-.12.06c-.88,2.28-1.93,6.9-3.86,10.94s-4.75,7.5-5.39,10.13.94,4.45,3.28,10a133.83,133.83,0,0,1,7.2,24.24c1.81,9.48,2.4,19.2,1.17,27.81S863.2,578.77,862.85,584.51Z"/><path d="M890,606.58c3.8.82,9.13.76,13.23-3.16s7.09-11.71,9.78-22.66a244.43,244.43,0,0,0,5.91-38.17,153.53,153.53,0,0,0-1.64-36.07c-1.87-11.24-4.91-21.95-6.55-29s-1.94-10.31-2.4-13.17-1.18-5.27-3.93-4.81S897,463.49,893,465.89a39.92,39.92,0,0,1-10.08,4.45c-2.75.76-5,.93-6.44,2.16a5.67,5.67,0,0,0-1.58,5.33c.53,1.76,2.17,3,4,5.39s3.81,6,6.5,12.18l-.11-.06a125.67,125.67,0,0,1,7.9,24.06c1.82,9,2.11,18,2.17,26.82s0,17.62-1.64,25.88a101,101,0,0,1-7.2,21c-2.29,4.92-3.69,7.08-3.22,9S886.15,605.76,890,606.58Z"/><path d="M927.43,519.93c1.88,19.56,3.69,41,6.44,54.8s6.33,19.91,11.24,26.82a146.56,146.56,0,0,0,17.8,21.25c6.85,6.62,14.47,12.06,17.92,12.47s2.81-4.21,1.41-8.84-3.58-9.25-4.81-14.52S975.85,600.67,973,588s-8.31-32.14-12.06-50.7A477.27,477.27,0,0,1,954,487.38c-1.23-13.71-1.75-23.42-2.28-31.45h-.06c-.58-8-1.23-14.28-.64-19.14s2.4-8.32,1.81-9.43-3.57.24-7.67,3.28a166.42,166.42,0,0,0-14.46,12.71c-5,4.86-9.83,9.83-11.3,13.46s.35,5.92,2.23,15.93S925.5,500.37,927.43,519.93Z"/><path d="M994.53,636.44c1.64,2.58,2.46-2.75,4.68-9.42a174.66,174.66,0,0,1,8.26-19.62c2.4-4.86,3.57-6.5,3.57-10.48s-1.17-10.24-3.57-25.23-6-38.76-9.07-61.07-5.51-43-6.86-57.55-1.52-22.78-1.93-27.64-1.05-6.32-3.63-5.45-7.14,4.16-11.77,6.15a39.88,39.88,0,0,1-12.12,2.93c-2.81.23-3.8.06-3.1,7.38l-.06-.06c.76,7.32,3.22,22.25,4.69,38.11s2,32.68,3.8,49.19A375.52,375.52,0,0,0,976,571.22c3.63,14.87,7.73,28.4,11.07,40.34S992.89,633.93,994.53,636.44Z"/><path d="M1030.36,635.45c3.69,14.28,7.32,26.58,12.06,40.69s10.6,30,16,44.62,10.25,27.75,14.75,36.06,8.73,11.65,14.06,10.89,11.65-5.73,15-10,3.93-7.67,2-12.24-6.09-10.24-13-22.07a424.74,424.74,0,0,1-24.65-48,366.76,366.76,0,0,1-17.86-54.16c-4.28-17.1-7.09-32.61-9.72-48.66s-5-32.49-6.5-49.06-2-33.26-2.81-48.42-1.64-28.87-2.58-42.92h-.06c-.93-14.05-1.93-28.4-3.16-35.48s-2.75-6.91-5.56-4.51-7,7.14-11.42,11.13-8.9,7.2-10.24,10.54.47,6.79,2.11,16.39,3.16,25.35,4.91,42.1,3.87,34.48,6.5,54,5.86,40.81,9.31,59.6S1026.73,621.1,1030.36,635.45Z"/><path d="M985.05,679.77c-5.1,6.79-10.25,13.53-17.74,21.84q-1.51,1.67-3.14,3.41l-58,70.13c8.23-5,17.06-9.72,26.2-14.29,15.34-7.67,31.5-14.93,42.1-21.43s15.51-12.29,20.61-20.72A127.55,127.55,0,0,0,1009.29,685a215,215,0,0,0,6.49-45c.41-13.29-1-22.37-3.22-24.36s-5,3.16-7.67,10.07-5.38,15.69-8.66,25S989,669.88,985,679.77l-21.38,25.85.56-.6Z"/><path d="M985.05,679.77,964.17,705q1.62-1.74,3.14-3.41C974.8,693.3,980,686.56,985.05,679.77Z"/><path d="M564.71,949.16c.59,3.4,1.47,9.19,1.94,12.65s.41,4.62,5.5,4.27,15.22-2.28,20.79-3.39,6.55-1.41,6.5-4.28a48.34,48.34,0,0,0-2.23-11.53c-1.11-3.28-2.28-4.51-7.85-4.69a121,121,0,0,0-20.43,1.7v-.06C564,944.77,564.19,945.76,564.71,949.16Z"/><path d="M559.09,1053.91a31.75,31.75,0,0,0-7.2,11.12c-1,3-.47,4.39,3,7.85s9.72,9,16,14.58,12.77,11.3,16.22,14.46,3.86,3.86,7.2,4,9.6-.06,12.06-1.35,1.17-3.69-.82-8.61-4.62-12.35-7.61-18.67a72,72,0,0,0-10.3-16.4A127.79,127.79,0,0,0,576,1049.28c-2.82-2.58-3.64-3.4-6.27-2.46v-.06A32.77,32.77,0,0,0,559.09,1053.91Z"/><path d="M403.12,1041.79a44.35,44.35,0,0,0,10.13,8c3.86,2.34,7.31,3.63,14.75,3.22s18.79-2.58,26.87-4.39,12.89-3.34,18.16-7.44A75.49,75.49,0,0,0,487,1026c2.87-4.28,2.87-6.09-1.58-6.44s-13.35.82-24.42,2.28-24.24,3.34-34.48,5.8-17.45,5.62-21.26,7.9h.06C401.48,1037.92,401.13,1039.39,403.12,1041.79Z"/><path d="M320.09,1076.74a139.46,139.46,0,0,0,30.51-1.4c6.85-1,10.42-1.64,11.36-3.81s-.88-5.8-2.87-10.07-4.16-9.19-6.44-11.36l.06-.12c-2.35-2.1-4.81-1.46-12.89-1.64a186.86,186.86,0,0,1-35.3-4.09,122.83,122.83,0,0,1-39.58-15.93c-12.71-8-24.71-19-35.37-26.06s-19.84-10-29.51-10.89a75.86,75.86,0,0,0-27,2.41c-7.26,2.16-11.71,5.26-14.11,12.29s-2.69,17.92,1.41,24.36,12.7,8.43,15.75,5.79.58-9.89.64-14.69,2.7-7.09,7.5-8.08,11.71-.7,19,5.09,15.1,17,26.64,26.41,26.87,17,43.15,22.36A199.49,199.49,0,0,0,320.09,1076.74Z"/><path d="M532.81,980.43l.11-.12a104.66,104.66,0,0,0,16.51-8.9c3.63-2.46,3.46-3.16,2.29-4.69a15.54,15.54,0,0,0-8.08-5.67c-4.8-1.64-12.24-2.46-22-3.17s-21.78-1.17-38.12-3.8-36.94-7.44-54.1-14.17A162.29,162.29,0,0,1,387,915c-11.65-9.43-21.2-19.5-30.8-28S337,871.29,327.53,867.19s-18.91-5.27-31.21-3.22-27.46,7.32-32.08,9.89,1.34,2.41,10.53,2,21.79-.82,33.09,2,21.37,8.9,32.08,18.33,22.13,22.13,34.55,33a198.33,198.33,0,0,0,40.69,27.46,258.58,258.58,0,0,0,45.14,17.69,230.08,230.08,0,0,0,37.76,7.72,130.54,130.54,0,0,0,21,.59C523.91,982.53,527.36,982.53,532.81,980.43Z"/><path d="M510.56,993.31c-4-1.47-12.12-2.46-23.07-4.69a295,295,0,0,1-40.58-11.3,397.9,397.9,0,0,1-47.77-20.84c-14.35-7.5-25.42-14.76-35.49-23.42s-19.14-18.74-29-27.58-20.37-16.39-25.88-18.91-6,.18-3.39,5.27,8.43,12.7,18.73,24.06,25.18,26.59,38.94,41.34,26.46,29.1,36.88,37.53,18.51,10.89,29.92,11.89,26.29.46,39.94.05,26-.76,33.25-2,9.43-3.63,10.48-5.8v.06C514.6,996.76,514.6,994.83,510.56,993.31Z"/><path d="M125.94,865.84a210.81,210.81,0,0,0,53.4-3c21.43-3.92,47.48-11.65,71.66-19.26s46.43-15,67.22-24.48a317.18,317.18,0,0,0,54-31.26c13.94-10.25,22.54-19.15,26.88-25.53s4.5-10.19,3.57-11.18-3.16.87-9.84,4.91h-.06c-6.67,4-17.91,10.31-28.1,16.46s-19.5,12.06-31.68,18.15-27.4,12.35-42.21,18-29.39,10.54-42.92,14.76S221.85,831,208.32,834.4s-28,6.68-43,9.49-30.27,5.09-46.66,5.38-33.78-1.46-39.87.18-.94,6.56,8.6,10S110.66,864.91,125.94,865.84Z"/><path d="M134.84,892.13c12.35,1.06,27.87.12,46.49-3a472.82,472.82,0,0,0,57-13.53c16.57-5.09,28-10,42.56-15.4s32.44-11.18,50.59-18.5,36.59-16.27,50.06-22.77,21.84-10.66,27.87-16.75,9.66-14.23,9.84-20.55-3.17-11-5.8-11.53-4.63,2.92-10.54,8.43a215.74,215.74,0,0,1-26.41,20c-10.59,6.85-21.78,12.94-40.69,21.2s-45.43,18.62-72,27.05-53.11,14.87-73.07,19.14-33.38,6.44-53.23,6.56-46.25-1.7-52.87,0,6.5,7,17.63,11.24S122.54,891,134.84,892.13Z"/><path d="M179.22,921.23c12.88-2.46,26.23-6.09,42-10.77S255.1,900,268.28,895.7s21.48-7.08,25.58-9.25,4.1-3.63-1.81-4.27-17.86-.47-25.18-.88-10.19-1.4-21.14,1.05-30.09,8.38-49.06,13.35-37.77,8.9-58.79,9.08v.06c-21,.17-44.26-3.4-44-.47S118,916.78,136,920.88,166.4,923.69,179.22,921.23Z"/><path d="M144.21,942.72c15.51,2.46,34.13,1.46,53-.82a438.21,438.21,0,0,0,54.51-10.25c16.46-4.27,30.33-9.25,40-12.29s15.11-4.22,17-6.27.24-5-1.23-7.9-2.81-5.68-6.9-6-11,1.81-23.66,5.79-30.91,9.72-50.23,15-39.58,10.07-58.2,11.19-35.54-1.47-46-2.52-14.41-.59-10.25,2.58h-.06C116.4,934.35,128.69,940.26,144.21,942.72Z"/><path d="M234.32,957.71c17.74-3.4,38.29-8,52.93-12.06s23.3-7.44,29.56-9.49,10-2.69,10.19-5.27-3.34-7-5.8-9.25-4-2.22-12.11.65-23,8.6-43.1,13.87a445,445,0,0,1-70,12.12c-24.42,2.11-47.72,1.58-56.8,2.81V951c-9.07,1.29-3.8,4.34,6.44,7.09a171.09,171.09,0,0,0,40.75,5.15C201.53,963.39,216.52,961.1,234.32,957.71Z"/><path d="M410,814.26c-4.34,1.52-12.24,6.62-21.32,11.71s-19.32,10.13-30.38,15.22-23.07,10.31-29.16,13.24l-.06.05c-6.09,2.93-6.38,3.58-4.63,5.45a53.6,53.6,0,0,0,8,6.5c2.51,1.58,3.86,1.76,9.13-.18s14.52-6,23.19-10,16.74-8,24.47-11.18,15.22-5.74,19.61-7.5,5.86-2.87,6.5-6.2a51.09,51.09,0,0,0,.18-12.77C415.12,814.79,414.36,812.74,410,814.26Z"/><path d="M352.41,877.55a89.92,89.92,0,0,0,6,7.26c1.76,1.94,2.52,2.64,8.2.59s16.34-6.73,25.53-10.83,17-7.67,21.95-9.66,7.21-2.4,7.44-5S420,852.55,419,849.27s-.93-5.09-7.73-2.92-20.37,8.37-31.61,13.58-20,9.43-24.42,12v-.06C350.89,874.45,351,875.45,352.41,877.55Z"/><path d="M428.94,875.09c-1.12-2.4-1.64-3.74-6.91-2s-15.34,6.5-24.36,10.95-16.92,8.61-20.67,11.13h.06c-3.75,2.51-3.34,3.39-.41,6.14s8.37,7.26,12.53,8.67,7.09-.35,14-3.51,17.85-7.79,24.88-10.54,10.07-3.57,10.3-5.15-2.28-4-4.45-6.91A56.39,56.39,0,0,1,428.94,875.09Z"/><path d="M288.94,1002.5c6.09-2.4,12.88-7.85,21.37-8.61s18.74,3.22,26.41,11.07,12.76,19.55,19.56,33.84,15.16,31.09,23.59,43.21,16.81,19.56,26.7,24.18,21.31,6.44,33.49,6.91,25.24-.35,38.7-4.27a125,125,0,0,0,39.7-20.56c12.35-9.48,23.24-21.37,31.27-30.21s13.11-14.58,21.25-19.2,19.38-8.08,30.62-10.95,22.43-5.21,34.25-5.91,24.18,0,34,3.16a61.12,61.12,0,0,1,20.36,11.14l.12.09c.72.58,1.4,1.15,2.06,1.71,5.45,4.62,9.08,8.6,11.71,6.26s4.28-10.89,4.69-18.32a43,43,0,0,0-.67-11.17,1.16,1.16,0,0,0,0-.18,39.8,39.8,0,0,0-3.68-10.08,70.81,70.81,0,0,0-21.14-24.24c-10.07-7.26-23.13-12.53-38.76-15.17s-34-2.63-52.11-.17-36.13,7.43-50.88,17-26.29,23.77-37.18,36.3a413.6,413.6,0,0,1-29.63,31.26c-8.48,7.85-15.28,12.65-25.46,13.47s-23.95-2.28-34.55-7.26-18.21-11.71-24.18-23.36-10.25-28.11-15.28-39.76-10.83-18.38-20-22.77-21.72-6.33-34.66-4.63-26.29,7.2-34.49,14.17S275,995,276.18,999.63,282.85,1004.9,288.94,1002.5Zm130.4,83.14c4.44-1.11,16.15-.47,25.87-.64s17.51-1.17,26.59-5.62,19.49-12.42,30.21-23,21.78-23.77,34.31-34.66,26.58-19.5,46.6-23.94S629,993,647.09,996.23v.06c18,3.22,28.11,10,31.5,13.06s.06,2.4-7.67.82a169,169,0,0,0-35.3-4,188.61,188.61,0,0,0-50.3,7.26c-16.51,4.74-31,11.89-41.33,20.61s-16.4,19.14-25.41,28.28a109.82,109.82,0,0,1-32.5,22.36,103,103,0,0,1-33.9,8.85c-10.89.93-21.25,0-27.87-1.82S414.89,1086.81,419.34,1085.64Z"/><path d="M1010,959.17c14.52-4.62,33.84-7.43,49.18-10.65s26.7-6.85,36.71-9.14,18.56-3.28,21.2-5.91-.65-6.91-8.14-10.54-19.21-6.62-35.13-9.54-36.07-5.92-54.63-5.1A116.74,116.74,0,0,0,968,922.23c-15.69,8.49-30,20.84-41.51,33.43s-20,25.23-28.63,36.3a304.4,304.4,0,0,1-25.24,28.51c-8.08,8.08-15.69,14.88-22,20s-11.24,8.84-13.46,9.48-1.76-1.64,3-7,13.59-13.76,22.14-24.65,16.57-24.24,27-41.92,23.13-39.58,34.89-55.86,22.66-26.82,34.43-37.06,24.24-20.14,34.84-28.11S1012.56,841.25,1020,836s13.7-9.48,13.88-11.3-5.8-1.17-17.22,2.4a258.36,258.36,0,0,0-44.38,18.62,247,247,0,0,0-42.15,29.39,191.85,191.85,0,0,0-27,28.46,342.78,342.78,0,0,0-23.37,34.25,453.49,453.49,0,0,0-22.19,41.39c-5.79,12.65-8.9,22.37-13.29,29.1s-10,10.54-11.24,8.61,1.87-9.72,8.32-24,16.16-35.08,26.46-54.1,21.2-36.36,35.36-52.52A251.94,251.94,0,0,1,950,845c15.17-10.13,28-15.4,44-19.91s34.89-8.08,46.6-10.83,16.16-4.51,20.44-7.26,8.43-6.38,9.71-8.9-.17-4-3.27-3.8-7.91,2.22-17,3.22-22.43,1-35.25,2a188.68,188.68,0,0,0-37.94,6.67,232.78,232.78,0,0,0-41,16.39c-14.34,7.26-29.39,16.34-41.57,27.58s-21.6,24.59-29.62,37.47-14.58,25.24-20.14,35-10,16.8-12.53,18.15S829.19,937.57,831,928a195.58,195.58,0,0,1,12.65-39.17,214.15,214.15,0,0,1,26.17-44.32c10.89-14.17,23.95-27.4,39.34-41.22s33.26-28.4,43.8-37.88,13.88-13.94,10.83-13.7-12.47,5.21-23.65,12.88S915.9,782.7,901.55,794.7s-30,25.77-42.15,40a148.35,148.35,0,0,0-27.17,46.84c-6.44,17.75-10.71,38.36-13.12,53.4s-2.86,24.42-4.44,27.87-4.22,1-4.1-9.54,2.87-29.22,5.62-46.37c1.68-10.51,3.33-20.47,6-30l84-101.69,58-70.13-.56.6c-6.87,7.35-15,15.39-22.13,21.81a124.9,124.9,0,0,1-25.23,18.33c-9.9,5.44-22.78,11.06-35.66,20.72s-25.76,23.37-36.94,36.25-20.79,24.88-26.7,33.49-8.26,13.7-9.43,12.06-1.17-10.07,3.22-20.2,13.12-22,21.14-31.85,15.28-17.57,25-28.46,22-24.94,32.49-39.17A266.83,266.83,0,0,0,915,687c6.09-12.88,9.43-24.06,10.07-33.72a51.36,51.36,0,0,0-4.51-24.89c-3.22-7.2-7.67-13.46-9.72-13.58s-1.75,5.8-2.16,12.53-1.58,14.35-8.84,27-20.61,30.27-34.31,48.19-27.7,36.07-38.47,51-18.15,26.88-22.84,39.29-6.67,25.24-8.89,39.29-4.69,29.21-5.39,45.37a332.43,332.43,0,0,0,.92,37.1s0,.11,0,.16c.28,3.86.6,7.66.94,11.34,1.41,15.28,3.05,28.63,2.23,34.72s-4.1,5-5.8.06-1.64-13.47-4-26.46c-.51-2.94-1.15-6.1-1.83-9.45l0-.15c-2.35-11.51-5.3-25.27-6.16-40.06-1.06-19.14,1.4-39.93,6.09-59.72s11.65-38.58,17.56-54.51,10.89-29,15-39.28,7.44-17.92,7.61-20.38-2.81.18-5.68,4.86-5.68,11.48-9.72,18.33a81.74,81.74,0,0,1-16.57,20.14c-7.26,6.32-16.51,12.12-22.54,22.36s-8.84,24.89-11.3,38.59S752,841.54,751,852.32s-1.05,19.73,1.35,29.27,7.2,19.79,6,21.37-8.26-5.5-15.4-10.54a50.93,50.93,0,0,0-24.59-9.25c-10.13-1.23-23.19-.76-39.76,2.17s-36.71,8.14-55,13.29-34.84,10.07-52.29,11.13A129.26,129.26,0,0,1,520,902.32a110.56,110.56,0,0,1-36.36-22.66c-9.07-8.43-15.16-16.69-21.43-27.4s-12.7-24-16.51-32.14-5-11.54-5.21-10.48.41,6.49,2.81,15a174.36,174.36,0,0,0,12.06,30.86,114.5,114.5,0,0,0,21.78,30,107.5,107.5,0,0,0,35,23c13.93,5.62,30.09,8.6,46,9.13s31.32-1.23,46-3.28,28.51-4.39,42.39-5.8,27.69-1.87,40.81.36,25.47,7.2,35.95,15.75,19,20.78,26.4,34.13c.61,1.11,1.21,2.23,1.8,3.35l.06.13c6.5,12.37,11.9,25.6,15,38.44a102.67,102.67,0,0,1,2,40.17c-2,12.64-6.62,24.35-11.54,35.25s-10.24,21-14.46,26-7.32,5-7.73,2,1.88-8.9,6.21-20,10.54-27.23,13.47-43.33a98.48,98.48,0,0,0-3.17-49.18,128.79,128.79,0,0,0-8.12-19.34s-.05-.08-.07-.13a134.81,134.81,0,0,0-19.5-28.49c-11.65-12.7-24.36-20-37.59-23.83s-27.17-4.39-46.2-3.16-43.32,4.22-60.65,5.8-27.7,1.75-40.81-.59-29-7.08-42.22-14.11A112.31,112.31,0,0,1,464,882.24a123.66,123.66,0,0,1-17.92-27.64,121.73,121.73,0,0,1-8.31-22.6c-1.58-6.21-2-10.83-4.22-16.57s-5.91-12.7-7.2-11.36.06,10.89.24,19.91-.82,17.39,2,27.87,9.42,23,16.57,34.43,14.93,21.6,27.16,30.09,28.87,15.28,46.55,19.32A195,195,0,0,0,573.73,940c18.56-1.06,37.06-4.57,55.51-5.51s36.94.47,50.7,3.87a79.31,79.31,0,0,1,31,14.93c8.14,6.26,15.4,13.52,20.38,23.18a64.87,64.87,0,0,1,2.88,6.57l.06.15a121,121,0,0,1,6.19,26.31,125.43,125.43,0,0,1,.82,32.32,131.1,131.1,0,0,1-7.49,29.68A101.33,101.33,0,0,1,723,1093.31c-3.87,5.8-8,10.07-10.48,10.66s-3.28-2.58-.94-8.49,8-14.7,12.65-24.65a105.48,105.48,0,0,0,9.48-32.73,89.87,89.87,0,0,0-3.57-35.54,101.7,101.7,0,0,0-3.58-10h0l-.06-.15A77.51,77.51,0,0,0,711.79,969c-8.6-9.08-19.61-14.87-28.39-18.74a165.54,165.54,0,0,0-21-7.61c-5.86-1.76-11.13-3.22-13.06-2.87s-.41,2.46,4.27,5.27,12.65,6.27,22.43,12.77,21.55,16.1,29.45,27.16a71,71,0,0,1,10.11,20.58,1.09,1.09,0,0,0,0,.17,81.68,81.68,0,0,1,3.13,16.31,102.42,102.42,0,0,1-5.27,42.16c-4.86,14.35-12.94,28.69-20.55,35.54s-14.7,6.21-28.05,6.27c-9.07,0-21.08.45-33,1l3.48-4.2c1.49-.28,1.91-.85,2.15-2.59v0l11.51-13.92c0,2.87,0,5.35,0,7.26-.06,5.57-.06,6.5,2.51,7a45.2,45.2,0,0,0,11.07.35c3.4-.29,5-1.11,5.86-6.5s.82-15.22.17-26.58c-.09-1.6-.2-3.23-.31-4.87l0-.24c-.7-9.9-1.77-20.07-2.42-26.15-.76-7.09-1-8.61-4.33-9.55a41.46,41.46,0,0,0-12.83-.94h-.05c-3.22.41-3.22,1.64-2.58,8.67s1.87,19.79,2.46,31.32c.38,7.48.49,14.43.5,19.94l-11.46,13.86c.36-2.55.37-7.39-.69-14.36A220.93,220.93,0,0,0,631,1060c-2.51-8.67-5.27-16.52-6.61-22s-1.41-8.49-3-9.84-4.8-.88-8.72.47-8.49,3.69-10.54,5.45l-.06-.12c-2,1.76-1.46,3-.53,4.57s2.17,3.51,3.52,9.83,2.86,17.16,4.5,26.82,3.46,18.15,4.4,22.83.87,5.51,4.39,5.68,10.48-.35,14.34-.64c1-.08,1.82-.14,2.45-.24l-3.45,4.18c-5.52.25-11,.52-16.15.8-16.34.94-29.4,1.87-47.55,2.64s-41.39,1.22-58.25,3a158.09,158.09,0,0,0-36.3,8c-9.08,3-16.81,6-30.1,4.1s-32.08-8.67-49.24-14.34-32.67-10.31-45.43-13.76-22.84-5.8-35.9-6.09-29,1.34-37.76,4.21-10.25,7-8.61,10.07,6.44,5,14.93,5.51,20.73-.47,34.08.82a181.27,181.27,0,0,1,41.1,9.66c13.17,4.68,25.06,10.48,38.35,15.4A247.27,247.27,0,0,0,434,1148.23c11.24,2,19,2,29,1.35a282.88,282.88,0,0,0,35.72-5c13.29-2.69,27.46-6.67,39.69-9.49s22.43-4.44,29.22-6.32,10.07-4,17.92-5,20.2-.58,32.61-.23l.29-.35c28.44-.18,56.92-.35,79.81.06s40.28,1.4,50.17,2,12.36,1,19.21-.76,18.09-5.51,33.49-5.68,35.07,3.28,49.06,6,22.43,4.68,35.07,3.63,29.46-5.21,48.43-12.94a348.25,348.25,0,0,0,56-29.63c15.92-10.48,26.64-20,35.71-24.65a33.84,33.84,0,0,1,22.55-3.22,31.48,31.48,0,0,1,15.75,7c5.09,4.1,10.71,10.54,15.39,11.06s8.49-5,9.66-11.06-.35-12.88-5.21-20.14a67.28,67.28,0,0,0-22.19-20c-9.07-5-19-7.32-30.91-8.43a124.39,124.39,0,0,0-40.75,2.69,143.06,143.06,0,0,0-42,18.39c-11.71,7.67-19.62,15.92-29.39,24.18a224.56,224.56,0,0,1-31.91,22.6c-10.66,6.09-20.38,10.07-24.42,10.31s-2.4-3.22,5.09-10.08,20.85-17.09,35.13-27.28,29.46-20.43,43.21-27.87a186.46,186.46,0,0,1,39.17-15.75,234.91,234.91,0,0,1,40.93-7.9,381.41,381.41,0,0,1,39.17-1.35c10.31.06,16.28.23,21,.88a41,41,0,0,1,11.48,3.16c3,1.35,5.5,2.81,6.91.94s1.75-7.21-1.35-12.06-9.49-9.31-16.34-13.06a114.6,114.6,0,0,0-23-9.25c-8.84-2.58-19.2-4.69-31.09-2.81s-25.23,7.84-36.24,12.12-19.56,6.91-22.54,5.38-.35-7.32,5.85-13.46S995.47,963.8,1010,959.17Zm-40.93,3.28c-9.6,7.14-18.15,15.87-25,22.54s-12,11.3-14.87,12.65c-2.5,1.12-3.36-.21-.23-5.08.44-.67.95-1.41,1.54-2.22l.09-.14c4.3-5.88,12.93-15.46,21.67-24.15,1.27-1.26,2.54-2.51,3.8-3.72,10-9.54,19.38-17.15,28.52-22.83s18.09-9.49,26-11l.06-.12c7.91-1.46,14.87-.64,12.88,2.4a.39.39,0,0,1-.08.1c-2.15,3.06-12.91,8.27-23.51,13.6S978.61,955.37,969.06,962.45Z"/><path d="M148.13,212c1.87.53,4.51-4,8.32-8.31A55.41,55.41,0,0,1,171.32,192a92,92,0,0,1,16.86-6.79c3.86-1.11,4.51-.94,4.16.23s-1.64,3.4-4.92,5.86-8.43,5.09-13.18,8.49a105.54,105.54,0,0,0-12.82,11.42c-3.8,3.8-7.14,7.2-9.6,11.3s-4,9.07-2.28,10.3,6.73-1.11,10.71-4.27,6.79-7.09,11.24-11.66,10.6-9.77,14.7-13.52,6.26-6.21,8.14-7.26,3.57-.82,2.92,1.29-3.51,6.09-7.43,10.54S181,217.46,176.41,222s-8.66,8.72-11.65,11.18-4.8,3.28-3.86,4.27,4.68,2.05,10.24-.41,13-8.37,19.15-15a91.59,91.59,0,0,0,13.58-19c2.58-5.1,2.81-7.91,5.56-10.25s8-4.39,10-3.92.52,3.33-1.88,7.08-5.91,8.37-9.31,13.18-6.79,9.83-9.83,13.52a54.7,54.7,0,0,1-9.14,8.61c-3.33,2.63-7.32,5.62-5.79,5.68s8.55-2.75,15.1-7.15a82.65,82.65,0,0,0,17.74-16.74,114.53,114.53,0,0,0,11.65-17.62c2.52-4.69,3.52-7.5,5.74-9.78s5.68-4,7.2-4,1,1.87-.17,4.62-3,6.5-5.39,11.13a126,126,0,0,1-8.14,14c-2.75,3.86-5.32,6-8.72,8.84s-7.73,6.38-6.62,7,7.5-1.7,13.12-5.27a47.7,47.7,0,0,0,14.29-14.35,101.79,101.79,0,0,0,8.89-18c2.05-5.21,3.23-8.67,6.33-11.13s8.14-4,9.48-3.33-.93,3.33-3.16,7.26-4.27,9-6.2,13.52A52.36,52.36,0,0,1,248,208c-2.87,3.69-6.73,7.26-5.8,7.62s6.74-2.58,11.36-5.51,8.2-6,10.83-10.83,4.28-11.42,6.33-16.51,4.68-8.73,8.54-11.24,9.08-3.81,10.6-3.52-.64,2.17-3.39,5.1a54.7,54.7,0,0,0-8.61,11.24c-2.34,4.33-3.57,9-5.33,12.76s-4,6.56-2.11,6.56,7.79-2.81,12.12-7.26,7-10.54,9.55-15.69,4.68-9.37,7.9-12.35,7.44-4.69,10.37-5.8,4.56-1.47,4-.29-3.4,4-5.57,7.2S305,176.24,303,180a56.28,56.28,0,0,1-7.15,10.83c-2.75,3.1-5.91,5.33-5.21,6s5.21-.23,9.14-2.28,7.08-5.27,10.24-9.43a147.14,147.14,0,0,0,9-14c2.75-4.69,5.21-9,8.26-11.65s6.55-3.63,7.37-2.34-1.05,4.8-3.8,8.78-6.27,8.31-9.08,12.18-4.86,7.14-7.32,9.83-5.21,4.74-4,5,6.39-1.35,11.07-4.22a40.45,40.45,0,0,0,12.06-11.94c3.28-4.8,5.8-10.25,8.2-14.4s4.8-6.91,8.72-9,9.37-3.28,10.37-2.46-2.46,3.57-5.1,6.32-4.45,5.39-6.91,8.14-5.62,5.68-8.43,8.84-5.27,6.62-5.15,8.37,2.87,1.76,6.09.36,6.91-4.1,11.06-9.14,8.79-12.35,12.48-17,6.49-6.5,9.71-7.9,6.85-2.17,7.5-1.35-1.64,3.4-4.74,6.68-7,7.2-11.36,11.59-9.25,9.13-12.18,12-3.92,3.75-2.28,3.87,5.79-.53,10.59-3.28,10.13-7.5,15.28-13.18,10-12.17,14.17-16.1a24.46,24.46,0,0,1,10.25-6c2.52-.76,4-.94,3.81.06s-2.11,3.16-4.51,5.68-5.27,5.38-8.14,8.43-5.8,6.15-8.61,9.25-5.68,6.15-4.1,6.73,7.38-1.34,12.36-4.62,9-8,12.18-12.18,5.5-7.79,8-10.42a21.93,21.93,0,0,1,8.31-5.33,33,33,0,0,1,8.14-2c1.7-.06,1.7.47-.06,2.4s-5.21,5.09-8.66,8.49-6.91,6.91-10.84,10.19-8.31,6.2-8.84,7.61,2.64,1.23,7-.12a43.37,43.37,0,0,0,15.28-8.43c5.27-4.51,10.25-11.07,13.76-15.28s5.68-6.09,8.84-7.5,7.38-2.16,8.2-1.4-1.76,3.16-4.63,5.8-6.09,5.38-9.07,8.19-5.68,5.62-8.55,8.43-5.8,5.62-4,6.21,8.31-.94,13.52-4.68,9.2-9.55,13.47-14.17a48.8,48.8,0,0,1,13.06-10.25c4.27-2.28,8.31-3.4,10.07-3.4s1.17,1.29-1.7,3.58-8,5.56-12.06,8.6a103.22,103.22,0,0,0-10.54,8.84c-3.28,3.11-6.62,6.56-5.5,7.85s6.73.35,12.76-3.51,12.59-10.72,17.68-15.58,8.73-7.73,12.3-9.6,7.14-2.69,8.08-2-.71,2.93-3.16,5.39-5.8,5.21-10.25,9.19-10.19,9.31-10.42,11.94,5.09,2.64,10.65-.64,11.54-9.78,16.92-15.17,10.13-9.71,14.29-12.23,7.73-3.28,8.73-3-.47,1.35-3.28,4.22-6.91,7.38-11.66,11.94-9.95,9.2-10.53,11.77,3.57,3.05,8.72-.06,11.36-9.77,17-15.34,10.77-10,14.7-12.47,6.79-3,7.43-2.34-.82,2.34-5.68,7.08-13.11,12.48-15.69,16.28.47,3.51,4.1,2.05,7.84-4.22,13.11-9,11.66-11.65,17-15.28,9.72-4.16,9.37-2.57-5.5,5.32-10.83,10.24S548.44,142.11,547.33,145s2.16,2.58,6,.94,8.08-4.62,13.35-9.43S578.06,125,583,121.67s8.67-3.33,8.9-2.28-3,3.22-6.73,6.67-8,8.26-11.36,11.95-5.74,6.32-5,7.49,4.63.82,8.43-1.05,7.5-5.39,12.06-9.95,9.9-10.25,13.53-13.35,5.5-3.46,7.61-3.69,4.39-.24,3.75,1.05-4.28,3.87-8.84,7.91a119.18,119.18,0,0,0-12.36,12.88c-2.34,3.22-1.58,4,.24,4.68a9.26,9.26,0,0,0,7.49-.47c2.81-1.46,5.51-4.86,9.84-9.31s10.24-9.95,14.93-12.94,8-3.39,7.9-2.4-3.86,3.4-7.2,6.5-6.21,6.91-9.72,10.31-7.61,6.5-7.49,7.9,4.51,1.17,9.83-2,11.6-9.13,16.52-13.47,8.6-7,12.29-8.25,7.49-1.17,7.44.06-4,3.63-7.73,6.32a133.18,133.18,0,0,0-10.89,9c-3.69,3.39-7.67,7.2-7,8.66s5.8.65,11.07-2.22,10.54-7.85,14.93-11.71,8-6.68,11.65-8,7.61-1.18,7.26.41-4.86,4.56-9.9,8.31S654,139,652.72,141.76s1.93,3.74,5.79,2.4,8.37-5.1,12.88-9,9-8,12.47-10.07,6.21-1.93,5.68-.47-4.27,4.27-8.9,7.9-10.24,8.08-11.94,10.43.64,2.57,3.28,2a27.71,27.71,0,0,0,8.2-3.69c2.57-1.64,4.74-3.46,8.49-6.15s9.07-6.26,13.4-8,7.61-1.7,7.91-.41-2.46,3.63-6.5,6.56-9.54,6.38-10.72,8.37,1.88,2.46,5.21,1.7a26.25,26.25,0,0,0,9.43-4.69c2.28-1.87,3.22-3.51,5.1-5.38a17.92,17.92,0,0,1,7.61-4.69c3-.76,6.09-.29,6.32.47s-2.4,1.88-6.73,4.33-10.37,6.33-11.77,8.08,1.7,1.35,5-.23,6.79-4.16,10.53-5.91a28.36,28.36,0,0,1,12.3-2.58c4.45-.06,9.37.7,12.47.7s4.33-.82,3.92-1.7-2.4-1.93-10.18-3.63l.29-.46c-7.79-1.7-21.31-4.1-35.66-6.21s-29.51-3.92-46.6-5.33a485.07,485.07,0,0,0-58.85-1.58c-22.83.76-49.47,3.34-69.67,5.62s-34,4.28-48.6,6.38-30,4.45-51.81,8-49.89,8.31-75.3,13.58-48.07,11.06-68.68,16.69-39,11.06-53.16,15.69S210.08,189,204.69,191s-6.5,2.05-7.32,1.28A6.19,6.19,0,0,1,196,188a8.94,8.94,0,0,1,2.34-6c1.76-2,4.74-4.1,9.72-7.32a110.39,110.39,0,0,1,25.35-12.36c13.35-4.8,33-10,55.74-15.34s48.65-10.89,73.36-16.1,48.25-10.07,68.57-13.93,37.58-6.79,54.56-9.19,33.61-4.39,51-5.92,35.54-2.46,54.63-2.75,39.17.12,59.37,1.46,40.69,3.58,57.73,6.21,30.5,5.68,40.81,8.14,17.39,4.27,20.84,4.92,3.28.17,1.64-2.93-4.8-8.78-7.61-11.71-5.39-3-4.39-.29,5.5,8.43,6.73,11.12-.94,2.46-3.22.59-4.68-5.33-7.67-9S748.86,100,745.05,98s-7.67-2-7,.35,6.15,7.2,8.78,10.07,2.58,3.75.47,3.75a21.42,21.42,0,0,1-9.19-2.69c-3-1.82-4.8-4.57-7.44-7.56a44.67,44.67,0,0,0-10.18-8.78c-4.1-2.46-8.79-4.1-10-3.4s1.23,3.87,5.21,7.44,9.61,7.49,9.9,9-4.74.35-9.43-2.23-9-6.73-13-10.65-8-7.73-11.66-10.25-7.26-3.75-9.95-3.69-4.62,1.35-4.1,2.58,3.4,2.4,6.85,4.68a97.17,97.17,0,0,1,10.72,8.61c3.22,2.93,5.62,5.39,5.21,6.62s-3.63,1.11-6.21-.36S689.6,97,685.91,94s-9.25-6.15-15.34-9.84S657.81,76.3,653,74.66s-7.9-.76-8.31.82,1.81,3.8,6.85,6.67,12.88,6.44,18.91,9.72,10.24,6.21,10.83,7.61-2.34,1.23-4.92.76-4.68-1.17-9-3.69-10.59-6.79-17.09-10.65a119.55,119.55,0,0,0-18.8-9.43c-5.74-2.11-10.6-2.87-13.58-2.69s-4.16,1.23-2.75,2.57,5.38,3,13.87,6.86S650.67,93,655.64,95.85s1.88,2.4-1.87,2.11A52.7,52.7,0,0,1,641,96c-4.81-1.52-10.07-4.39-16.16-7.79s-13.06-7.26-19.15-9.89a56.87,56.87,0,0,0-17.51-4.69c-6.09-.64-13.05-.58-15.1,0s.76,1.64,5.62,3.28A170.32,170.32,0,0,1,597.8,84.2c7.31,3.4,15,8,17.91,10.36s1.23,2.29-1.11,2.11a32.12,32.12,0,0,1-9.78-2.46c-4.45-1.87-10.42-5.15-16.1-8.14a109.27,109.27,0,0,0-17.1-7.49,84.14,84.14,0,0,0-20-3.51c-8-.59-17.68-.65-22-.06s-3,1.93,2.35,2.93,14.87,1.64,23.71,3.39,17.1,4.69,21.95,7.26,6.21,4.92,4.4,5.92-6.85.76-11.25-.06-8.08-2.35-14.52-4-15.57-3.57-24.41-5.86-17.33-4.92-26.35-5.79a92.15,92.15,0,0,0-21.72.64c-3.1.64.29.94,5.39,1.35a109,109,0,0,1,20.31,2.87c8.43,2.1,18.62,5.91,25.59,8.31s10.89,3.51,9.6,4.39-7.73,1.52-13.17,1.35a74.09,74.09,0,0,1-15.46-2.46c-5.45-1.29-11.77-2.87-18.5-5s-13.7-4.86-21.55-6.79a107,107,0,0,0-23.24-3c-6.79-.06-11.65.94-10.66,1.76s7.73,1.35,15.58,2.81a190.32,190.32,0,0,1,24.24,6.21c7.37,2.46,13.17,5,15.86,7s2.29,3.4-.7,4.1-8.49.71-14.46,0A82.16,82.16,0,0,1,464.42,98c-5.91-2.17-11.36-5-17.74-7.2a72.37,72.37,0,0,0-21.14-3.75c-7.38-.23-14.81.76-17.15,2.05s.35,2.75,5.79,3.45,13.59.76,22.08,2.58,17.21,5.44,21.07,8.14,2.87,4.39.77,5.38a12.1,12.1,0,0,1-8.55.18c-3.11-1-6-3.45-11.36-5.85a123.13,123.13,0,0,0-21-6.56A136.61,136.61,0,0,0,394.8,93.1c-7.14-.41-13.87-.06-16,.94s.35,2.75,6,3.69,14.46,1,23.72,2.69a128.58,128.58,0,0,1,24.35,7.43c5.51,2.29,6.79,3.58,5.15,4.51s-6.26,1.58-11.12,1.64a61.47,61.47,0,0,1-16.39-2.16c-6.39-1.58-14.06-4.28-20.2-6.33a112.31,112.31,0,0,0-16.75-4.8,81.58,81.58,0,0,0-20.84-1.35c-7.56.53-15.28,2.35-18.1,3.81s-.52,2.52,4.34,3,12.35.29,19,.35a79.26,79.26,0,0,1,19,2c6.44,1.58,13.46,4.39,19,6.26s9.83,2.87,8.84,3.87-7,2-12.12,2.05-9.14-.88-14.35-2.46-11.65-3.81-18-5.51a110.52,110.52,0,0,0-19.67-3.63,136.22,136.22,0,0,0-21.84-.23c-7,.53-13.06,1.7-15.11,3.16s.06,3.16,4.86,3.69,12.41-.12,20.61.06a153.9,153.9,0,0,1,24.71,2.81c7.67,1.52,14.17,3.51,16.68,5s1.06,2.58-2.16,3.17a56.88,56.88,0,0,1-12.3.17c-4.27-.35-7.9-1.11-14-2.22s-14.7-2.58-21.72-3.75-12.59-2-18.5-2.52a85.81,85.81,0,0,0-17.69-.06c-5.38.76-9.83,2.46-9,3.28s6.91.65,15.92,1.23,20.85,2,29.75,3.63,14.69,3.4,15.86,4.92-2.4,2.64-7.37,3a62.88,62.88,0,0,1-17.92-1.7c-6.5-1.52-13.12-4.1-20.43-5.39s-15.4-1.29-20.61-1.29-7.38,0-7,.94,3.22,2.87,9.72,4.27,16.69,2.29,24,3.58,11.65,2.81,11.12,4.15-6,2.52-12.24,2.4a71.28,71.28,0,0,1-18.62-3.16A66.86,66.86,0,0,1,264.94,133c-3.57-1.81-7.2-3.63-12.36-3.63s-11.94,1.82-11.24,3.16,8.84,2.17,16.1,3.93a115.86,115.86,0,0,1,17.69,6.2c4.1,1.76,5.91,2.46,4.5,3.34s-6,1.87-9.71,2.34-6.5.47-12.77-.88-16-4.21-23.65-5.56-13.18-1.29-17-.35-6.09,2.63-4.57,3.69,6.79,1.46,14.29,2.4,17.21,2.28,22.6,3.22,6.32,1.35,3.57,2.4a66.21,66.21,0,0,1-14.46,3.28c-5.21.47-9.08-.35-14.29-1.7s-11.71-3.16-18.21-3.4A56.07,56.07,0,0,0,187,154.23c-5.51,1.69-10,3.74-9.31,5.15s6.79,2.17,11.65,1.76,8.61-2,14.17-2.35a82.46,82.46,0,0,1,17,1.17c3.86.71,4.1,1.29,1.87,2.64a35.75,35.75,0,0,1-12.64,4.27c-5.62.76-12.07.06-18.21.12a88.24,88.24,0,0,0-18.45,2.17c-6.44,1.34-13.46,3.33-17.8,7.43s-6.08,10.25-4.5,11.13,6.55-3.69,11.76-7a46.11,46.11,0,0,1,18.16-6.56c7.37-1.17,16.62-1.52,18.91-.76s-2.29,2.7-9.43,4.69-16.69,4-24.77,7.73-14.69,9.07-17.44,14.57S146.26,211.49,148.13,212Z"/></g></svg>